<svg width="160" height="160" viewBox="0 0 160 160" fill="none" xmlns="http://www.w3.org/2000/svg"><g clip-path="url(#clip0_12319_29564)"><path d="M43.805 13.13c30.334-16.658 68.348-9.422 93.18 15.857 23.195 23.612 31.494 59.362 12.513 86.698-57.58 82.918-180.073 25.353-140.895-63.229 7.24-16.371 19.382-30.638 35.202-39.327z" fill="#CDF3F1"/><path d="M105.194 37.11c-1.779.292-3.637.769-5.258.247-1.952-.63-3.142-2.571-4.148-4.455-2.871-5.375-8.37-13.974-11.995-12.116a29.578 29.578 0 00-10.832 5.859l-2.616 2.23a70.965 70.965 0 00-21.338 31.707l-.934 2.823a37.525 37.525 0 00-1.855 13.64c.087 5.6 9.597 6.2 15.663 6.774 2.128.203 4.376.552 5.712 2.11 1.108 1.29 1.385 3.19 1.798 4.946 2.286 9.676 10.142 16.796 19.822 17.964 5.01.604 10.306-.109 15.418-.451 5.525-.368 11.001.173 16.5.71l19.408-29.149c.342-.514-2.909-8.362-3.168-9.184-2.421-7.72-3.918-15.16-7.964-22.295-4.804-8.482-14.402-12.986-24.213-11.36z" fill="#0E423F"/><path d="M116.165 109.259c-1.163 2.541.728 5.945 3.498 6.306 2.804.36 5.198-1.881 7.101-3.968 8.014-8.794 15.712-18.402 18.985-29.842.675-2.365 1.539-5.266.018-7.195-2.845-3.618-6.819.157-6.819.157l-22.783 34.542zM120.692 59.914c2.571-3.577 4.995-7.762 5.622-12.123.627-4.361-.203-9.023-2.792-12.589-2.902-3.997-9.331-8.861-14.672-5.51-3.123 1.963-3.78 5.683-3.273 9.084a26.408 26.408 0 002.079 7.044s-5.003-.153-5.059-.153c-.683-.023-1.336-3.979-1.471-4.55-.451-1.902-.789-3.843-.804-5.806-.026-3.213.897-6.564 3.176-8.828 8.463-8.41 22.591.66 26.659 9.248 3.168 6.693 2.309 13.914-.754 20.46-1.438 3.074-3.213 5.975-4.981 8.865l-3.73-5.142zM96.636 98.446c-2.086 3.881-4.777 7.893-8.422 10.374-3.644 2.477-8.193 3.779-12.536 3.021-4.868-.852-12.06-4.492-11.391-10.761.39-3.666 3.445-5.892 6.722-6.928a26.516 26.516 0 017.24-1.228l-2.36-4.477c-.32-.604-4.16.548-4.734.675-1.91.432-3.798.98-5.57 1.828-2.897 1.385-5.502 3.69-6.538 6.73-3.84 11.297 10.513 20.009 20.017 19.889 7.405-.09 13.511-4.035 18.05-9.665 2.131-2.642 3.955-5.51 5.776-8.366l-6.254-1.092z" fill="#0E423F"/><path d="M60.196 47.866c2.54-4.309 5.543-8.651 9.116-12.315 2.061-2.113 11.486-11.33 13.441-9.473 3.61 3.43-.623 12.31-2.053 16.038-3.145 8.208-7.98 15.749-14.086 22.07a65.867 65.867 0 01-7.93 6.988c-1.487 1.111-4.04 3.145-6.055 2.36a1.177 1.177 0 01-.454-.296c-1.595-1.707.165-5.825.743-7.908 1.87-6.76 3.652-11.312 7.278-17.464z" fill="#fff"/><path d="M74.383 40.731c-.743.124.222.916-.56.98-7.795 8.107-12.404 17.284-14.119 28.682a65.995 65.995 0 006.906-6.208 65.757 65.757 0 0013.28-20.084c-.98-1.264-3.968-2.916-5.507-3.37z" fill="#29A49D"/><path d="M78.091 43.114a.887.887 0 00-.033-.195s-2.77-1.846-3.671-2.188c-8.145-3.074-17.982-3.956-25.992.004-4.234 2.09-7.983 5.01-11.684 7.912a24.189 24.189 0 01-3.91 2.518c-.902.462-3.855.897-4.392 1.524 2.717-3.16-1.141-5.75-4.02-6.73-3.232-1.095-6.748.721-8.486 2.8-3.247 3.889-.653 9.162 4.538 11.594 6.88 3.22 13.725-.405 18.432-3.847 3.596-2.63 7.563-3.044 12.57-2.818 6.017.27 10.085 1.58 15.606 4.838-.004-.004 7.822-11.23 8.96-12.687.551-.709 2.15-1.7 2.082-2.724z" fill="#29A49D"/><path d="M24.697 46.8c-3.39-.308-6.978 2.18-6.29 5.915.769 4.181 5.82 5.728 9.473 5.123 5.194-.863 9.822-4.38 14.1-7.217 4.659-3.09 9.317-6.246 14.984-7.019 6.779-.923 12.454 1.652 18.331 4.643.586.297.999-.477.503-.856-4.312-3.284-9.75-5.28-15.19-5.408-5.54-.132-10.629 1.933-15.245 4.85-5.191 3.28-10.378 7.821-16.357 9.574-3.217.942-7.237.604-9.23-2.507-2.312-3.611 1.494-6.621 4.913-6.467.417.015.406-.597.008-.631z" fill="#fff"/><path d="M25.511 48.594c-1.557.42-2.263 2.173-1.31 3.517.886 1.25 3.01 1.866 4.298.912.319-.236.146-.886-.3-.71-1.003.391-2.249.305-3.067-.446-.987-.908-.638-2.383.526-2.924.198-.09.056-.401-.147-.349z" fill="#fff"/><path d="M75.558 53.2c-.064.082-3.682-1.79-3.99-1.94-14.747-7.203-32.263-.519-40.333 12.76-3.138 5.169-4.159 12.323-5.27 18.174-.386 2.042-.72 4.436-1.779 6.245-.983 1.682-2.702 2.73-4.391 3.596-.045-7.93-7.642-7.86-12.277-6.298C2.316 87.49-.09 94.16.004 99.324c.172 9.65 9.109 15.19 18.184 13.429 12.034-2.334 16.616-15.456 18.737-25.976 1.622-8.04 3.806-16.368 10.273-21.417 5.675-4.432 15.19-4.962 21.795-2.878.796-.819 5.856-8.39 6.565-9.282z" fill="#0E423F"/><path d="M9.042 86.916C3.79 90.48 3.333 98.172 7.713 102.623c5.07 5.154 13.306 4.324 18.11-.747 5.405-5.705 4.68-14.619 6.34-21.795 1.846-7.983 5.393-16.21 12.186-21.206 7.668-5.638 17.307-5.525 26.187-3.45.63.147.86-.743.263-.957-6.4-2.312-13.745-2.533-20.227-.383-6.486 2.151-11.508 6.869-14.848 12.75-3.457 6.088-5.157 13.006-6.084 19.893-.526 3.911-.826 8.013-2.725 11.56-1.974 3.69-5.739 6.433-9.961 6.801-4.35.379-8.896-2.038-10.738-6.061-1.847-4.035-.428-8.993 3.134-11.564.334-.237.033-.777-.308-.548z" fill="#fff"/><path d="M11.913 88.792c-1.276 2.23-.48 5.326 1.94 6.407 2.459 1.096 5.57-.405 6.238-2.987.105-.41-.533-.717-.709-.3-.833 1.947-2.999 3.362-5.123 2.503-2.065-.837-2.898-3.476-2.016-5.431.098-.218-.206-.41-.33-.192z" fill="#fff"/><path d="M50.152 82.475c1.01-5.044 4.703-8.246 9.072-11.335 3.501-2.477 4.398-3.75 8.463-8.088.845-.86 1.505-1.58 2.252-2.56-9.086-2.6-19.637.056-26.483 6.7-7.942 7.71-10.783 20.005-7.77 30.653 2.602 9.188 14.17 19.773 10.581 28.615-6.013-6.906-12.607-1.122-15.486 3.739-3.232 5.453-.312 13.099 3.66 17.55 7.42 8.314 19.412 6.43 26.029-1.948 8.767-11.106 2.894-26.04-3.176-36.846-4.639-8.261-9-17.19-7.142-26.48z" fill="#29A49D"/><path d="M33.04 130.116c-2.26 8.306 5.353 15.636 13.505 14.571 7.322-.958 12.742-7.676 12.64-14.942-.104-7.364-4.169-14.289-7.693-20.508-1.836-3.236-3.75-6.441-5.356-9.8-1.9-3.975-2.913-8.235-3.06-12.65-.19-5.798 1.16-12.257 5.556-16.356 3.9-3.637 9.252-5.262 14.225-6.842.611-.195.36-1.085-.263-.957-7.856 1.602-15.91 5.104-19.12 12.979-3.085 7.57-2.131 16.642 1.258 23.946 3.014 6.497 7.154 12.404 10.126 18.924 2.91 6.381 5.026 14.176.136 20.178-3.315 4.068-8.73 6.272-13.892 4.736-5.513-1.64-8.808-7.563-7.457-13.117.097-.387-.5-.556-.605-.162z" fill="#fff"/><path d="M36.959 129.572c.627 3.036 3.956 5.157 6.94 3.9 2.687-1.134 3.933-4.489 2.687-7.083-.191-.398-.848-.116-.71.3.733 2.234-.018 4.913-2.274 5.946-2.54 1.163-5.528-.627-6.28-3.164-.067-.237-.416-.139-.363.101zM119.776 105.967c7.304-7.855 15.891-16.784 17.862-27.763.116-.645-.781-.908-.991-.274-1.7 5.221-4.005 9.946-7.116 14.477-3.131 4.556-6.801 8.722-10.45 12.87-.409.469.263 1.156.695.69z" fill="#fff"/><path d="M89.231 28.011c-.548 7.465-2.29 14.518-5.465 21.311-1.47 3.15-3.186 6.178-5.078 9.095-2.012 3.1-4.339 5.93-6.467 8.94-.315.443.372.942.74.57 5.187-5.202 9.405-12.093 12.393-18.762 2.946-6.58 4.94-13.895 4.583-21.158-.015-.458-.672-.454-.706.004zM56.668 80.441c4.815-2.312 8.97-4.853 12.648-8.772.402-.427-.218-1.05-.642-.641-3.73 3.565-7.89 6.279-12.43 8.685-.489.255-.06.96.424.728z" fill="#29A49D"/><path d="M72.878 85.227c1.088 2.935 2.507 6.328 5.544 7.724 2.574 1.186 5.971.383 7.315-2.248 1.817-3.559-1.021-7.14-2.646-10.112-1.126-2.057-2.034-5.003-.14-6.917 1.9-1.918 4.805-.908 7.005-.128 3.449 1.224 7.026 1.78 9.612-1.392 2.06-2.53 2.038-5.99.27-8.674-.867-1.317-2.034-2.27-3.415-2.995-.939-.492-1.87-.819-2.388-1.813-.773-1.475-.078-3.24 1.295-4.095 2.215-1.377 4.403-.244 6.625.327 1.648.42 3.476.529 5.127.07 3.37-.934 5.277-4.905 3.96-8.121-1.746-4.268-6.726-5.169-10.769-5.672-.93-.116-.915 1.337 0 1.457 3.69.476 10.81 1.813 9.808 7.135-.92 4.883-6.013 4.245-9.526 3.213-2.507-.736-5.611-.582-7.255 1.764-1.25 1.786-1.074 4.327.645 5.735 1.288 1.054 2.89 1.479 4.054 2.736 1.464 1.584 2.259 3.85 1.719 5.983-.458 1.813-1.892 3.52-3.708 4.08-2.181.668-4.343-.335-6.377-1.025-2.474-.837-5.72-1.419-7.672.814-1.595 1.828-1.336 4.58-.458 6.655 1.419 3.348 6.903 10.67.47 12.375-4.325 1.144-6.937-3.998-8.43-7.15-.173-.376-.808-.117-.665.274z" fill="#fff"/><path d="M80.497 97.838c6.463 1.084 12.232-5.563 10.705-11.913-.09-.383-.755-.424-.815 0-.39 2.732-.518 5.224-2.2 7.566-1.73 2.417-4.627 3.784-7.577 3.498-.477-.045-.593.766-.113.849zM96.84 79.086c5.535-1.858 11.965-7.63 8.771-14.09-.263-.529-1.085-.154-.939.394 1.629 6.163-2.593 10.712-8.08 12.8-.545.21-.327 1.088.247.896zM109.015 59.918c6.459-1.877 10.078-9.222 6.703-15.329-.274-.495-1.152-.157-.938.395 2.192 5.678-.015 11.984-6.005 14.07-.533.192-.319 1.029.24.864z" fill="#29A49D"/><path d="M46.196 77.078l.026-.034-.026.034z" fill="#0E423F"/><path d="M123.934 63.09c-4.451 8.29-9.462 16.274-14.814 24.01-2.789 4.027-5.769 7.923-9.034 11.575a90.17 90.17 0 01-5.138 5.292 78.752 78.752 0 01-4.29 3.776c-.218.18-1.123 1.129-1.378 1.099 3.742.443 7.642.154 11.504-.161 12.285-11.012 26.423-32.819 32.92-50.2-1.092-3.311-2.372-6.565-4.151-9.755-1.355 5.325-3.265 9.983-5.619 14.364z" fill="#29A49D"/><path d="M89.892 103.772l-.004-.004-.004-.004a.847.847 0 00-.214-.165l-.251-.105c-.004 0-.008-.004-.011-.004h-.004c-.045-.019-.098-.026-.15-.019a.855.855 0 00-.443.019l-.267.113c-.075.056-.15.116-.225.172a.828.828 0 00-.229.357.833.833 0 00-.094.428c.015.097.027.195.042.296l.112.267a.864.864 0 00.285.311c.068.068.15.117.245.143a.834.834 0 00.427.094c.098-.015.195-.026.297-.041a.835.835 0 00.375-.199.567.567 0 00.2-.199.848.848 0 00.198-.376c.015-.097.026-.195.041-.296-.015-.098-.026-.195-.04-.297a1.107 1.107 0 00-.286-.491zM95.184 100.079c0-.015-.004-.027-.004-.042a1.05 1.05 0 00-.139-.518.81.81 0 00-.262-.289.782.782 0 00-.35-.184 1.03 1.03 0 00-.544 0l-.037.012c-.083.033-.169.07-.252.105-.07.056-.142.109-.214.165-.056.071-.108.142-.165.214-.033.082-.071.169-.105.251-.011.094-.026.188-.037.282.011.094.026.187.037.281.034.083.072.169.105.252a.799.799 0 00.274.296.516.516 0 00.233.135.515.515 0 00.266.072.518.518 0 00.282 0 .557.557 0 00.266-.072.532.532 0 00.233-.135.555.555 0 00.192-.191.526.526 0 00.135-.233.84.84 0 00.086-.401zM98.9 95.567c1.554 0 1.557-2.417 0-2.417-1.554.004-1.558 2.417 0 2.417zM103.246 90.008c1.471 0 1.471-2.282 0-2.282-1.467 0-1.471 2.282 0 2.282zM106.981 84.502c1.437 0 1.441-2.233 0-2.233-1.438 0-1.438 2.233 0 2.233zM111.702 78.088a.65.65 0 00-.041-.316.864.864 0 00-.21-.397.85.85 0 00-.33-.3.878.878 0 00-.436-.14.907.907 0 00-.469.023 1.205 1.205 0 00-.518.3c-.06.08-.124.158-.184.237a1.214 1.214 0 00-.161.593.843.843 0 00.101.45c.049.147.128.27.244.38.147.146.319.243.518.3.105.015.207.026.312.04a1.175 1.175 0 001.174-1.17zM114.637 72.514l-.078-.158a1.026 1.026 0 00-.364-.364.73.73 0 00-.379-.12.785.785 0 00-.406.019 1.015 1.015 0 00-.45.263l-.117.135-.18.233c-.037.09-.075.18-.116.274-.015.1-.026.202-.041.304.015.1.026.202.041.304.037.09.075.18.116.274l.18.232.233.18a.87.87 0 00.424.136.596.596 0 00.304 0 .566.566 0 00.289-.08.555.555 0 00.252-.146.601.601 0 00.206-.206.562.562 0 00.147-.251.562.562 0 00.078-.29.58.58 0 000-.303.821.821 0 00-.139-.436zM117.047 68.292c1.396 0 1.396-2.17 0-2.17s-1.396 2.17 0 2.17zM120.297 62.815a.95.95 0 00.488-.108.941.941 0 00.406-.263.976.976 0 00.262-.406.936.936 0 00.109-.487l-.045-.338a1.267 1.267 0 00-.326-.56l-.256-.198a1.269 1.269 0 00-.638-.173.955.955 0 00-.488.109.943.943 0 00-.405.263.988.988 0 00-.263.405.945.945 0 00-.108.488l.045.338c.06.214.168.401.326.559l.255.199c.199.112.409.172.638.172zM123.142 56.345c1.404 0 1.408-2.185 0-2.185-1.403 0-1.407 2.185 0 2.185zM125.443 50.79c1.333 0 1.333-2.068 0-2.068-1.332 0-1.332 2.068 0 2.068zM108.216 105.941a.83.83 0 00.405-.09.77.77 0 00.338-.218.77.77 0 00.217-.338.74.74 0 00.09-.405c-.011-.094-.026-.188-.037-.278a1.048 1.048 0 00-.27-.465l-.214-.165a1.056 1.056 0 00-.529-.143.821.821 0 00-.406.09.787.787 0 00-.338.218.77.77 0 00-.217.338.741.741 0 00-.09.405c.011.094.026.188.037.278.049.176.139.334.27.465.072.057.143.109.214.165.162.094.338.143.53.143zM112.119 101.809c1.46 0 1.46-2.267 0-2.267s-1.46 2.267 0 2.267zM116.218 94.749c-.008 0-.015-.004-.023-.004-.049-.011-.083-.011-.143-.019a.798.798 0 00-.409.019 7.836 7.836 0 00-.259.113c-.041.026-.067.052-.112.086a.531.531 0 00-.195.195.814.814 0 00-.196.368c-.011.097-.026.191-.037.289.011.098.026.191.037.289.038.086.072.173.109.259.057.071.113.146.169.218.098.105.214.18.349.225a.55.55 0 00.274.075.54.54 0 00.289 0 .545.545 0 00.274-.075.822.822 0 00.349-.225l.169-.218c.038-.086.071-.173.109-.259.011-.098.026-.191.038-.289-.012-.098-.027-.192-.038-.289a.802.802 0 00-.195-.368.547.547 0 00-.195-.195.77.77 0 00-.364-.195zM120.38 89.967a.36.36 0 01-.053-.049 1.011 1.011 0 00-.442-.259.773.773 0 00-.402-.018.75.75 0 00-.375.12c-.15.09-.271.21-.361.36-.011.019-.018.038-.03.056-.033.083-.071.17-.105.252-.011.094-.026.187-.037.281.011.094.026.188.037.282.034.082.072.169.105.251.057.072.109.143.165.214l.214.165c.083.034.169.072.252.105a.814.814 0 00.424.02.552.552 0 00.266-.072.534.534 0 00.233-.135.552.552 0 00.192-.192.534.534 0 00.135-.232.514.514 0 00.071-.267.518.518 0 000-.281.555.555 0 00-.071-.267.78.78 0 00-.218-.334zM124.61 84.24a.662.662 0 00-.038-.076c-.056-.07-.108-.142-.165-.213a.77.77 0 00-.341-.218.519.519 0 00-.267-.072.815.815 0 00-.424.02c-.086.033-.169.07-.255.104-.071.057-.143.11-.214.166a.781.781 0 00-.218.341.781.781 0 00-.09.41c-.004.03-.004.055-.007.085a1.076 1.076 0 00.536.939c.087.037.173.071.259.109.192.052.383.052.578 0a.794.794 0 00.368-.195.803.803 0 00.278-.305c.098-.168.146-.352.146-.547 0-.2-.048-.38-.146-.548zM128.603 78.242c-.007-.042-.011-.083-.022-.124l-.101-.244-.158-.207-.206-.157a.767.767 0 00-.38-.12.548.548 0 00-.27 0 .509.509 0 00-.255.067.493.493 0 00-.225.132.77.77 0 00-.263.285c-.022.037-.037.075-.056.113a1.062 1.062 0 00-.147.532 1.076 1.076 0 00.526.912.74.74 0 00.394.124c.143.03.281.027.424-.018a1.064 1.064 0 00.743-.744 1.098 1.098 0 00-.004-.551zM130.957 72.95a.753.753 0 00.375-.083.688.688 0 00.312-.203.743.743 0 00.202-.311c.06-.117.09-.24.083-.376l-.034-.259a.919.919 0 00-.251-.428 1.023 1.023 0 00-.687-.285.754.754 0 00-.375.083.677.677 0 00-.312.203.755.755 0 00-.203.311.712.712 0 00-.082.375l.034.26a.919.919 0 00.251.427.998.998 0 00.687.285zM133.426 67.398c1.277 0 1.28-1.985 0-1.985-1.279 0-1.279 1.985 0 1.985z" fill="#fff"/><path d="M101.527 127.091c5.762-.075 7.124-6.377 7.526-10.948h-1.734c.525 4.102 2.068 9.98 7.424 9.387l-.259-1.903c-2.237.341-3.705 2.094-4.403 4.155-.957 2.819-1.096 6.058-1.543 8.989h1.821c-.638-2.935-.856-6.118-2.774-8.584-1.516-1.948-3.817-3.149-6.279-2.526-1.029.259-.59 1.798.435 1.58 5.063-1.069 6.917 6.039 6.764 9.778-.045 1.039 1.685 1.313 1.854.251.349-2.211.664-4.425 1.043-6.628.379-2.2 1.025-4.756 3.592-5.146 1.066-.161.83-2.023-.259-1.903-4.275.473-5.255-4.489-5.72-7.683-.15-1.021-1.64-.683-1.704.229-.259 3.738-.935 9.428-5.791 9.676-.807.041-.819 1.287.007 1.276zM80.539 134.568c3.314-.417 4.263-3.491 4.395-6.426-.514.071-1.029.139-1.543.21.255 1.517.267 3.498 1.524 4.591 1.058.919 2.586.927 3.903.855-.075-.563-.153-1.126-.229-1.689-1.385.563-2.747 1.205-3.378 2.654-.825 1.903-.018 4.035-.754 5.96l1.674.225c-.154-1.794-.311-3.937-1.197-5.536-.86-1.554-2.391-1.561-3.96-1.914-.597-.135-1.062.77-.44 1.044 1.273.559 2.827.566 3.311 2.109.432 1.377.53 2.867.586 4.301.037.999 1.336 1.107 1.674.225.446-1.163.42-2.289.416-3.516-.007-2.005.623-3.119 2.534-3.889.818-.33.83-1.768-.23-1.689-1.23.09-2.668.255-3.313-1.156-.402-.874-.428-2.053-.6-2.988-.166-.897-1.52-.645-1.543.211-.064 2.173-.545 4.642-2.984 5.22-.665.151-.545 1.288.154 1.198zM47.768 25.639c4.335-.488 5.56-4.77 5.702-8.531-.514.071-1.029.139-1.543.21.35 2.027.35 4.718 2.064 6.148 1.393 1.16 3.345 1.14 5.056 1.036-.075-.563-.154-1.126-.229-1.69-2.064.838-4.027 1.847-4.665 4.148-.676 2.429.218 4.992-.755 7.368l1.674.225c-.18-2.387-.39-5.273-1.542-7.416-1.138-2.11-3.18-1.967-5.232-2.538-.605-.169-1.047.777-.44 1.044 1.82.796 3.851.548 4.617 2.822.65 1.933.815 4.061.893 6.088.042 1.014 1.322 1.089 1.674.225.66-1.614.56-3.272.548-4.98-.007-.931-.015-1.884.35-2.755.6-1.438 1.974-2.027 3.332-2.571.819-.33.826-1.768-.229-1.69-1.44.11-3.152.286-4.218-.866-1.093-1.183-1.111-3.495-1.39-5.015-.164-.897-1.52-.649-1.542.21-.082 3.007-.833 6.659-4.294 7.327-.66.128-.517 1.28.17 1.201zM137.773 46.534c7.086-.015 8.779-7.909 9.263-13.478H144.9c.635 4.988 2.545 12.36 9.136 11.556l-.315-2.342c-2.8.379-4.624 2.695-5.458 5.247-1.126 3.45-1.313 7.353-1.858 10.93h2.241c-.732-3.596-1.069-7.477-3.366-10.506-1.836-2.417-4.748-3.97-7.774-3.168-1.257.334-.728 2.23.537 1.945 6.272-1.408 8.479 7.499 8.321 12.036-.045 1.28 2.076 1.622 2.282.308.439-2.796.841-5.6 1.325-8.388.458-2.632 1.321-5.69 4.384-6.107 1.317-.18 1.017-2.504-.315-2.342-5.244.638-6.475-5.57-7.041-9.455-.184-1.253-2.02-.84-2.099.285-.315 4.55-1.159 11.673-7.127 11.91-1.002.041-1.014 1.572 0 1.569z" fill="#29A49D"/></g><defs><clipPath id="clip0_12319_29564"><path fill="#fff" transform="translate(0 4.155)" d="M0 0h160v151.69H0z"/></clipPath></defs></svg>