<svg width="160" height="160" viewBox="0 0 160 160" fill="none" xmlns="http://www.w3.org/2000/svg"><g clip-path="url(#clip0_12319_16850)"><g clip-path="url(#clip1_12319_16850)"><path d="M74.326.698C38.986 2.241 9.349 29.964 1.886 66.082c-3.018 14.609-2.63 30.24 2.758 44.263 23.917 62.272 121.747 56.42 146.995-1.328 19.521-44.652-10.873-94.854-56.408-106.18C88.131 1.072 81.124.4 74.326.698z" fill="#FEEBEB"/><path d="M141.755 145.614c.43.687.86 1.419.901 2.226.045.943-.445 1.826-.966 2.615a24.204 24.204 0 01-9.753 8.459c-.607.286-1.279.554-1.935.411-.694-.155-1.207-.732-1.645-1.291-2.086-2.652-3.792-5.644-5.995-8.168 6.014-1.079 10.055-7.783 13.956-12.156a109.77 109.77 0 015.437 7.904z" fill="#8F1202"/><path d="M3.083 105.795c11.59-3.663 23.339-7.95 34.465-12.847 4.72-2.078 9.477-4.323 13.258-7.836 3.803-3.535 10.243-13.718 15.427-13.978l31.311 17.023 1.264 48.455c6.252-3.143 21.166-11.47 27.549-8.606 2.77 1.245 4.935 3.486 6.89 5.829.554.664 1.09 1.336 1.618 1.996.494.619.977 1.245 1.457 1.875-3.902 4.373-7.942 11.077-13.956 12.156a19.647 19.647 0 00-2.204-2.18c-1.513-1.261-4.674-1.566-8.153-.302-4.048 1.467-5.206 2.075-10.028 3.377-37.265 11.175-82.17-.917-97.34-40.412a66.136 66.136 0 01-.766-2.109c-.219-.63-.317-.905-.574-1.728l-.218-.713z" fill="#F93F25"/><path d="M110.006 23.132c3.999-2.811 8.738-4.34 13.394-5.83 1.079 9.433-3.475 19.295-11.349 24.596 4.531 5.263 5.414 12.73 5.187 19.668-.222 6.938-1.343 13.96-.015 20.773.819 4.215 2.551 8.199 3.596 12.364 1.045 4.165 1.347 8.761-.6 12.59-2.132 4.192-6.538 6.697-10.896 8.466-4.629 1.879-9.889 3.192-14.563 1.43-5.354-2.018-8.52-7.515-10.557-12.861-2.037-5.347-3.475-11.115-7.157-15.492-2.35-2.796-5.463-4.833-8.165-7.293-4.557-4.154-11.5-13.039-12.733-20.362-10.232 4.52-23.052.513-27.018-9.945 8.018-3.97 22.23-3.422 29.89 1.2 3.5-7.41 17.894-11.942 19.43-12.534 7.198-2.762 10.492-3.343 18.207-3.946 5.437-.427 4.898-.178 6.758-4.788 1.324-3.279 3.716-6.014 6.591-8.036z" fill="#F93F25"/><path d="M110.508 66.354c-1.268 1.663-3.045 2.988-5.132 3.376-2.207.412-3.64-.513-5.372-1.697-.31-.212-.755.14-.638.49.725 2.162 3.694 2.747 5.694 2.52 2.629-.294 4.931-1.97 6.161-4.274.26-.48-.396-.827-.713-.415zM88.233 72.771c-.706 1.966-1.438 3.796-3.6 4.46-1.679.517-3.614.528-5.304.094-.815-.207-1.098.947-.34 1.234 2.083.796 4.61.732 6.629-.26 2.15-1.057 2.905-3.106 3.55-5.275.174-.6-.728-.83-.936-.253zM28.04 65.569c-7.006-14.647-1.283-40.385 18.525-40.49 8.553-.046 14.443 6.319 20.31 11.673 1.822 1.663 5.202 4.882 5.153 7.35C71.87 52.008 59 59.57 52.002 59.735c-.868.019-3.385-1.57-4.041-2.136-.8-.69-1.588-1.444-2.584-1.795-.997-.351-2.28-.163-2.834.735-.441.71-.306 1.623-.113 2.438 1.637 6.927 3.776 13.808 7.244 20.06.732 1.317 11.04 14.254 10.726 14.677-.098.135-.204.267-.31.4-.697.863-8.91-3.838-9.85-4.407-3.388-2.038-6.512-4.49-9.38-7.207-4.927-4.663-9.726-10.47-12.82-16.932zM133.45 20.917c-6.221-15.001-29.198-27.93-42.505-13.258-5.746 6.335-4.942 14.967-4.878 22.913.019 2.467-.072 6.323 1.796 7.934 5.991 5.165 20.215.634 25.01-4.463.592-.63 1.324-2.758 1.343-3.622.023-1.057-.015-2.147.389-3.12.404-.974 1.4-1.804 2.441-1.619.822.147 1.415.857 1.89 1.543 4.064 5.844 7.753 12.036 10.093 18.79.494 1.421 3.237 17.735 3.761 17.784.166.016.336.027.502.038 1.105.057 3.094-9.194 3.301-10.273.747-3.883 1.008-7.848.902-11.794-.181-6.788-1.298-14.236-4.045-20.853z" fill="#8F1202"/><path d="M63.77 40.098c-.438 4.275-2.804 7.12-5.992 9.75-.585.482.162 1.226.747.969 4.01-1.758 6.218-6.523 6.225-10.715.004-.649-.917-.623-.98-.004zM55.1 33.71c-.295 3.777-1.491 7.113-2.559 10.7-.17.567.638.884.94.397 2.007-3.249 2.614-7.335 2.69-11.096.015-.698-1.019-.68-1.072 0zM43.29 30.934c.883 2.358 1.55 4.78 1.92 7.274.4 2.675.174 5.339.415 8.014.06.671 1.09.924 1.257.17 1.105-5.045-.6-11.112-2.536-15.749-.264-.633-1.305-.38-1.056.29zM33.424 36.291a20.945 20.945 0 013.471 4.441c.883 1.513 1.362 3.192 2.196 4.716.26.475 1.113.287 1.064-.287-.317-3.724-3.309-7.247-6.056-9.545-.464-.396-1.124.234-.675.675zM28.138 46.84c3.188.634 5.976 1.985 8.659 3.792.69.464 1.55-.622.898-1.166-2.649-2.196-5.81-3.437-9.206-3.901-.819-.113-1.204 1.105-.35 1.275zM30.22 62.222c2.434-1.113 4.619-.856 7.18-.607.608.06.748-.804.295-1.083-2.441-1.524-5.803-.837-8.07.668-.65.426-.09 1.336.596 1.022zM35.216 72.484c1.264-1.324 2.928-2.135 4.667-2.652.792-.234.687-1.596-.204-1.501-2.335.241-4.135 1.475-5.52 3.339-.46.618.536 1.358 1.057.814zM40.747 78.57c.547-.803 1.29-1.467 2.053-2.06.513-.4-.046-1.347-.646-1.105-1.237.498-2.07 1.448-2.512 2.701-.238.68.74 1.004 1.105.464zM46.576 84.407c.687-.66 1.377-1.302 1.94-2.075.226-.313.083-.8-.204-1.015-.325-.242-.732-.204-1.034.06-.66.589-1.188 1.306-1.736 1.996-.245.31-.301.732 0 1.034a.74.74 0 001.034 0zM89.704 31.285c4.21 2.173 10.579 2.048 14.812.007.642-.31.177-1.252-.468-1.105-2.331.536-4.553 1.143-6.968 1.18-2.422.042-4.667-.509-7.033-.897-.46-.076-.826.562-.343.815zM91.073 18.363c4.015 3.55 9.15 6.444 14.685 5.663.626-.087.471-1.117-.148-1.098-5.316.162-9.76-2.31-14.023-5.23-.397-.267-.872.348-.514.665zM103.339 8.251c.706 4.011 2.535 8.55 5.652 11.312.373.332 1.053-.106.736-.566-1.136-1.645-2.415-3.14-3.373-4.905-1.03-1.898-1.789-3.943-2.351-6.022-.121-.43-.739-.245-.664.181zM116.457 8.014c-1.965 2.505-4.033 6.934-2.603 10.122.166.37.77.26.857-.113.354-1.524.12-3.101.505-4.652.419-1.683 1.162-3.24 2.139-4.667.359-.528-.498-1.203-.898-.69zM128.059 21.075c-2.773.506-5.659 2.29-6.425 5.15-.113.423.471.83.781.457 1.671-2.019 3.32-3.822 5.934-4.55.687-.193.393-1.181-.29-1.057zM132.832 31.077c-1.796-.256-3.668-.226-5.29.676-.589.328-.173 1.166.441 1.041 1.578-.313 3.072-.675 4.698-.573.641.041.807-1.05.151-1.144zM134.326 40.45c-1.159-.269-2.366-.495-3.551-.303-.513.083-.513.951 0 1.034 1.079.174 2.174.159 3.253.347.698.12 1.011-.913.298-1.079zM134.541 50.323a11.182 11.182 0 00-2.241-.276c-.695-.022-.872 1.098-.166 1.234.747.143 1.486.238 2.245.23.667-.004.841-1.03.162-1.188z" fill="#F93F25"/><path d="M104.343 103.399c.415 1.264.901 2.483 1.241 3.777.339 1.298.456 2.607.69 3.92.117.653 1.083.457 1.11-.151.124-2.626-.766-5.712-2.272-7.87-.256-.37-.928-.162-.769.324z" fill="#8F1202"/><path d="M56.148 61.177c-10.232 4.52-23.052.513-27.018-9.945 8.018-3.97 22.23-3.422 29.89 1.2l5.443 4.761-8.315 3.984zM112.051 41.898c7.877-5.301 12.427-15.163 11.348-24.596-4.655 1.49-9.394 3.019-13.393 5.83-2.875 2.018-5.267 4.757-6.588 8.032l-3.482 10.338 12.115.396z" fill="#F93F25"/><path d="M123.403 17.302c.057.483.091.966.117 1.453a35.981 35.981 0 00-5.636 4.24l5.519-5.693z" fill="#F93F25"/><path d="M115.216 25.746l2.667-2.75a36.035 36.035 0 015.637-4.241c.483 8.98-3.995 18.114-11.469 23.143l-3.211-.106c-.023-6.014 2.494-11.53 6.376-16.046zM59.438 59.6l-3.29 1.577c-8.874 3.92-19.687 1.423-24.992-6.13C40.434 51.7 51.681 53.51 59.439 59.6z" fill="#fff"/><path d="M84.373 41.97c-2.264-.193-4.607.332-6.339 1.867-.358.317.102.875.502.65 1.856-1.042 3.671-1.77 5.837-1.748.498.004.483-.728 0-.77zM89.293 43.4c-3.215.667-6.335 1.64-9.38 2.863-2.64 1.06-5.497 2.2-7.742 3.977-.332.264.027.879.423.724 2.818-1.11 5.433-2.731 8.247-3.882 2.826-1.151 5.739-2.064 8.682-2.868.528-.143.302-.928-.23-.815zM60.562 62.385C62 67.572 65.26 73.439 69.715 76.65c.415.302.842-.332.525-.68-1.883-2.086-3.89-3.893-5.471-6.259-1.547-2.316-2.777-4.852-3.788-7.44-.098-.256-.494-.162-.419.114zM63.505 60.977c.596 1.875 1.366 3.694 2.434 5.354.313.487 1.082.05.78-.457-.973-1.637-1.852-3.297-2.512-5.09-.159-.433-.845-.26-.702.193zM88.466 57.186c1.728 3.184 2.955 6.52 4.09 9.949.189.566 1.023.34.894-.246-.807-3.603-2.377-6.964-4.267-10.118-.275-.46-.97-.057-.717.415zM115.122 104.196c-.721 2.01-1.675 3.961-3.305 5.399-.947.833-2.113 1.66-3.411 1.411-.577-.11-.841-.332-1.475-.163-2.068.551-3.124 2.766-5.603 2.287-2.335-.453-4.293-2.709-5.991-4.249-.57-.516-1.381.283-.845.846 1.554 1.641 3.852 3.746 6.07 4.395 1.019.298 2.049.211 3.037-.143 1.302-.464 2.336-1.804 3.664-1.985.92-.124 1.596.34 2.562.049.95-.283 1.818-.856 2.561-1.498 1.83-1.581 3.007-3.791 3.554-6.127.121-.532-.633-.732-.818-.222z" fill="#8F1202"/><path d="M104.248 98.43a19.268 19.268 0 01-4.682 1.151c-.898.102-3.305.181-3.539 1.362-.173.876 1.087 1.89 1.687 2.279 1.671 1.079 4.161 1.649 6.142 1.366 3.018-.434 5.697-2.694 6.636-5.595.261-.8.344-1.804-.283-2.37-.422-.38-1.063-.434-1.614-.286-.551.147-1.042.46-1.532.747-.902.524-1.845.973-2.815 1.346z" fill="#FEEBEB"/><path d="M136.623 152.692c-.241-2.264-1.411-4.576-3.422-5.757-.366-.215-.777.294-.46.596 1.6 1.513 2.796 3.056 3.354 5.233.072.286.562.237.528-.072z" fill="#fff"/><path d="M61.966 75.507c2.403 3.739 5.946 6.293 9.447 8.915 4.195 3.143 7.383 6.625 9.643 11.398 2.072 4.372 3.464 9.051 5.765 13.318 1.038 1.924 2.257 3.769 3.732 5.388 1.29 1.411 3.12 3.316 5.116 3.49.671.06.826-.77.49-1.189-.702-.883-1.784-1.351-2.652-2.064a18.274 18.274 0 01-2.403-2.399c-1.438-1.713-2.589-3.664-3.588-5.66-2.143-4.267-3.479-8.88-5.656-13.133-2.056-4.018-4.9-7.134-8.447-9.889-3.543-2.754-7.437-5.248-9.965-9.047-.603-.913-2.086-.068-1.482.872z" fill="#8F1202"/><path d="M85.063 118.585c2.143 3.23 3.045 7.95 3.573 11.07 1.362 7.991.672 16.193-.603 24.146-10.889 1.532-22.026 1.166-32.564-1.184.664.147 4.418-7.203 4.867-8.022 1.57-2.844 3.03-5.749 4.444-8.673 2.041-4.222 3.97-8.497 5.988-12.726 1.773-3.72 3.328-8.052 8.176-8.157 2.75-.061 4.704 1.418 6.12 3.546z" fill="#FEEBEB"/><path d="M46.746 93.024c-5.157 2.913-10.145 5.973-15.552 8.436-5.535 2.521-11.284 4.286-16.94 6.471-1.064.411-.671 1.988.48 1.731 5.768-1.275 11.442-3.814 16.743-6.376 5.448-2.629 11.043-5.565 15.858-9.255.573-.445.083-1.388-.589-1.007zM46.765 98.77c-1.91 1.336-3.98 2.411-5.916 3.705-.4.268-.162.966.34.811 2.361-.739 4.308-2.139 6.187-3.72.438-.37-.14-1.124-.611-.796zM37.427 104.905c-3.8 1.928-7.75 3.407-11.753 4.84-.724.261-.441 1.381.325 1.17 4.195-1.139 8.187-2.973 11.99-5.052.63-.339.072-1.279-.562-.958zM33.967 111.907c-2.89 1.63-5.84 3.151-8.855 4.539-2.961 1.362-6.281 2.373-9.07 4.048-.517.31-.17 1.068.4.947 3.079-.652 6.177-2.399 8.953-3.84a120.743 120.743 0 008.908-5.128c.35-.222.034-.777-.336-.566zM98.28 136.623c-2.196 2.66-3.943 6.063-3.996 9.583-.011.668 1.06.846 1.192.163.66-3.369 1.494-6.335 3.596-9.131.347-.456-.426-1.056-.792-.615z" fill="#8F1202"/><path d="M21.649 73.016c-6.754 1.317-8.844-6.923-9.534-11.865-.502.14-1.008.275-1.51.415 1.087 4.508 2.419 13.167-4.297 14.05l.215 1.6c6.705-1.162 8.674 7.723 10.504 12.261.302.751 1.705.77 1.577-.215-.396-3.033-.788-6.066-1.2-9.096-.249-1.845-.271-3.426 1.46-4.535 1.004-.645 2.181-.943 3.264-1.426.732-.328.15-1.264-.498-1.177-2.275.31-5.177 1.663-5.837 4.07-.479 1.74.083 3.766.313 5.505.295 2.223.593 4.44.89 6.663l1.578-.215c-2.287-5.606-4.57-14.544-12.488-13.405-.898.128-.698 1.694.215 1.6 2.927-.298 5.138-2.313 6.236-4.995 1.46-3.577.483-7.516-.426-11.097-.257-1.003-1.645-.55-1.51.415.487 3.475 1.144 7.203 3.513 9.95 1.989 2.301 4.901 3.572 7.916 2.89.91-.208.52-1.566-.381-1.393zM140.155 102.539c-2.441-.211-3.207-2.66-3.569-4.697-.159-.88-1.476-.626-1.506.204-.03.879.14 2.267-.192 3.078-.51 1.245-1.789 1.294-2.864 1.374-.898.068-1.192 1.411-.222 1.648 1.165.283 2.29.581 2.795 1.811.253.619.287 1.34.378 1.992.15 1.083.343 2.072.886 3.03.385.672 1.641.43 1.547-.419-.132-1.207-.226-2.429-.124-3.644.12-1.415.177-1.604 1.731-2.596.355-.226.793-.34 1.159-.574.509-.32.184-1.256-.431-1.018-1.448.558-2.923.769-3.584 2.343-.675 1.615-.517 3.788-.415 5.486l1.547-.419c-.909-1.596-.524-3.528-1.32-5.165-.74-1.521-2.181-2.06-3.732-2.445l-.222 1.649c1.282-.121 2.761-.295 3.69-1.302 1.143-1.241.867-3.286.901-4.83l-1.505.204c.524 2.706 1.886 5.554 5.048 5.486.781-.019.762-1.128.004-1.196zM71.247 14.243c-2.996-.193-4.018-3.222-4.46-5.728-.147-.837-1.403-.596-1.43.193-.041 1.15.102 2.528-.275 3.622-.558 1.61-2.015 1.803-3.577 1.916-.852.064-1.135 1.343-.21 1.566 2.663.645 3.557 1.811 3.908 4.41.185 1.37.373 2.66 1.079 3.872.37.633 1.558.41 1.471-.4-.17-1.577-.268-3.185-.098-4.765.159-1.487.389-1.993 1.864-2.75.562-.288 1.136-.427 1.686-.767.597-.37.076-1.173-.535-.913-1.592.68-3.271.845-4.022 2.611-.823 1.936-.615 4.546-.476 6.584.49-.132.981-.264 1.472-.4-1.075-1.849-.66-4.067-1.494-5.995-.823-1.898-2.543-2.566-4.433-3.03-.072.52-.14 1.045-.212 1.566 1.54-.14 3.324-.344 4.38-1.615 1.223-1.468.891-3.754.929-5.52l-1.43.193c.592 3.139 2.177 6.557 5.867 6.474.732-.004.72-1.08-.004-1.124zM159.129 77.797c-7.082.81-9.327-7.23-10.508-12.59-.238-1.072-1.898-.82-1.894.256.019 4.41-.415 11.968-6.463 12.05v2.155c3.483-.06 5.082 3.313 6.025 6.146 1.034 3.109 1.959 6.255 2.932 9.383.411 1.32 2.226.75 2.026-.558-.819-5.328.287-15.914 7.885-15.224 1.181.11 1.14-1.683 0-1.822-3.422-.419-6.421 1.947-7.998 4.844-2.049 3.773-1.853 8.33-1.951 12.477.687-.094 1.374-.185 2.064-.28-1.207-3.927-2.124-8.14-3.833-11.887-1.325-2.898-3.796-5.297-7.15-5.24-1.385.022-1.388 2.172 0 2.153 2.86-.037 5.248-1.697 6.693-4.116 1.796-3.01 1.762-6.697 1.698-10.085-.63.087-1.264.17-1.894.257 1.456 6.18 4.633 14.612 12.556 13.469.785-.11.608-1.479-.188-1.388z" fill="#F93F25"/></g></g><defs><clipPath id="clip0_12319_16850"><path fill="#fff" d="M0 0h160v160H0z"/></clipPath><clipPath id="clip1_12319_16850"><path fill="#fff" transform="translate(0 .63)" d="M0 0h160v158.74H0z"/></clipPath></defs></svg>