<svg width="160" height="160" viewBox="0 0 160 160" fill="none" xmlns="http://www.w3.org/2000/svg"><g clip-path="url(#clip0_12321_7081)"><g clip-path="url(#clip1_12321_7081)"><path d="M18.058 35.771C31.486 22.922 50.903 14.102 66.68 11.542c46.709-7.571 94.961 24.67 93.275 74.181-1.271 37.392-27.951 66.075-64.804 72.107-29.708 4.862-61.299-3.737-80.796-27.682C-.583 111.802-3.57 78.421 4.033 56.491c2.653-7.65 7.668-14.64 14.025-20.72z" fill="#EBF2FE"/><path d="M114.843 68.988c2.178-.822 4.077-2.164 5.841-3.55 5.737-4.515 10.524-9.807 14-15.469l-3.177-2.227c-3.752 1.603-8.207 7.706-9.055 9.34-4.978.676-9.138 4.091-10.525 8.08l2.916 3.826zM123.823 77.322c2.788-.052 5.468-.803 8.017-1.663 8.281-2.792 15.812-6.847 22.005-11.843l-2.691-3.79c-3.894.18-13.256 5.023-13.966 6.907-5.89-1.234-11.956.953-15.118 4.895l1.753 5.494zM113.37 90.343c2.433 1.797 5.232 2.926 7.987 3.872 8.965 3.075 18.114 4.574 26.74 4.376l.19-5.034c-4.395-2.964-14.407-3.51-16.567-3.3-4.245-4.956-10.902-7.09-16.227-5.79l-2.123 5.876zM106.056 98.262c1.002 2.538 2.605 4.743 4.265 6.783 5.392 6.645 11.682 12.169 18.383 16.141l2.556-3.763c-1.947-4.369-9.959-10.322-11.107-10.453-.882-5.827-4.959-10.64-9.657-12.195l-4.44 3.487z" fill="#000E42"/><path d="M134.545 121.598c2.83-1.032 5.378-2.968 6.87-5.584-2.063-.456-4.138-.916-6.249-.994-2.205-.082-8.502.65-8.42 3.894.086 3.487 5.651 3.468 7.799 2.684zM153.942 95.863c2.437-2.46 4.141-5.718 4.41-9.172-2.37.535-4.754 1.073-6.989 2.026-2.336.994-8.525 4.84-6.854 8.173 1.801 3.588 7.579.845 9.433-1.027zM157.481 57.122c.172-3.46-.736-7.022-2.844-9.773-1.409 1.98-2.822 3.973-3.849 6.174-1.073 2.298-3.113 9.298.358 10.663 3.734 1.468 6.204-4.433 6.335-7.064zM135.412 43.044c-1.083-2.971-3.113-5.647-5.863-7.21-.482 2.165-.964 4.347-1.043 6.563-.086 2.318.684 8.929 4.089 8.843 3.658-.097 3.64-5.939 2.817-8.196zM51.388 86.4c-2.314.273-4.616-.045-6.817-.467-7.168-1.372-13.858-3.872-19.542-7.303l1.797-3.438c4.07-.3 10.83 3.076 12.337 4.133 4.731-1.69 9.997-.568 13.058 2.34l-.833 4.735zM47.512 99.716c-2.5 1.233-5.225 1.798-7.882 2.205-8.64 1.327-17.191 1.188-24.987-.404l.65-4.6c3.543-1.633 14.082-1.633 15.577-.284 4.664-3.805 11.055-4.65 15.678-2.598l.964 5.68zM62.704 107.381c-1.084 2.822-2.837 5.281-4.653 7.561-5.901 7.414-12.811 13.6-20.193 18.069l-2.87-4.141c2.112-4.862 10.26-10.707 12.195-11.694.912-6.461 5.378-11.839 10.569-13.607l4.952 3.812zM72.914 110.147c.277 2.717-.134 5.407-.669 7.986-1.734 8.379-4.784 16.175-8.906 22.782l-3.999-2.167c-.28-4.776 4.1-13.746 5.06-14.389-1.894-5.579-.489-11.731 2.972-15.27l5.542 1.058zM36.76 33.32c-2.807 7.328-2.123 25.652 2.06 32.29 2.197 3.49 7.72 8.263 15.322 10.21l1.756-3.016c-3.113-6.981-6.207-9.246-13.304-12.083 1.02-10.322-.139-19.415-2.056-26.725l-3.778-.676zM97.475 16.14c6.511 4.383 16.482 19.77 16.878 27.606.206 4.119-1.57 11.201-6.667 17.162l-3.173-1.458c-1.465-7.5-.236-11.133 3.943-17.531-6.769-7.86-11.048-15.966-13.679-23.048l2.698-2.732z" fill="#000E42"/><path d="M41.33 24.238c-.908.516-1.82 1.035-2.638 1.723-1.637 1.375-2.822 3.438-3.15 5.404-.404 2.41 1.289 4.1 3.542 4.07 7.4-.101 11.451-17.565 8.41-17.124-1.1.16-1.619 2.029-2.273 2.911-1.058 1.413-2.474 2.209-3.89 3.016z" fill="#000E42"/><path d="M42.246 23.038c.389 1.163.777 2.328.96 3.573.363 2.482-.198 5.225-1.416 7.21-1.495 2.436-4.25 2.604-6.17.821-6.309-5.852 4.346-25.723 6.17-22.625.557.95-.463 1.51-.41 2.141.059.718 1.02.643 1.109 1.667.079.882-.84 1.148-.882 1.656-.041.516 1.454.572 1.443 1.868-.012 1.47-1.26 2.329-.804 3.69zM88.514 11.337c1.042-.101 2.085-.198 3.15-.105 2.127.183 4.287 1.193 5.684 2.613 1.716 1.741 1.301 4.096-.56 5.366-6.114 4.171-19.468-7.792-16.72-9.178.99-.501 2.488.732 3.531 1.072 1.678.546 3.293.385 4.915.232z" fill="#000E42"/><path d="M87.075 10.88c.347 1.178.702 2.355 1.267 3.477 1.132 2.238 3.161 4.16 5.303 5.086 2.623 1.132 4.974-.314 5.52-2.874C100.962 8.153 80.822-1.983 81.11 1.605c.09 1.095 1.248.968 1.566 1.517.362.62-.467 1.11.049 2.004.444.766 1.349.455 1.674.844.332.396-.864 1.304-.109 2.358.86 1.193 2.377 1.178 2.785 2.553zM58.335 143.965c-2.99.385-6.14-.164-8.667-1.805 1.622-1.353 3.255-2.717 5.094-3.756 1.921-1.088 7.852-3.33 9.269-.411 1.524 3.139-3.424 5.681-5.696 5.972zM31.472 133.856c-3.379-.763-6.567-2.594-8.652-5.363 2.283-.826 4.585-1.652 6.981-2.052 2.504-.415 9.792-.505 10.173 3.207.415 3.991-5.931 4.787-8.502 4.208zM8.334 97.246c-1.741-2.994-2.575-6.574-1.966-9.986 2.16 1.11 4.332 2.23 6.256 3.714 2.011 1.551 7.038 6.825 4.582 9.631-2.642 3.02-7.549-1.084-8.872-3.36zM21.198 72.811c-.404-3.135.172-6.447 1.895-9.1 1.42 1.7 2.851 3.416 3.942 5.348 1.14 2.018 3.495 8.244.434 9.732-3.296 1.6-5.965-3.595-6.271-5.98z" fill="#000E42"/><path d="M71.408 49.17a37.144 37.144 0 00-4.754 2.014c-7.362 3.752-10.644 11.103-14.332 18.133-3.106 5.92-6.447 9.926-7.542 16.522-.748 4.493.138 9.874 1.67 14.116.849 2.347 1.708 4.077 4.044 4.907 4.57 1.626 9.38 1.7 13.772 3.715a57.344 57.344 0 016.566 3.576c6.029 3.79 10.958 1.525 17.465.404 6.376-1.099 13.297-1.652 19.168-4.571 4.414-2.193 7.699-7.343 9.426-11.813.605-1.57 1.225-3.173 2.317-4.455 3.718-4.369 6.547-8.409 5.284-14.5-.844-4.07-1.809-8.518-4.062-12.083-2.291-3.63-7.209-6.07-10.584-8.656-3.349-2.567-7.299-3.98-11.096-5.733-8.603-3.972-18.35-4.668-27.342-1.577z" fill="#2870F6"/><path d="M106.419 102.265c1.745 0 1.749-2.71 0-2.71-1.746 0-1.749 2.71 0 2.71zM101.302 103.621c.957 0 .957-1.487 0-1.487-.956 0-.956 1.487 0 1.487zM96.668 103.431c-.082-.131-.164-.277-.276-.382-.22-.213-.479-.355-.796-.355-.318 0-.576.146-.796.355-.109.105-.195.251-.277.382-.232.373-.22.878 0 1.252.22.377.635.612 1.073.612a1.25 1.25 0 001.072-.612c.22-.374.232-.879 0-1.252zM99.139 99.79c.84 0 .84-1.308 0-1.308-.841.004-.841 1.308 0 1.308zM88.865 104.1a33.427 33.427 0 00-.097-.098.9.9 0 00-.385-.246.876.876 0 00-.46-.101c-.105.015-.213.03-.318.041a1.18 1.18 0 00-.527.306l-.097.098c-.07.089-.138.179-.21.269l-.134.317a.987.987 0 00-.022.531c0 .12.03.232.09.336.03.112.09.21.172.296.06.101.138.179.239.239.082.082.18.138.295.172.157.082.329.123.512.116.12-.015.236-.03.355-.049l.318-.135c.09-.071.18-.138.269-.209.07-.09.138-.179.21-.269l.134-.318a.983.983 0 00.022-.53.67.67 0 00-.09-.337.989.989 0 00-.276-.429zM90.483 100.773c1.346 0 1.346-2.089 0-2.089-1.345 0-1.349 2.089 0 2.089zM82.085 108.98l.041-.164a.945.945 0 00.023-.519.99.99 0 00-.153-.486c-.068-.09-.135-.176-.206-.266a1.353 1.353 0 00-.575-.336c-.06-.022-.116-.049-.176-.071-.13-.019-.265-.037-.396-.052-.131.018-.266.037-.396.052a1.106 1.106 0 00-.509.269.772.772 0 00-.269.269.72.72 0 00-.19.329.743.743 0 00-.101.378.713.713 0 000 .396c.007.198.067.385.175.557l.236.302.303.236c.12.048.239.101.358.149.131.019.266.038.397.053.13-.019.265-.038.396-.053.194-.045.362-.134.508-.269a.772.772 0 00.27-.269c.13-.142.22-.31.264-.505zM82.612 105.546c.905 0 .905-1.405 0-1.405-.904 0-.904 1.405 0 1.405zM78.285 101.76c.586 0 .59-.916 0-.916s-.59.916 0 .916zM84.186 98.513c.714 0 .717-1.11 0-1.11-.714 0-.714 1.11 0 1.11zM110.803 96.636l.097-.097a.504.504 0 000-.703 6.784 6.784 0 01-.097-.097l-.127-.1-.154-.064a.489.489 0 00-.254-.011.31.31 0 00-.161.045.33.33 0 00-.142.082.338.338 0 00-.115.116.298.298 0 00-.083.142.47.47 0 00-.056.246l.023.169.063.153c.034.04.068.086.101.127l.127.1.153.064c.086.026.169.03.255.011a.303.303 0 00.16-.044.525.525 0 00.21-.139zM101.104 93.318c.61 0 .61-.946 0-.946-.609-.004-.609.946 0 .946zM74.783 105.71a3.069 3.069 0 01-.067-.056c-.468-.403-1.054-.403-1.525 0a3.324 3.324 0 01-.068.056c-.796.684-.13 2 .826 2 .968 0 1.626-1.316.834-2zM69.431 104.982c.934 0 .938-1.454 0-1.454-.934 0-.938 1.454 0 1.454zM73.366 99.151c.778 0 .778-1.207 0-1.207-.777 0-.78 1.207 0 1.207zM109.566 89.61c.399 0 .399-.62 0-.62-.4 0-.4.62 0 .62zM92.056 91.793c.673 0 .673-1.047 0-1.047-.672 0-.672 1.047 0 1.047zM61.702 101.256c.049-.027.101-.053.15-.079.235-.123.235-.504 0-.628l-.15-.078a.468.468 0 00-.46 0 .457.457 0 000 .785.46.46 0 00.46 0zM79.66 90.94c.587 0 .59-.915 0-.915-.587 0-.587.916 0 .916zM115.665 88.627c.904 0 .904-1.405 0-1.405-.905 0-.908 1.405 0 1.405z" fill="#fff"/><path d="M48.64 118.111c.61.097 1.226.112 1.817.302.59.191 1.117.497 1.693.718.4.153.8-.385.564-.733-.807-1.169-2.74-1.749-4.073-1.252-.404.157-.535.879 0 .965zM38 127.63c.819.306 1.507.829 2.206 1.337.235.172.594.06.758-.153.19-.25.139-.538-.045-.773-.642-.815-1.61-1.305-2.59-1.611-.773-.239-1.065.927-.328 1.2zM61.815 137.253c.373.093.736.235 1.076.415.355.187.624.43 1.043.448.299.015.47-.287.418-.549-.19-.938-1.607-1.248-2.403-1.297-.564-.026-.676.848-.134.983zM65.369 124.744c1.166.31 2.623.684 3.83.467.636-.115.46-.923 0-1.117-1.069-.452-2.556-.385-3.696-.344-.557.023-.702.845-.134.994zM16.926 97.918c.325.826.127 1.476-.07 2.299-.12.493.511.919.885.515.822-.885.718-2.23.258-3.27-.266-.598-1.32-.164-1.073.456zM31.785 98.038c.408.792.512 1.738.154 2.571-.314.725.721 1.372 1.087.635.628-1.267.497-2.735-.467-3.8-.392-.427-1.02.115-.773.594zM28.291 76.268c-.187.295-.396.576-.609.856-.21.277-.512.508-.583.867-.071.377.213.62.572.572.396-.056.687-.437.923-.733a4.39 4.39 0 00.609-1.027c.277-.613-.542-1.129-.912-.535zM38.864 80.566c-.25.28-.377.658-.534.998-.15.329-.382.688-.352 1.058.03.358.4.493.67.276.287-.232.388-.65.522-.979.142-.351.325-.695.36-1.076.033-.333-.45-.52-.666-.277zM41.215 60.516c-.568.695-1.23 1.252-1.94 1.79-.56.426-.097 1.233.553.945.946-.418 1.712-1.2 2.272-2.051.344-.527-.478-1.185-.885-.684zM118.707 106.69c-.841.437-1.618 1.087-2.063 1.935-.325.617.519 1.368 1.013.782.508-.606 1.02-1.193 1.685-1.634.673-.444.086-1.457-.635-1.083zM128.525 116.347c-.583.814-.845 1.861-.811 2.859.026.725 1.046.702 1.11 0 .078-.871.325-1.649.654-2.456.243-.587-.636-.848-.953-.403zM37.847 35.584c.572.224 1.342.198 1.768-.288.217-.25.078-.669-.276-.669-.464-.003-.912.146-1.383.154-.486.011-.524.639-.109.803zM41.069 32.542c.788-2.306 1.898-5.434 1.345-7.893-.108-.486-.77-.415-.912 0-.41 1.188-.373 2.586-.564 3.827a39.255 39.255 0 01-.766 3.82c-.15.583.703.81.897.246zM95.487 17.406c-2.377-1.121-4.118-2.65-5.363-4.982-.332-.624-1.364-.198-1.147.486.848 2.706 3.255 5.02 6.077 5.528.579.1 1.054-.74.433-1.032zM109.375 43.003c.807.575 2.07.669 2.822-.056.343-.333-.094-.781-.475-.617-.669.288-1.297.411-1.951-.004-.433-.273-.8.389-.396.677zM130.483 50.488c.699.624 1.652.864 2.497.385.358-.201.19-.755-.206-.762-.59-.011-1.211-.056-1.745-.329-.434-.22-.946.348-.546.706zM122.556 58.561c.733.542 1.607.968 2.538.99.568.015.62-.77.127-.945-.751-.27-1.472-.493-2.145-.93-.565-.37-1.039.5-.52.885zM137.154 67.86c-.105.848.041 1.689.493 2.421.292.471 1.166.165.942-.396-.265-.658-.411-1.316-.34-2.026.071-.706-1.009-.687-1.095 0zM149.278 61.932c.403 1.088 1.252 1.97 2.433 2.15.721.107.971-.808.299-1.088a2.958 2.958 0 01-1.585-1.548c-.276-.65-1.394-.183-1.147.486zM130.913 90.799c-.695.665-.994 1.902-.923 2.829.037.482.721.616.867.116.112-.39.235-.789.392-1.163.161-.38.426-.702.587-1.076.254-.576-.407-1.2-.923-.706zM146.18 93.094c-.43 1.143.044 2.556.852 3.408.392.411.994-.112.755-.583-.456-.9-.568-1.712-.681-2.698-.056-.531-.732-.643-.926-.127z" fill="#2870F6"/><path d="M63.306 49.528c-.381-.13-.774-.254-1.181-.273-.497-.022-.99.116-1.44.325-1.576.737-2.63 2.392-2.828 4.123-.195 1.73.403 3.498 1.453 4.888.73.964 1.701 1.783 2.863 2.112 1.772.504 3.797-.28 4.874-1.776 2.818-3.92.16-8.06-3.741-9.399zM81.831 42.274c1.297-.392 2.725.288 3.6 1.323.874 1.031 1.307 2.358 1.707 3.651.337 1.095.67 2.213.64 3.36-.027 1.144-.468 2.336-1.402 3.001-.46.325-1.002.505-1.54.68-2.852.93-5.894-.347-6.047-3.677-.112-2.467.21-7.482 3.042-8.338z" fill="#fff"/><path d="M59.774 52.174c-.98 1.947.116 5.636 2.366 6.39 1.438.483 3.02-.235 3.991-1.4 1.913-2.295-1.248-5.562-3.46-6.092-1.5-.355-2.434.179-2.897 1.102zM86.466 48.982a3.326 3.326 0 00-.344-1.102c-.684-1.297-1.652-4.055-3.771-3.558-2.669.628-2.553 3.898-2.515 5.363.108 4.429 7.231 3.868 6.63-.703z" fill="#000E42"/><path d="M86.197 45.652c-.292-.35-.793-.545-1.335-.493-.19.019-.385.037-.56.12a1.1 1.1 0 00-.464.44c-1.098 1.877 1.734 3.155 2.512 1.208.205-.505.112-.953-.153-1.275zM66.187 52.697c-.041-.504-.37-1.001-.897-1.304-.187-.105-.377-.213-.587-.25a1.187 1.187 0 00-.702.104c-2.198.998-.445 3.977 1.51 2.706.508-.329.713-.796.676-1.256z" fill="#fff"/><path d="M72.466 63.341c3.21.415 6.581-1.285 8.353-3.935.463-.695-.531-1.353-1.103-.852-2.227 1.954-4.537 2.911-7.44 3.348-.898.139-.543 1.346.19 1.44zM73.404 55.911l-.067-.228a.474.474 0 00-.864-.116c-.041.068-.086.135-.127.202a.587.587 0 00.21.796.411.411 0 00.216.068c.18.026.355-.03.49-.161a.583.583 0 00.142-.56zM75.855 55.75c.804 0 .804-1.248 0-1.248-.803 0-.807 1.249 0 1.249z" fill="#000E42"/><path d="M117.346 37.557c3.271-.41 4.209-3.442 4.336-6.338-.509.067-1.017.138-1.525.206.254 1.498.261 3.45 1.506 4.53 1.046.907 2.553.911 3.853.844l-.224-1.667c-1.364.557-2.713 1.189-3.334 2.616-.815 1.876-.018 3.98-.744 5.883l1.652.224c-.153-1.772-.306-3.883-1.184-5.464-.849-1.532-2.359-1.54-3.91-1.891-.586-.13-1.046.762-.433 1.031 1.256.55 2.792.561 3.266 2.082.426 1.357.524 2.83.576 4.242.037.987 1.319 1.095 1.652.224.441-1.151.415-2.257.411-3.472-.008-1.977.613-3.076 2.5-3.838.807-.325.819-1.745-.224-1.667-1.245.09-2.586.243-3.27-1.14-.415-.837-.426-2.04-.595-2.948-.164-.886-1.498-.64-1.524.205-.064 2.145-.535 4.582-2.945 5.154-.647.15-.527 1.27.16 1.184zM15.297 46.699c5.688-.075 7.033-6.294 7.425-10.804h-1.711c.516 4.047 2.04 9.847 7.325 9.264-.086-.624-.168-1.252-.254-1.876-5.46.834-5.244 8.884-5.864 12.968h1.798c-.632-2.896-.845-6.035-2.736-8.468-1.495-1.921-3.767-3.106-6.196-2.493-1.013.258-.583 1.772.43 1.559 4.996-1.054 6.827 5.957 6.67 9.65-.04 1.027 1.663 1.296 1.828.246.344-2.18.658-4.37 1.031-6.544.374-2.172 1.013-4.694 3.547-5.08 1.054-.16.819-1.995-.254-1.875-4.22.467-5.184-4.429-5.643-7.583-.146-1.005-1.619-.673-1.682.228-.254 3.689-.923 9.306-5.714 9.549-.804.044-.815 1.27 0 1.259zM16.522 115.898c3.27-.411 4.209-3.442 4.336-6.338-.509.067-1.017.138-1.525.205.254 1.499.262 3.45 1.506 4.53 1.046.908 2.553.912 3.853.844l-.224-1.666c-1.364.556-2.713 1.188-3.334 2.616-.814 1.876-.018 3.98-.744 5.882l1.652.224c-.153-1.771-.306-3.883-1.184-5.463-.849-1.533-2.358-1.54-3.91-1.892-.586-.13-1.046.763-.433 1.032 1.256.549 2.792.561 3.266 2.082.426 1.356.524 2.829.576 4.241.037.987 1.32 1.095 1.652.225.44-1.151.415-2.258.41-3.472-.007-1.977.614-3.076 2.501-3.838.807-.326.819-1.746-.224-1.667-1.245.089-2.586.243-3.27-1.14-.415-.837-.426-2.041-.595-2.949-.164-.886-1.498-.639-1.524.206-.064 2.145-.535 4.582-2.945 5.153-.647.15-.527 1.271.16 1.185zM96.545 135.201c7-.034 8.659-7.785 9.141-13.297h-2.108c.628 4.922 2.512 12.195 9.018 11.402l-.314-2.309c-2.638.358-4.432 2.47-5.288 4.873-1.229 3.457-1.383 7.475-1.932 11.089h2.212c-.721-3.551-1.053-7.378-3.322-10.368-1.809-2.384-4.683-3.92-7.669-3.124-1.24.333-.717 2.198.53 1.917 6.19-1.386 8.369 7.404 8.215 11.877-.044 1.263 2.048 1.6 2.25.307.452-2.863.837-5.744 1.364-8.596.464-2.515 1.379-5.318 4.272-5.711 1.297-.175 1.005-2.47-.314-2.309-5.176.631-6.391-5.498-6.947-9.332-.18-1.237-1.992-.83-2.071.28-.31 4.511-1.14 11.5-7.033 11.75-.995.045-1.006 1.555-.004 1.551z" fill="#2870F6"/></g></g><defs><clipPath id="clip0_12321_7081"><path fill="#fff" d="M0 0h160v160H0z"/></clipPath><clipPath id="clip1_12321_7081"><path fill="#fff" transform="translate(0 .861)" d="M0 0h160v158.277H0z"/></clipPath></defs></svg>