<svg width="160" height="160" viewBox="0 0 160 160" fill="none" xmlns="http://www.w3.org/2000/svg"><g clip-path="url(#clip0_12319_23074)"><path d="M132.834 141.4c-4.433 3.302-9.45 6.235-15.078 8.728C71.817 170.462 14.487 135.982 6.3 87.445.116 50.785 23.14 20.894 56.87 9.023c40.345-14.197 81.049 1.592 97.443 42.948 11.903 30.037 5.296 69.494-21.479 89.429z" fill="#DAFAC7"/><path d="M135.726 44.809c8.068-6.648 11.791-20.94 9.185-31.331-.283-1.12-6.379 1.845-6.952 2.265-8.652 6.383-10.482 14.158-9.968 21.838-.728-1.852-1.884-3.559-3.255-4.99-9.387-9.809-23.77-9.874-23.831-9.874 0 0 .696 3.973.75 4.618.754 8.818 6.992 13.78 14.111 18.017 3.389 2.02 6.56 2.98 9.474 3.11l10.486-3.653z" fill="#307010"/><path d="M4.734 92.07c-9.518 7.071-2.62 10.732 2.78 11.279 4.222.428 6.303-3.95 8.93-6.368.218-.2.443-.395.668-.59-3.73-1.164-7.3-3.31-10.726-5.565-.54.41-1.09.823-1.652 1.244zM7.104 120.552c-.116.134-.232.268-.348.406-7.778 8.949-.254 11.044 5.136 10.42 3.835-.445 5.085-4.389 6.818-7.3-4.172-.489-8.442-1.043-11.606-3.526z" fill="#4F9C1F"/><path d="M87.715 88.757c-5.394-6.082-10.827-12.215-14.897-19.25-4.462-7.713-7.347-16.575-13.726-22.795 6.02-2.498 10.725-7.967 12.287-14.292-6.72-2.726-14.665-2.229-20.994 1.309-3.555-3.36-9.438-6.56-14.067-4.97.479-3.073-1.297-6.147-3.744-8.068-2.446-1.918-5.477-2.903-8.449-3.824-.67-.207.308 8.848.551 9.616.972 3.117 2.929 5.629 4.785 8.25a.174.174 0 00-.138-.047c.003.63-1.36 1.228-1.784 1.493-1.105.688-1.718.975-2.403 2.091-.83 1.352-1.464 2.816-2.229 4.187-.76 1.352-1.942 2.464-2.954 3.66-2.185 2.588-8.626 10.432-6.36 14.1 1.348 2.186 5.244 4.76 7.484 4.9 3.04.193 6.618-2.12 9.417-3.599 2.87-1.519 5.23-4.85 8.691-5.009-1.533 5.81-2.102 12.828-2.178 19.903-1.928-2.182-4.368-4.15-7.082-3.494-1.15.279-2.128 1.01-3.067 1.728-7.528 5.778-13.132 10.639-20.472 16.188 3.426 2.254 6.996 4.4 10.726 5.564 2.425-2.106 5.255-3.984 7.749-5.995 1.276-1.03 2.773-2.12 4.393-1.853.845.142 1.577.642 2.284 1.131 1.177.82 3.718 3.342 6.125 5.075.09 1.29.181 2.544.276 3.74.061.812.148 1.624.253 2.429a9.679 9.679 0 01-2.08-1.276c-2.548-2.07-5.912-4.255-8.862-2.813-1.062.519-1.863 1.443-2.625 2.349-6.448 7.659-11.022 13.86-17.52 21.37 3.163 2.483 7.437 3.038 11.605 3.527.174-.29.352-.572.537-.837 1.993-2.849 4.617-5.506 6.806-8.235 1.026-1.28 2.255-2.668 3.893-2.751.856-.044 1.678.29 2.472.616 2.08.855 8.337 5.093 11.07 4.538 2.243 4.179 5.074 7.941 8.354 11.247 6.894-3.135 13.343-7.322 18.953-13.585 7.076-8.271 12.7-16.89 17.029-26.184-.033-.05-.073-.094-.11-.134z" fill="#4F9C1F"/><path d="M153.178 81.066c-2.134-13.473-9.075-25.63-17.448-36.257l-10.49 3.653c2.972 5.662 5.702 11.45 7.365 17.609 2.211 8.184 2.403 17.21-1.203 24.882-3.606 7.674-11.533 13.607-20.004 13.266-9.641-.391-17.155-8.115-23.567-15.339-4.328 9.294-9.953 17.913-17.028 26.184-5.608 6.263-12.06 10.45-18.953 13.585 10.373 10.446 25.306 16.293 40.83 16.061 32.147-.475 65.914-29.443 60.498-63.645z" fill="#307010"/><path d="M53.626 37.513c4.556-2.487 9.054-2.755 14.114-2.52.703.033.837-1.043.163-1.217-4.933-1.269-10.559.26-14.854 2.754-.63.37-.065 1.334.577.983zM32.788 28.53c-.678-3.613-2.969-7.136-6.445-8.593-.543-.229-.808.605-.38.899 2.918 2.004 5.074 4.415 5.825 7.966.137.66 1.12.381 1-.271z" fill="#3F7026"/><path d="M35.242 29.05a4.996 4.996 0 01.388-2.067c1.21-2.929 3.61-5.419 5.839-7.611 3.99-3.922 8.953-6.989 14.335-8.565a27.86 27.86 0 018.105-1.12c2.38.021 5.745.358 7.716 2.019-5.313.63-10.264 1.308-14.222 3.595-4.169 2.41-8.283 5.093-11.378 8.782-1.196 1.425-2.389 2.918-3.1 4.654-.825 2.03.606 3.096-2.12 3.897-2.946.877-5.469-.928-5.563-3.585z" fill="#307010"/><path d="M45.086 33.377a5 5 0 01.388-2.066c1.21-2.929 3.61-5.419 5.84-7.612 3.99-3.922 8.952-6.988 14.334-8.565a27.86 27.86 0 018.105-1.12c2.381.022 5.745.36 7.717 2.02-5.314.63-10.265 1.308-14.223 3.595-4.169 2.41-8.282 5.092-11.378 8.782-1.196 1.424-2.388 2.918-3.099 4.654-.826 2.03.605 3.095-2.12 3.897-2.947.873-5.47-.932-5.564-3.585z" fill="#307010"/><path d="M37.138 26.664c1.185 1.058 2.772 1.66 4.356 1.265.236-.058.178-.406-.058-.417-1.413-.054-2.71-.399-3.773-1.377-.351-.33-.884.206-.525.53zM39.725 23.388c.943 1.069 2.266 1.692 3.697 1.602.595-.037.602-.906 0-.928-1.167-.044-2.247-.46-3.062-1.309-.406-.416-1.015.207-.635.635zM43.325 20.383c.862.819 1.924 1.42 3.131 1.504.537.036.587-.736.12-.895-.924-.316-1.776-.69-2.49-1.37-.504-.475-1.265.282-.761.76zM46.927 17.073c.356.657.812 1.273 1.447 1.675.333.21.616-.243.395-.511-.417-.507-.83-.993-1.124-1.584-.24-.471-.971-.05-.718.42zM50.737 14.315c.196.682.442 1.374.939 1.892.224.232.638-.007.543-.315-.188-.613-.482-1.182-.652-1.805-.142-.533-.982-.304-.83.228zM54.546 12.8c.153.435.298.866.486 1.287.16.355.696.098.609-.258-.102-.416-.25-.819-.388-1.225-.156-.442-.862-.25-.707.196zM59.08 11.267c.033.167.07.334.102.5.036.178.105.323.203.479.123.203.508.195.551-.073a1.56 1.56 0 00.011-.58l-.098-.54c-.04-.214-.297-.333-.49-.279-.217.062-.322.28-.278.493zM63.582 11.473c.587 0 .587-.91 0-.91-.587-.003-.587.91 0 .91zM46.985 31.336c.994.957 2.197 1.69 3.574 1.91.566.091.79-.666.24-.862-1.139-.406-2.208-.932-3.11-1.75-.472-.428-1.167.256-.704.702zM50.4 26.893c.714 1.29 2.164 2.29 3.679 1.964.333-.072.319-.58 0-.66-1.16-.29-2.233-.703-2.893-1.768-.308-.493-1.069-.051-.786.464zM54.43 23.065c.573.99 1.28 1.99 2.273 2.588.308.185.732-.196.511-.511-.612-.881-1.363-1.66-1.954-2.563-.337-.515-1.141-.054-.83.486zM58.711 20.14c.254.99.685 1.877 1.395 2.61.178.184.497-.055.36-.276-.497-.78-.91-1.606-1.128-2.508-.094-.402-.732-.232-.627.174zM62.513 17.52c.076 1.032.54 2.42 1.577 2.874.308.134.768-.174.522-.522-.268-.384-.61-.696-.86-1.095-.264-.42-.42-.87-.503-1.355-.069-.417-.765-.323-.736.097zM66.939 16.12c.069.363.167.721.337 1.051.174.341.377.573.685.801.268.2.616-.13.536-.413-.16-.583-.456-1.113-.616-1.7-.17-.612-1.062-.351-.942.261zM72.071 16.341c.721 0 .725-1.123 0-1.123-.725.003-.725 1.123 0 1.123z" fill="#fff"/><path d="M35.028 45.657c-.808 1.265-.457 2.863.845 3.628.95.558 2.82 1.073 3.341-.286.12-.305-.279-.566-.536-.413-.776.464-1.468.344-2.244-.091-.928-.522-1.246-1.475-.703-2.425.265-.46-.42-.855-.703-.413zM26.119 41.094c-.308 1.192.26 2.693 1.526 3.08 1.123.345 2.78-.358 3.204-1.457.09-.235-.232-.482-.439-.337-.652.46-1.312 1.03-2.167 1.012-1.048-.022-1.606-1.178-1.403-2.103.102-.464-.598-.663-.721-.195zM19.283 53.95c-.769-.152-1.544.094-1.896.834-.642 1.337.482 2.892 1.802 3.24.974.254 1.935-.058 2.388-.982.736-1.494-.982-2.831-2.294-3.092z" fill="#3F7026"/><path d="M19.413 55.722c-1.113.816-1.99 1.907-2.639 3.125-.561 1.054-1.275 2.533-.815 3.733.189.49.787.471.982 0 .414-1 .515-2.059 1.012-3.045.51-1.014 1.2-2 2.109-2.696.649-.497.029-1.613-.649-1.117z" fill="#3F7026"/><mask id="a" style="mask-type:luminance" maskUnits="userSpaceOnUse" x="51" y="44" width="103" height="101"><path d="M153.178 81.066c-2.134-13.473-9.075-25.63-17.448-36.257l-10.49 3.653c2.972 5.662 5.702 11.45 7.365 17.609 2.211 8.184 2.403 17.21-1.203 24.882-3.606 7.674-11.533 13.607-20.004 13.266-9.641-.391-17.155-8.115-23.567-15.339-4.328 9.294-9.953 17.913-17.028 26.184-5.608 6.263-12.06 10.45-18.953 13.585 10.373 10.446 25.306 16.293 40.83 16.061 32.147-.475 65.914-29.443 60.498-63.645z" fill="#fff"/></mask><g mask="url(#a)"><path d="M96.704 91.46c2.276 3.781 2.008 8.874-.99 12.208-2.765 3.074-7.332 3.951-11.134 2.541-.67-.25-1.062.779-.475 1.131 4.02 2.403 5.825 7.945 3.58 12.171-2.203 4.151-7.781 5.843-11.982 3.893-.714-.33-1.559.555-.899 1.164 3.081 2.834 4.023 7.662 1.813 11.323-2.2 3.639-6.934 5.031-10.87 3.737-.867-.283-1.208 1.044-.374 1.348 4.538 1.664 9.997-.159 12.498-4.353 2.493-4.183 1.482-9.833-2.023-13.106l-.899 1.163c4.922 2.265 11.352.457 13.926-4.473 2.533-4.853.475-11.189-4.15-13.936-.16.377-.32.754-.475 1.131 4.386 1.613 9.62.351 12.599-3.317 3.005-3.697 3.088-9.076.53-13.02-.273-.42-.94-.04-.675.396z" fill="#fff"/></g><mask id="b" style="mask-type:luminance" maskUnits="userSpaceOnUse" x="51" y="44" width="103" height="101"><path d="M153.178 81.066c-2.134-13.473-9.075-25.63-17.448-36.257l-10.49 3.653c2.972 5.662 5.702 11.45 7.365 17.609 2.211 8.184 2.403 17.21-1.203 24.882-3.606 7.674-11.533 13.607-20.004 13.266-9.641-.391-17.155-8.115-23.567-15.339-4.328 9.294-9.953 17.913-17.028 26.184-5.608 6.263-12.06 10.45-18.953 13.585 10.373 10.446 25.306 16.293 40.83 16.061 32.147-.475 65.914-29.443 60.498-63.645z" fill="#fff"/></mask><g mask="url(#b)"><path d="M105.544 99.83c3.364 2.091 6.09 6.361 4.741 10.432-1.127 3.41-5.426 5.65-8.71 3.874-.674-.366-1.504.58-.859 1.113 2.907 2.392 4.687 6.343 3.476 10.084-1.134 3.512-4.976 5.774-8.572 4.933-.866-.203-1.33.927-.594 1.413 3.073 2.041 4.592 6.064 3.352 9.598-1.283 3.654-4.987 5.441-8.637 5.647-.547.029-.732.885-.138 1.008 4.263.866 8.638-2.037 10.12-6.024 1.577-4.234-.275-9.069-3.914-11.563-.2.472-.4.943-.595 1.414 4.07 1.015 8.373-1.334 10.047-5.132 1.922-4.357-.032-9.472-3.541-12.378-.286.369-.572.743-.859 1.112 3.9 2.128 8.88-.156 10.512-4.15 1.939-4.759-1.215-9.884-5.314-12.247-.569-.33-1.066.525-.515.866z" fill="#fff"/></g><mask id="c" style="mask-type:luminance" maskUnits="userSpaceOnUse" x="51" y="44" width="103" height="101"><path d="M153.178 81.066c-2.134-13.473-9.075-25.63-17.448-36.257l-10.49 3.653c2.972 5.662 5.702 11.45 7.365 17.609 2.211 8.184 2.403 17.21-1.203 24.882-3.606 7.674-11.533 13.607-20.004 13.266-9.641-.391-17.155-8.115-23.567-15.339-4.328 9.294-9.953 17.913-17.028 26.184-5.608 6.263-12.06 10.45-18.953 13.585 10.373 10.446 25.306 16.293 40.83 16.061 32.147-.475 65.914-29.443 60.498-63.645z" fill="#fff"/></mask><g mask="url(#c)"><path d="M118.441 101.95c3.617.011 7.086 2.541 7.8 6.18.674 3.436-1.265 6.898-4.339 8.424-.536.264-.304 1.243.315 1.171 4.179-.497 7.71 3.189 7.927 7.241.225 4.172-2.421 7.685-5.364 10.331-.518.467.185 1.413.761.985 3.726-2.787 6.648-7.47 5.876-12.287-.693-4.324-4.683-8.097-9.196-7.525l.315 1.171c3.542-1.798 5.655-5.883 4.821-9.815-.866-4.085-4.842-6.88-8.916-6.8-.599.011-.602.924 0 .924z" fill="#fff"/></g><mask id="d" style="mask-type:luminance" maskUnits="userSpaceOnUse" x="51" y="44" width="103" height="101"><path d="M153.178 81.066c-2.134-13.473-9.075-25.63-17.448-36.257l-10.49 3.653c2.972 5.662 5.702 11.45 7.365 17.609 2.211 8.184 2.403 17.21-1.203 24.882-3.606 7.674-11.533 13.607-20.004 13.266-9.641-.391-17.155-8.115-23.567-15.339-4.328 9.294-9.953 17.913-17.028 26.184-5.608 6.263-12.06 10.45-18.953 13.585 10.373 10.446 25.306 16.293 40.83 16.061 32.147-.475 65.914-29.443 60.498-63.645z" fill="#fff"/></mask><g mask="url(#d)"><path d="M128.557 95.115c2.127-2.607 6.462-3.324 9.079-.961 2.588 2.334 2.421 6.629 0 8.989-.522.511.163 1.442.794 1.029 3.211-2.102 8.569-3.617 10.986.526 2.052 3.512.852 8.017-.623 11.483-.258.601.525 1.105.899.525 2.301-3.581 3.131-9.656.42-13.266-3.07-4.088-8.681-2.842-12.345-.399.264.345.529.685.794 1.03 2.946-2.914 3.03-8.184-.243-10.925-3.165-2.646-8.061-1.765-10.454 1.436-.293.395.377.92.693.533z" fill="#fff"/></g><mask id="e" style="mask-type:luminance" maskUnits="userSpaceOnUse" x="51" y="44" width="103" height="101"><path d="M153.178 81.066c-2.134-13.473-9.075-25.63-17.448-36.257l-10.49 3.653c2.972 5.662 5.702 11.45 7.365 17.609 2.211 8.184 2.403 17.21-1.203 24.882-3.606 7.674-11.533 13.607-20.004 13.266-9.641-.391-17.155-8.115-23.567-15.339-4.328 9.294-9.953 17.913-17.028 26.184-5.608 6.263-12.06 10.45-18.953 13.585 10.373 10.446 25.306 16.293 40.83 16.061 32.147-.475 65.914-29.443 60.498-63.645z" fill="#fff"/></mask><g mask="url(#e)"><path d="M131.547 85.042c.37-3.295 2.929-6.492 6.401-6.727 3.516-.236 6.234 2.5 6.604 5.839.076.7 1.058.924 1.279.174 1.001-3.371 5.111-2.62 7.061-.682 1.997 1.99 2.45 4.658 3.28 7.231.225.693 1.432.624 1.345-.18-.395-3.585-1.899-7.736-5.397-9.356-2.78-1.287-6.147-.362-7.477 2.483.406.109.808.217 1.214.33.21-4.045-4.013-7.51-7.909-7.119-4.063.406-7.017 4.081-7.282 8.007-.036.573.819.55.881 0z" fill="#fff"/></g><mask id="f" style="mask-type:luminance" maskUnits="userSpaceOnUse" x="51" y="44" width="103" height="101"><path d="M153.178 81.066c-2.134-13.473-9.075-25.63-17.448-36.257l-10.49 3.653c2.972 5.662 5.702 11.45 7.365 17.609 2.211 8.184 2.403 17.21-1.203 24.882-3.606 7.674-11.533 13.607-20.004 13.266-9.641-.391-17.155-8.115-23.567-15.339-4.328 9.294-9.953 17.913-17.028 26.184-5.608 6.263-12.06 10.45-18.953 13.585 10.373 10.446 25.306 16.293 40.83 16.061 32.147-.475 65.914-29.443 60.498-63.645z" fill="#fff"/></mask><g mask="url(#f)"><path d="M131.025 71.859c-2.929-5.263 8.384-9.645 9.475-3.204.108.649.971.49 1.163 0 .968-2.487 3.498-3.965 6.129-3.871 2.548.09 4.774 1.5 6.612 3.168.554.5 1.312-.261.815-.816-3.983-4.487-12.182-5.201-14.719 1.204h1.163c-1.319-8.033-15.205-2.36-11.189 3.845.225.334.75.033.551-.326z" fill="#fff"/></g><mask id="g" style="mask-type:luminance" maskUnits="userSpaceOnUse" x="51" y="44" width="103" height="101"><path d="M153.178 81.066c-2.134-13.473-9.075-25.63-17.448-36.257l-10.49 3.653c2.972 5.662 5.702 11.45 7.365 17.609 2.211 8.184 2.403 17.21-1.203 24.882-3.606 7.674-11.533 13.607-20.004 13.266-9.641-.391-17.155-8.115-23.567-15.339-4.328 9.294-9.953 17.913-17.028 26.184-5.608 6.263-12.06 10.45-18.953 13.585 10.373 10.446 25.306 16.293 40.83 16.061 32.147-.475 65.914-29.443 60.498-63.645z" fill="#fff"/></mask><g mask="url(#g)"><path d="M124.932 56.701c2.12-3.37 6.535-4.183 9.594-1.551.388.333 1.001.116 1.015-.42.123-4.397 5.169-4.84 8.474-5.158.646-.062.675-1.023 0-1.026-3.972-.026-9.688 1.138-9.666 6.183.337-.141.678-.279 1.015-.42-3.614-2.91-8.681-2.048-10.831 2.164-.13.257.24.478.399.228z" fill="#fff"/></g><mask id="h" style="mask-type:luminance" maskUnits="userSpaceOnUse" x="51" y="44" width="103" height="101"><path d="M153.178 81.066c-2.134-13.473-9.075-25.63-17.448-36.257l-10.49 3.653c2.972 5.662 5.702 11.45 7.365 17.609 2.211 8.184 2.403 17.21-1.203 24.882-3.606 7.674-11.533 13.607-20.004 13.266-9.641-.391-17.155-8.115-23.567-15.339-4.328 9.294-9.953 17.913-17.028 26.184-5.608 6.263-12.06 10.45-18.953 13.585 10.373 10.446 25.306 16.293 40.83 16.061 32.147-.475 65.914-29.443 60.498-63.645z" fill="#fff"/></mask><g mask="url(#h)"><path d="M51.98 129.233c3.35-.595 6.869-2.936 9.66-4.781 3.356-2.218 6.426-4.853 9.213-7.753 3.346-3.48 6.289-7.34 8.924-11.381a113.34 113.34 0 004.552-7.63c1.469-2.69 3.299-5.557 4.104-8.522.159-.59-.631-.88-.957-.402-1.711 2.512-2.802 5.6-4.241 8.286a104.087 104.087 0 01-4.205 7.188c-2.656 4.128-5.64 8.057-9.05 11.598-2.766 2.871-5.807 5.462-9.123 7.673a55.083 55.083 0 01-4.531 2.694c-1.508.804-3.23 1.395-4.647 2.337-.359.243-.12.769.301.693z" fill="#fff"/></g><path d="M132.239 43.134c-1.486-9.503 2.077-18.445 8.388-25.426.471-.522-.251-1.243-.772-.772-7.159 6.473-9.819 17.064-8.134 26.34.062.34.569.192.518-.142z" fill="#fff"/><path d="M134.903 39.013a37.018 37.018 0 012.976-10.395c1.381-3.038 3.273-5.625 5.216-8.315.333-.46-.399-1.008-.779-.602-4.785 5.086-7.315 12.469-7.902 19.312-.029.32.446.301.489 0zM138.716 38.886c1.581-3.827 2.904-7.836 3.393-11.964.062-.533-.801-.635-.928-.127-1.004 4.001-1.95 7.96-3.425 11.827-.228.605.721.844.96.264zM105.845 26.338c3.907.892 7.8 2.124 11.251 4.2 3.646 2.194 6.361 5.217 8.59 8.801.21.341.71.044.533-.311-3.933-7.844-11.929-11.748-20.182-13.397-.457-.09-.656.602-.192.707zM108.857 30.847c6.285 3.045 11.552 7.836 16.238 12.925.345.377 1.008-.12.714-.55-1.957-2.904-4.824-5.285-7.546-7.446-2.773-2.2-5.734-4.215-8.956-5.701-.515-.24-.972.518-.45.772zM107.259 33.308c3.555 4.734 8.478 9.102 14.136 11.088.413.145.67-.49.293-.7-5.292-2.94-9.978-6.096-13.831-10.852-.269-.333-.859.116-.598.464zM127.933 40.028c.037 2.994 1.088 6.078 3.44 8.04.366.308.808-.15.518-.519-1.779-2.25-3.023-4.607-3.157-7.52-.029-.512-.808-.52-.801 0z" fill="#fff"/><path d="M54.492 48.868c4.43 4.288 7.035 9.856 9.348 15.477 1.076 2.617 2.106 5.252 3.262 7.837 1.12 2.508 2.283 5.208 4.175 7.238.363.388.863-.105.682-.526-1.171-2.682-2.755-5.194-3.973-7.865-1.265-2.776-2.396-5.61-3.614-8.405-2.297-5.278-4.969-10.432-9.195-14.437-.453-.431-1.135.246-.685.681zM60.95 68.92c3.017 8.978 7.78 18.467 14.71 25.085.561.537 1.279-.25.83-.83-2.954-3.791-5.992-7.412-8.493-11.54a71.79 71.79 0 01-6.144-12.966c-.199-.558-1.094-.326-.902.25zM73.228 82.294c2.28 3.523 5.212 6.753 8.88 8.859.692.395 1.214-.588.609-1.04-3.248-2.436-6.184-5.035-8.522-8.384-.406-.584-1.363-.047-.967.565zM58.32 74.864c1.355 3.248 2.685 6.506 4.074 9.74.184.427.935.119.76-.32-1.297-3.23-2.653-6.437-3.983-9.652-.217-.522-1.073-.294-.852.232zM65.264 88.43c1.432 2.447 3.14 4.727 5.234 6.645.453.413 1.095-.225.674-.675-1.888-2.008-3.606-4.117-5.013-6.495-.34-.569-1.232-.05-.895.526zM72.386 97.583c.885.797 1.737 1.62 2.748 2.258.464.293.873-.34.555-.721-.74-.881-1.639-1.588-2.509-2.331-.543-.46-1.334.308-.794.794z" fill="#3F7026"/><path d="M107.019 64.403c5.593-.065 6.931-6.172 7.318-10.613h-1.779c.507 3.991 2.015 9.7 7.22 9.127-.087-.652-.178-1.301-.265-1.953-5.375.822-5.168 8.71-5.777 12.733h1.87c-.645-2.846-.837-5.912-2.7-8.308-1.475-1.895-3.715-3.063-6.108-2.454-1.054.269-.605 1.842.446 1.62 4.843-1.014 6.637 5.814 6.459 9.395-.054 1.07 1.733 1.349 1.903.258.337-2.135.645-4.274 1.011-6.401.363-2.106.972-4.553 3.429-4.93 1.095-.166.852-2.077-.264-1.953-4.096.453-5.024-4.317-5.474-7.373-.152-1.047-1.685-.703-1.747.236-.246 3.581-.88 9.065-5.538 9.304-.837.047-.852 1.323-.004 1.312zM97.505 81.588c3.229-.396 4.161-3.382 4.291-6.242-.529.072-1.058.141-1.584.214.251 1.475.261 3.389 1.483 4.454 1.033.9 2.519.91 3.806.845-.08-.58-.156-1.156-.236-1.736-1.355.55-2.686 1.178-3.298 2.599-.794 1.84-.018 3.896-.729 5.755.573.077 1.146.156 1.718.232-.152-1.74-.308-3.82-1.17-5.371-.841-1.508-2.324-1.526-3.853-1.86-.61-.134-1.091.787-.454 1.073 1.215.54 2.712.544 3.172 2.02.413 1.33.507 2.757.555 4.138.036 1.026 1.373 1.138 1.718.232.431-1.13.406-2.222.402-3.41-.007-1.91.584-2.969 2.407-3.705.841-.34.848-1.816-.236-1.736-1.163.087-2.537.254-3.15-1.076-.391-.841-.413-1.983-.58-2.885-.17-.921-1.558-.664-1.584.213-.061 2.077-.51 4.444-2.845 5.006-.674.167-.547 1.326.167 1.24zM81.557 49.028c6.77-.03 8.347-7.597 8.804-12.911h-1.78c.61 4.737 2.414 11.765 8.685 11.004-.087-.652-.178-1.301-.265-1.953-2.653.358-4.371 2.537-5.161 4.958-1.088 3.331-1.273 7.1-1.798 10.555h1.87c-.645-3.454-1-7.231-3.211-10.124-1.744-2.28-4.498-3.747-7.362-2.994-1.05.276-.605 1.86.446 1.62 6.176-1.402 8.308 7.293 8.224 11.752-.018 1.062 1.73 1.359 1.903.257.424-2.7.808-5.412 1.28-8.105.45-2.591 1.326-5.596 4.342-6.006 1.098-.148.848-2.087-.265-1.953-5.147.627-6.383-5.426-6.934-9.25-.152-1.048-1.681-.7-1.747.235-.311 4.466-1.178 11.389-7.024 11.603-.844.036-.852 1.315-.007 1.312z" fill="#4F9C1F"/><path d="M132.834 141.4c-4.433 3.302-9.45 6.235-15.078 8.728C71.817 170.462 14.487 135.982 6.3 87.445.116 50.785 23.14 20.894 56.87 9.023c40.345-14.197 81.049 1.592 97.443 42.948 11.903 30.037 5.296 69.494-21.479 89.429z" fill="#DAFAC7"/><path d="M135.726 44.809c8.068-6.648 11.791-20.94 9.185-31.331-.283-1.12-6.379 1.845-6.952 2.265-8.652 6.383-10.482 14.158-9.968 21.838-.728-1.852-1.884-3.559-3.255-4.99-9.387-9.809-23.77-9.874-23.831-9.874 0 0 .696 3.973.75 4.618.754 8.818 6.992 13.78 14.111 18.017 3.389 2.02 6.56 2.98 9.474 3.11l10.486-3.653z" fill="#307010"/><path d="M4.734 92.07c-9.518 7.071-2.62 10.732 2.78 11.279 4.222.428 6.303-3.95 8.93-6.368.218-.2.443-.395.668-.59-3.73-1.164-7.3-3.31-10.726-5.565-.54.41-1.09.823-1.652 1.244zM7.104 120.552c-.116.134-.232.268-.348.406-7.778 8.949-.254 11.044 5.136 10.42 3.835-.445 5.085-4.389 6.818-7.3-4.172-.489-8.442-1.043-11.606-3.526z" fill="#4F9C1F"/><path d="M87.715 88.757c-5.394-6.082-10.827-12.215-14.897-19.25-4.462-7.713-7.347-16.575-13.726-22.795 6.02-2.498 10.725-7.967 12.287-14.292-6.72-2.726-14.665-2.229-20.994 1.309-3.555-3.36-9.438-6.56-14.067-4.97.479-3.073-1.297-6.147-3.744-8.068-2.446-1.918-5.477-2.903-8.449-3.824-.67-.207.308 8.848.551 9.616.972 3.117 2.929 5.629 4.785 8.25a.174.174 0 00-.138-.047c.003.63-1.36 1.228-1.784 1.493-1.105.688-1.718.975-2.403 2.091-.83 1.352-1.464 2.816-2.229 4.187-.76 1.352-1.942 2.464-2.954 3.66-2.185 2.588-8.626 10.432-6.36 14.1 1.348 2.186 5.244 4.76 7.484 4.9 3.04.193 6.618-2.12 9.417-3.599 2.87-1.519 5.23-4.85 8.691-5.009-1.533 5.81-2.102 12.828-2.178 19.903-1.928-2.182-4.368-4.15-7.082-3.494-1.15.279-2.128 1.01-3.067 1.728-7.528 5.778-13.132 10.639-20.472 16.188 3.426 2.254 6.996 4.4 10.726 5.564 2.425-2.106 5.255-3.984 7.749-5.995 1.276-1.03 2.773-2.12 4.393-1.853.845.142 1.577.642 2.284 1.131 1.177.82 3.718 3.342 6.125 5.075.09 1.29.181 2.544.276 3.74.061.812.148 1.624.253 2.429a9.679 9.679 0 01-2.08-1.276c-2.548-2.07-5.912-4.255-8.862-2.813-1.062.519-1.863 1.443-2.625 2.349-6.448 7.659-11.022 13.86-17.52 21.37 3.163 2.483 7.437 3.038 11.605 3.527.174-.29.352-.572.537-.837 1.993-2.849 4.617-5.506 6.806-8.235 1.026-1.28 2.255-2.668 3.893-2.751.856-.044 1.678.29 2.472.616 2.08.855 8.337 5.093 11.07 4.538 2.243 4.179 5.074 7.941 8.354 11.247 6.894-3.135 13.343-7.322 18.953-13.585 7.076-8.271 12.7-16.89 17.029-26.184-.033-.05-.073-.094-.11-.134z" fill="#5ACD26"/><path d="M153.178 81.066c-2.134-13.473-9.075-25.63-17.448-36.257l-10.49 3.653c2.972 5.662 5.702 11.45 7.365 17.609 2.211 8.184 2.403 17.21-1.203 24.882-3.606 7.674-11.533 13.607-20.004 13.266-9.641-.391-17.155-8.115-23.567-15.339-4.328 9.294-9.953 17.913-17.028 26.184-5.608 6.263-12.06 10.45-18.953 13.585 10.373 10.446 25.306 16.293 40.83 16.061 32.147-.475 65.914-29.443 60.498-63.645z" fill="#307010"/><path d="M53.626 37.513c4.556-2.487 9.054-2.755 14.114-2.52.703.033.837-1.043.163-1.217-4.933-1.269-10.559.26-14.854 2.754-.63.37-.065 1.334.577.983zM32.788 28.53c-.678-3.613-2.969-7.136-6.445-8.593-.543-.229-.808.605-.38.899 2.918 2.004 5.074 4.415 5.825 7.966.137.66 1.12.381 1-.271z" fill="#3F7026"/><path d="M35.242 29.05a4.996 4.996 0 01.388-2.067c1.21-2.929 3.61-5.419 5.839-7.611 3.99-3.922 8.953-6.989 14.335-8.565a27.86 27.86 0 018.105-1.12c2.38.021 5.745.358 7.716 2.019-5.313.63-10.264 1.308-14.222 3.595-4.169 2.41-8.283 5.093-11.378 8.782-1.196 1.425-2.389 2.918-3.1 4.654-.825 2.03.606 3.096-2.12 3.897-2.946.877-5.469-.928-5.563-3.585z" fill="#307010"/><path d="M45.086 33.377a5 5 0 01.388-2.066c1.21-2.929 3.61-5.419 5.84-7.612 3.99-3.922 8.952-6.988 14.334-8.565a27.86 27.86 0 018.105-1.12c2.381.022 5.745.36 7.717 2.02-5.314.63-10.265 1.308-14.223 3.595-4.169 2.41-8.282 5.092-11.378 8.782-1.196 1.424-2.388 2.918-3.099 4.654-.826 2.03.605 3.095-2.12 3.897-2.947.873-5.47-.932-5.564-3.585z" fill="#307010"/><path d="M37.138 26.664c1.185 1.058 2.772 1.66 4.356 1.265.236-.058.178-.406-.058-.417-1.413-.054-2.71-.399-3.773-1.377-.351-.33-.884.206-.525.53zM39.725 23.388c.943 1.069 2.266 1.692 3.697 1.602.595-.037.602-.906 0-.928-1.167-.044-2.247-.46-3.062-1.309-.406-.416-1.015.207-.635.635zM43.325 20.383c.862.819 1.924 1.42 3.131 1.504.537.036.587-.736.12-.895-.924-.316-1.776-.69-2.49-1.37-.504-.475-1.265.282-.761.76zM46.927 17.073c.356.657.812 1.273 1.447 1.675.333.21.616-.243.395-.511-.417-.507-.83-.993-1.124-1.584-.24-.471-.971-.05-.718.42zM50.737 14.315c.196.682.442 1.374.939 1.892.224.232.638-.007.543-.315-.188-.613-.482-1.182-.652-1.805-.142-.533-.982-.304-.83.228zM54.546 12.8c.153.435.298.866.486 1.287.16.355.696.098.609-.258-.102-.416-.25-.819-.388-1.225-.156-.442-.862-.25-.707.196zM59.08 11.267c.033.167.07.334.102.5.036.178.105.323.203.479.123.203.508.195.551-.073a1.56 1.56 0 00.011-.58l-.098-.54c-.04-.214-.297-.333-.49-.279-.217.062-.322.28-.278.493zM63.582 11.473c.587 0 .587-.91 0-.91-.587-.003-.587.91 0 .91zM46.985 31.336c.994.957 2.197 1.69 3.574 1.91.566.091.79-.666.24-.862-1.139-.406-2.208-.932-3.11-1.75-.472-.428-1.167.256-.704.702zM50.4 26.893c.714 1.29 2.164 2.29 3.679 1.964.333-.072.319-.58 0-.66-1.16-.29-2.233-.703-2.893-1.768-.308-.493-1.069-.051-.786.464zM54.43 23.065c.573.99 1.28 1.99 2.273 2.588.308.185.732-.196.511-.511-.612-.881-1.363-1.66-1.954-2.563-.337-.515-1.141-.054-.83.486zM58.711 20.14c.254.99.685 1.877 1.395 2.61.178.184.497-.055.36-.276-.497-.78-.91-1.606-1.128-2.508-.094-.402-.732-.232-.627.174zM62.513 17.52c.076 1.032.54 2.42 1.577 2.874.308.134.768-.174.522-.522-.268-.384-.61-.696-.86-1.095-.264-.42-.42-.87-.503-1.355-.069-.417-.765-.323-.736.097zM66.939 16.12c.069.363.167.721.337 1.051.174.341.377.573.685.801.268.2.616-.13.536-.413-.16-.583-.456-1.113-.616-1.7-.17-.612-1.062-.351-.942.261zM72.071 16.341c.721 0 .725-1.123 0-1.123-.725.003-.725 1.123 0 1.123z" fill="#fff"/><path d="M35.028 45.657c-.808 1.265-.457 2.863.845 3.628.95.558 2.82 1.073 3.341-.286.12-.305-.279-.566-.536-.413-.776.464-1.468.344-2.244-.091-.928-.522-1.246-1.475-.703-2.425.265-.46-.42-.855-.703-.413zM26.119 41.094c-.308 1.192.26 2.693 1.526 3.08 1.123.345 2.78-.358 3.204-1.457.09-.235-.232-.482-.439-.337-.652.46-1.312 1.03-2.167 1.012-1.048-.022-1.606-1.178-1.403-2.103.102-.464-.598-.663-.721-.195zM19.283 53.95c-.769-.152-1.544.094-1.896.834-.642 1.337.482 2.892 1.802 3.24.974.254 1.935-.058 2.388-.982.736-1.494-.982-2.831-2.294-3.092z" fill="#307010"/><path d="M19.413 55.722c-1.113.816-1.99 1.907-2.639 3.125-.561 1.054-1.275 2.533-.815 3.733.189.49.787.471.982 0 .414-1 .515-2.059 1.012-3.045.51-1.014 1.2-2 2.109-2.696.649-.497.029-1.613-.649-1.117z" fill="#307010"/><mask id="i" style="mask-type:luminance" maskUnits="userSpaceOnUse" x="51" y="44" width="103" height="101"><path d="M153.178 81.066c-2.134-13.473-9.075-25.63-17.448-36.257l-10.49 3.653c2.972 5.662 5.702 11.45 7.365 17.609 2.211 8.184 2.403 17.21-1.203 24.882-3.606 7.674-11.533 13.607-20.004 13.266-9.641-.391-17.155-8.115-23.567-15.339-4.328 9.294-9.953 17.913-17.028 26.184-5.608 6.263-12.06 10.45-18.953 13.585 10.373 10.446 25.306 16.293 40.83 16.061 32.147-.475 65.914-29.443 60.498-63.645z" fill="#fff"/></mask><g mask="url(#i)"><path d="M96.704 91.46c2.276 3.781 2.008 8.874-.99 12.208-2.765 3.074-7.332 3.951-11.134 2.541-.67-.25-1.062.779-.475 1.131 4.02 2.403 5.825 7.945 3.58 12.171-2.203 4.151-7.781 5.843-11.982 3.893-.714-.33-1.559.555-.899 1.164 3.081 2.834 4.023 7.662 1.813 11.323-2.2 3.639-6.934 5.031-10.87 3.737-.867-.283-1.208 1.044-.374 1.348 4.538 1.664 9.997-.159 12.498-4.353 2.493-4.183 1.482-9.833-2.023-13.106l-.899 1.163c4.922 2.265 11.352.457 13.926-4.473 2.533-4.853.475-11.189-4.15-13.936-.16.377-.32.754-.475 1.131 4.386 1.613 9.62.351 12.599-3.317 3.005-3.697 3.088-9.076.53-13.02-.273-.42-.94-.04-.675.396z" fill="#fff"/></g><mask id="j" style="mask-type:luminance" maskUnits="userSpaceOnUse" x="51" y="44" width="103" height="101"><path d="M153.178 81.066c-2.134-13.473-9.075-25.63-17.448-36.257l-10.49 3.653c2.972 5.662 5.702 11.45 7.365 17.609 2.211 8.184 2.403 17.21-1.203 24.882-3.606 7.674-11.533 13.607-20.004 13.266-9.641-.391-17.155-8.115-23.567-15.339-4.328 9.294-9.953 17.913-17.028 26.184-5.608 6.263-12.06 10.45-18.953 13.585 10.373 10.446 25.306 16.293 40.83 16.061 32.147-.475 65.914-29.443 60.498-63.645z" fill="#fff"/></mask><g mask="url(#j)"><path d="M105.544 99.83c3.364 2.091 6.09 6.361 4.741 10.432-1.127 3.41-5.426 5.65-8.71 3.874-.674-.366-1.504.58-.859 1.113 2.907 2.392 4.687 6.343 3.476 10.084-1.134 3.512-4.976 5.774-8.572 4.933-.866-.203-1.33.927-.594 1.413 3.073 2.041 4.592 6.064 3.352 9.598-1.283 3.654-4.987 5.441-8.637 5.647-.547.029-.732.885-.138 1.008 4.263.866 8.638-2.037 10.12-6.024 1.577-4.234-.275-9.069-3.914-11.563-.2.472-.4.943-.595 1.414 4.07 1.015 8.373-1.334 10.047-5.132 1.922-4.357-.032-9.472-3.541-12.378-.286.369-.572.743-.859 1.112 3.9 2.128 8.88-.156 10.512-4.15 1.939-4.759-1.215-9.884-5.314-12.247-.569-.33-1.066.525-.515.866z" fill="#fff"/></g><mask id="k" style="mask-type:luminance" maskUnits="userSpaceOnUse" x="51" y="44" width="103" height="101"><path d="M153.178 81.066c-2.134-13.473-9.075-25.63-17.448-36.257l-10.49 3.653c2.972 5.662 5.702 11.45 7.365 17.609 2.211 8.184 2.403 17.21-1.203 24.882-3.606 7.674-11.533 13.607-20.004 13.266-9.641-.391-17.155-8.115-23.567-15.339-4.328 9.294-9.953 17.913-17.028 26.184-5.608 6.263-12.06 10.45-18.953 13.585 10.373 10.446 25.306 16.293 40.83 16.061 32.147-.475 65.914-29.443 60.498-63.645z" fill="#fff"/></mask><g mask="url(#k)"><path d="M118.441 101.95c3.617.011 7.086 2.541 7.8 6.18.674 3.436-1.265 6.898-4.339 8.424-.536.264-.304 1.243.315 1.171 4.179-.497 7.71 3.189 7.927 7.241.225 4.172-2.421 7.685-5.364 10.331-.518.467.185 1.413.761.985 3.726-2.787 6.648-7.47 5.876-12.287-.693-4.324-4.683-8.097-9.196-7.525l.315 1.171c3.542-1.798 5.655-5.883 4.821-9.815-.866-4.085-4.842-6.88-8.916-6.8-.599.011-.602.924 0 .924z" fill="#fff"/></g><mask id="l" style="mask-type:luminance" maskUnits="userSpaceOnUse" x="51" y="44" width="103" height="101"><path d="M153.178 81.066c-2.134-13.473-9.075-25.63-17.448-36.257l-10.49 3.653c2.972 5.662 5.702 11.45 7.365 17.609 2.211 8.184 2.403 17.21-1.203 24.882-3.606 7.674-11.533 13.607-20.004 13.266-9.641-.391-17.155-8.115-23.567-15.339-4.328 9.294-9.953 17.913-17.028 26.184-5.608 6.263-12.06 10.45-18.953 13.585 10.373 10.446 25.306 16.293 40.83 16.061 32.147-.475 65.914-29.443 60.498-63.645z" fill="#fff"/></mask><g mask="url(#l)"><path d="M128.557 95.115c2.127-2.607 6.462-3.324 9.079-.961 2.588 2.334 2.421 6.629 0 8.989-.522.511.163 1.442.794 1.029 3.211-2.102 8.569-3.617 10.986.526 2.052 3.512.852 8.017-.623 11.483-.258.601.525 1.105.899.525 2.301-3.581 3.131-9.656.42-13.266-3.07-4.088-8.681-2.842-12.345-.399.264.345.529.685.794 1.03 2.946-2.914 3.03-8.184-.243-10.925-3.165-2.646-8.061-1.765-10.454 1.436-.293.395.377.92.693.533z" fill="#fff"/></g><mask id="m" style="mask-type:luminance" maskUnits="userSpaceOnUse" x="51" y="44" width="103" height="101"><path d="M153.178 81.066c-2.134-13.473-9.075-25.63-17.448-36.257l-10.49 3.653c2.972 5.662 5.702 11.45 7.365 17.609 2.211 8.184 2.403 17.21-1.203 24.882-3.606 7.674-11.533 13.607-20.004 13.266-9.641-.391-17.155-8.115-23.567-15.339-4.328 9.294-9.953 17.913-17.028 26.184-5.608 6.263-12.06 10.45-18.953 13.585 10.373 10.446 25.306 16.293 40.83 16.061 32.147-.475 65.914-29.443 60.498-63.645z" fill="#fff"/></mask><g mask="url(#m)"><path d="M131.547 85.042c.37-3.295 2.929-6.492 6.401-6.727 3.516-.236 6.234 2.5 6.604 5.839.076.7 1.058.924 1.279.174 1.001-3.371 5.111-2.62 7.061-.682 1.997 1.99 2.45 4.658 3.28 7.231.225.693 1.432.624 1.345-.18-.395-3.585-1.899-7.736-5.397-9.356-2.78-1.287-6.147-.362-7.477 2.483.406.109.808.217 1.214.33.21-4.045-4.013-7.51-7.909-7.119-4.063.406-7.017 4.081-7.282 8.007-.036.573.819.55.881 0z" fill="#fff"/></g><mask id="n" style="mask-type:luminance" maskUnits="userSpaceOnUse" x="51" y="44" width="103" height="101"><path d="M153.178 81.066c-2.134-13.473-9.075-25.63-17.448-36.257l-10.49 3.653c2.972 5.662 5.702 11.45 7.365 17.609 2.211 8.184 2.403 17.21-1.203 24.882-3.606 7.674-11.533 13.607-20.004 13.266-9.641-.391-17.155-8.115-23.567-15.339-4.328 9.294-9.953 17.913-17.028 26.184-5.608 6.263-12.06 10.45-18.953 13.585 10.373 10.446 25.306 16.293 40.83 16.061 32.147-.475 65.914-29.443 60.498-63.645z" fill="#fff"/></mask><g mask="url(#n)"><path d="M131.025 71.859c-2.929-5.263 8.384-9.645 9.475-3.204.108.649.971.49 1.163 0 .968-2.487 3.498-3.965 6.129-3.871 2.548.09 4.774 1.5 6.612 3.168.554.5 1.312-.261.815-.816-3.983-4.487-12.182-5.201-14.719 1.204h1.163c-1.319-8.033-15.205-2.36-11.189 3.845.225.334.75.033.551-.326z" fill="#fff"/></g><mask id="o" style="mask-type:luminance" maskUnits="userSpaceOnUse" x="51" y="44" width="103" height="101"><path d="M153.178 81.066c-2.134-13.473-9.075-25.63-17.448-36.257l-10.49 3.653c2.972 5.662 5.702 11.45 7.365 17.609 2.211 8.184 2.403 17.21-1.203 24.882-3.606 7.674-11.533 13.607-20.004 13.266-9.641-.391-17.155-8.115-23.567-15.339-4.328 9.294-9.953 17.913-17.028 26.184-5.608 6.263-12.06 10.45-18.953 13.585 10.373 10.446 25.306 16.293 40.83 16.061 32.147-.475 65.914-29.443 60.498-63.645z" fill="#fff"/></mask><g mask="url(#o)"><path d="M124.932 56.701c2.12-3.37 6.535-4.183 9.594-1.551.388.333 1.001.116 1.015-.42.123-4.397 5.169-4.84 8.474-5.158.646-.062.675-1.023 0-1.026-3.972-.026-9.688 1.138-9.666 6.183.337-.141.678-.279 1.015-.42-3.614-2.91-8.681-2.048-10.831 2.164-.13.257.24.478.399.228z" fill="#fff"/></g><mask id="p" style="mask-type:luminance" maskUnits="userSpaceOnUse" x="51" y="44" width="103" height="101"><path d="M153.178 81.066c-2.134-13.473-9.075-25.63-17.448-36.257l-10.49 3.653c2.972 5.662 5.702 11.45 7.365 17.609 2.211 8.184 2.403 17.21-1.203 24.882-3.606 7.674-11.533 13.607-20.004 13.266-9.641-.391-17.155-8.115-23.567-15.339-4.328 9.294-9.953 17.913-17.028 26.184-5.608 6.263-12.06 10.45-18.953 13.585 10.373 10.446 25.306 16.293 40.83 16.061 32.147-.475 65.914-29.443 60.498-63.645z" fill="#fff"/></mask><g mask="url(#p)"><path d="M51.98 129.233c3.35-.595 6.869-2.936 9.66-4.781 3.356-2.218 6.426-4.853 9.213-7.753 3.346-3.48 6.289-7.34 8.924-11.381a113.34 113.34 0 004.552-7.63c1.469-2.69 3.299-5.557 4.104-8.522.159-.59-.631-.88-.957-.402-1.711 2.512-2.802 5.6-4.241 8.286a104.087 104.087 0 01-4.205 7.188c-2.656 4.128-5.64 8.057-9.05 11.598-2.766 2.871-5.807 5.462-9.123 7.673a55.083 55.083 0 01-4.531 2.694c-1.508.804-3.23 1.395-4.647 2.337-.359.243-.12.769.301.693z" fill="#fff"/></g><path d="M132.239 43.134c-1.486-9.503 2.077-18.445 8.388-25.426.471-.522-.251-1.243-.772-.772-7.159 6.473-9.819 17.064-8.134 26.34.062.34.569.192.518-.142z" fill="#fff"/><path d="M134.903 39.013a37.018 37.018 0 012.976-10.395c1.381-3.038 3.273-5.625 5.216-8.315.333-.46-.399-1.008-.779-.602-4.785 5.086-7.315 12.469-7.902 19.312-.029.32.446.301.489 0zM138.716 38.886c1.581-3.827 2.904-7.836 3.393-11.964.062-.533-.801-.635-.928-.127-1.004 4.001-1.95 7.96-3.425 11.827-.228.605.721.844.96.264zM105.845 26.338c3.907.892 7.8 2.124 11.251 4.2 3.646 2.194 6.361 5.217 8.59 8.801.21.341.71.044.533-.311-3.933-7.844-11.929-11.748-20.182-13.397-.457-.09-.656.602-.192.707zM108.857 30.847c6.285 3.045 11.552 7.836 16.238 12.925.345.377 1.008-.12.714-.55-1.957-2.904-4.824-5.285-7.546-7.446-2.773-2.2-5.734-4.215-8.956-5.701-.515-.24-.972.518-.45.772zM107.259 33.308c3.555 4.734 8.478 9.102 14.136 11.088.413.145.67-.49.293-.7-5.292-2.94-9.978-6.096-13.831-10.852-.269-.333-.859.116-.598.464zM127.933 40.028c.037 2.994 1.088 6.078 3.44 8.04.366.308.808-.15.518-.519-1.779-2.25-3.023-4.607-3.157-7.52-.029-.512-.808-.52-.801 0z" fill="#fff"/><path d="M54.492 48.868c4.43 4.288 7.035 9.856 9.348 15.477 1.076 2.617 2.106 5.252 3.262 7.837 1.12 2.508 2.283 5.208 4.175 7.238.363.388.863-.105.682-.526-1.171-2.682-2.755-5.194-3.973-7.865-1.265-2.776-2.396-5.61-3.614-8.405-2.297-5.278-4.969-10.432-9.195-14.437-.453-.431-1.135.246-.685.681zM60.95 68.92c3.017 8.978 7.78 18.467 14.71 25.085.561.537 1.279-.25.83-.83-2.954-3.791-5.992-7.412-8.493-11.54a71.79 71.79 0 01-6.144-12.966c-.199-.558-1.094-.326-.902.25zM73.228 82.294c2.28 3.523 5.212 6.753 8.88 8.859.692.395 1.214-.588.609-1.04-3.248-2.436-6.184-5.035-8.522-8.384-.406-.584-1.363-.047-.967.565zM58.32 74.864c1.355 3.248 2.685 6.506 4.074 9.74.184.427.935.119.76-.32-1.297-3.23-2.653-6.437-3.983-9.652-.217-.522-1.073-.294-.852.232zM65.264 88.43c1.432 2.447 3.14 4.727 5.234 6.645.453.413 1.095-.225.674-.675-1.888-2.008-3.606-4.117-5.013-6.495-.34-.569-1.232-.05-.895.526zM72.386 97.583c.885.797 1.737 1.62 2.748 2.258.464.293.873-.34.555-.721-.74-.881-1.639-1.588-2.509-2.331-.543-.46-1.334.308-.794.794z" fill="#3F7026"/><path d="M107.019 64.403c5.593-.065 6.931-6.172 7.318-10.613h-1.779c.507 3.991 2.015 9.7 7.22 9.127-.087-.652-.178-1.301-.265-1.953-5.375.822-5.168 8.71-5.777 12.733h1.87c-.645-2.846-.837-5.912-2.7-8.308-1.475-1.895-3.715-3.063-6.108-2.454-1.054.269-.605 1.842.446 1.62 4.843-1.014 6.637 5.814 6.459 9.395-.054 1.07 1.733 1.349 1.903.258.337-2.135.645-4.274 1.011-6.401.363-2.106.972-4.553 3.429-4.93 1.095-.166.852-2.077-.264-1.953-4.096.453-5.024-4.317-5.474-7.373-.152-1.047-1.685-.703-1.747.236-.246 3.581-.88 9.065-5.538 9.304-.837.047-.852 1.323-.004 1.312zM97.505 81.588c3.229-.396 4.161-3.382 4.291-6.242-.529.072-1.058.141-1.584.214.251 1.475.261 3.389 1.483 4.454 1.033.9 2.519.91 3.806.845-.08-.58-.156-1.156-.236-1.736-1.355.55-2.686 1.178-3.298 2.599-.794 1.84-.018 3.896-.729 5.755.573.077 1.146.156 1.718.232-.152-1.74-.308-3.82-1.17-5.371-.841-1.508-2.324-1.526-3.853-1.86-.61-.134-1.091.787-.454 1.073 1.215.54 2.712.544 3.172 2.02.413 1.33.507 2.757.555 4.138.036 1.026 1.373 1.138 1.718.232.431-1.13.406-2.222.402-3.41-.007-1.91.584-2.969 2.407-3.705.841-.34.848-1.816-.236-1.736-1.163.087-2.537.254-3.15-1.076-.391-.841-.413-1.983-.58-2.885-.17-.921-1.558-.664-1.584.213-.061 2.077-.51 4.444-2.845 5.006-.674.167-.547 1.326.167 1.24zM81.557 49.028c6.77-.03 8.347-7.597 8.804-12.911h-1.78c.61 4.737 2.414 11.765 8.685 11.004-.087-.652-.178-1.301-.265-1.953-2.653.358-4.371 2.537-5.161 4.958-1.088 3.331-1.273 7.1-1.798 10.555h1.87c-.645-3.454-1-7.231-3.211-10.124-1.744-2.28-4.498-3.747-7.362-2.994-1.05.276-.605 1.86.446 1.62 6.176-1.402 8.308 7.293 8.224 11.752-.018 1.062 1.73 1.359 1.903.257.424-2.7.808-5.412 1.28-8.105.45-2.591 1.326-5.596 4.342-6.006 1.098-.148.848-2.087-.265-1.953-5.147.627-6.383-5.426-6.934-9.25-.152-1.048-1.681-.7-1.747.235-.311 4.466-1.178 11.389-7.024 11.603-.844.036-.852 1.315-.007 1.312z" fill="#51FC03"/></g><defs><clipPath id="clip0_12319_23074"><path fill="#fff" transform="translate(0 3.924)" d="M0 0h160v152.153H0z"/></clipPath></defs></svg>