<svg width="160" height="160" viewBox="0 0 160 160" fill="none" xmlns="http://www.w3.org/2000/svg"><g clip-path="url(#clip0_12321_7801)"><path d="M5.217 69.286c8.566-29.66 36.653-54.832 66.866-58.434 33.193-3.957 69.488 22.352 81.723 52.307 21.625 52.953-54.325 100.011-99.708 89.715-35.49-8.055-58.927-48.784-48.881-83.588z" fill="#EBF2FE"/><path d="M111.555 112.342c.31 5.273 1.216 10.203.481 15.524-.421 3.066-1.226 6.071-2.323 8.965-.984 2.599-2.647 5.016-3.401 7.675-.19.667-.264 1.528.31 1.92.555.38 1.305.037 1.872-.321 2.55-1.622 4.59-3.665 6.768-5.724a43.87 43.87 0 007.346-9.11c4.058-6.679 6.366-14.458 6.299-22.289l-.011-.704c-.09-3.379-.627-6.855-2.424-9.719-2.887-4.597-10.121-6.839-13.47-1.342-1.585 2.603-1.417 7.421-1.514 10.408a52.659 52.659 0 00.067 4.717z" fill="#000E42"/><path d="M113.021 158.792c-.008-.537.254-1.044.507-1.529.463-.88.947-1.76 1.44-2.64-.168-1.1-.418-2.324.372-3.263.493-.59 1.466-.709 1.768-1.47.239-.607-.127-1.271-.242-1.913-.183-1.014.346-2.114 1.249-2.61.373-.205.794-.313 1.163-.526.37-.212.698-.582.679-1.007-.015-.339-.242-.63-.384-.939a2.003 2.003 0 01.268-2.055c.303-.366.72-.604 1.074-.917.355-.31.66-.75.605-1.22-.06-.5-.515-.869-.646-1.357-.238-.88.649-2.111 1.481-2.357h.004a.887.887 0 00.641-.705c.302-1.868.522-3.733.675-5.53.82-9.692-4.274-18.776-9.491-27.062-.637-1.011-1.294-2.073-1.35-3.255-.1-2.227 2.104-4.15 4.449-4.546 2.346-.392 4.718.414 6.772 1.499 7.209 3.811 11.799 11.157 13.138 18.862 1.339 7.704-.302 15.714-3.379 23.045a61.709 61.709 0 01-7.421 13c-1.502 2.014-3.009 4.046-4.84 5.814-1.555 1.502-4.076 3.576-6.369 3.859-.977.116-2.144-.011-2.163-1.178zM31.432 112.678c-1.905 4.926-4.273 9.345-5.198 14.636-.533 3.047-.682 6.157-.522 9.245.145 2.774.992 5.586.899 8.346-.023.693-.217 1.536-.88 1.734-.646.193-1.253-.362-1.686-.881-1.935-2.323-3.252-4.892-4.699-7.517a43.939 43.939 0 01-4.217-10.915c-1.824-7.6-1.652-15.711.802-23.151.074-.223.149-.447.227-.667 1.115-3.188 2.689-6.336 5.273-8.513 4.15-3.498 11.724-3.424 13.235 2.834.716 2.964-.914 7.499-1.738 10.374a50.374 50.374 0 01-1.496 4.475z" fill="#000E42"/><path d="M15.86 156.465c.171-.507.078-1.074-.019-1.611-.171-.977-.365-1.965-.567-2.954.496-.999 1.104-2.084.642-3.222-.291-.712-1.182-1.122-1.235-1.939-.044-.652.508-1.171.813-1.749.481-.909.317-2.118-.391-2.867-.295-.31-.66-.541-.947-.854-.288-.317-.489-.765-.34-1.167.12-.321.422-.526.653-.776a1.988 1.988 0 00.369-2.04c-.175-.436-.503-.794-.746-1.201-.242-.402-.403-.913-.205-1.342.213-.459.753-.671 1.03-1.096.495-.765.025-2.208-.69-2.697l-.004-.003a.89.89 0 01-.396-.869 74.493 74.493 0 011.045-5.471c2.177-9.479 9.796-16.576 17.299-22.874.913-.768 1.868-1.577 2.278-2.689.776-2.088-.734-4.594-2.849-5.686-2.114-1.09-4.62-1.048-6.906-.642-8.029 1.432-14.64 7.026-18.265 13.954-3.625 6.929-4.505 15.055-3.815 22.979a61.888 61.888 0 003.099 14.644c.817 2.375 1.63 4.773 2.834 7.014 1.026 1.906 2.79 4.651 4.889 5.616.899.411 2.05.649 2.424-.458zM121.281 97.422c-2.577-4.997-7.555-8.58-13.026-9.878-5.47-1.298-11.355-.403-16.411 2.047-.41.198-.828.418-1.112.776-.354.455-.44 1.066-.414 1.64.123 2.932 2.764 5.285 5.616 5.967 2.853.683 5.848.045 8.659-.79.366 3.837 2.909 7.391 6.422 8.972 3.513 1.581 7.861 1.133 10.974-1.134l-.708-7.6z" fill="#000E42"/><path d="M61.877 85.582c-4.87-2.808-17.695-3.21-22.998-1.342-5.302 1.868-9.766 5.802-12.693 10.602-.24.388-.47.802-.515 1.253-.052.574.205 1.133.537 1.603 1.69 2.398 5.183 2.95 7.95 1.98 2.767-.97 4.941-3.125 6.854-5.347 2.383 3.028 6.444 4.643 10.255 4.072 3.811-.57 7.224-3.3 8.614-6.891l1.996-5.93zM73.75 46.345c.034-.73.09-1.484-.134-2.181-.15-.47-.418-.892-.656-1.32-.772-1.395-3.461-3.148-3.64-4.733l-5.553-1.25c-.35-.077-.727-.156-1.066-.029-.302.112-.526.373-.727.627a22.581 22.581 0 00-3.427 5.977c-.164.43-.329.88-.664 1.197-.794.742-2.092.366-3.02-.194-.933-.555-1.906-1.286-2.98-1.122-.586.98.406 2.13 1.301 2.841 1.578 1.253 3.565 2.581 5.448 1.865 1.03-.392 1.75-1.316 2.41-2.196 1.04-1.391 2.08-2.779 3.124-4.17.455 1.988 2.558 3.446 4.58 3.178-.053 1.737.85 17.385 2.442 16.75.66-.264 4.404-4.515 4.404-4.515.757-3.26-1.905-9.29-1.842-10.725zM60.907 55.843c-.086-.62-.179-1.26-.488-1.801-.295-.515-.761-.903-1.22-1.28-1.122-.924-2.241-1.849-3.363-2.774-.385-.317-.78-.637-1.25-.798-.477-.16-.995-.141-1.499-.123-3.442.146-6.888.287-10.33.433C31.59 63.943 26.735 63.297 20.787 63.324c-.392 0-.79.171-1.056.458-.193.209-.28.489-.361.76-.407 1.358-.597 2.168.447 2.317.675.097 2.536-.66 3.457-.686 1.447-.038 2.89.1 4.333.164.865.037 1.757.033 2.562-.288.962-.384 1.69-1.174 2.417-1.913 3.486-3.55 7.059-5.932 11.705-10.4.712 1.164 3.976 2.469 5.337 2.458 2.27-.02 3.393.607 5.59.04-1.108.284 2.524 9.618 2.971 10.472 1.645 3.147 4.099 6.604 7.127 8.536.242-3.248 3.58-1.66-1.156-8.447-2.264-3.233-2.704-7.059-3.252-10.952z" fill="#000E42"/><path d="M56.242 69.1c-.164-.604-.332-1.227-.705-1.73-.354-.474-.865-.806-1.365-1.123l-3.676-2.342c-.418-.268-.85-.54-1.34-.641-.495-.1-1.006-.019-1.502.063l-10.2 1.69c-9.322 15.695-14.218 15.65-20.117 16.404a1.482 1.482 0 00-.992.581c-.168.232-.22.523-.269.802-.239 1.399-.328 2.223.727 2.245.683.015 2.435-.966 3.345-1.1 1.432-.212 2.88-.25 4.319-.365.865-.071 4.9-.403 5.657-.82.906-.5 3.56-3.223 4.191-4.047 3.815-4.978 3.584-3.803 5.169-9.68.85 1.066 4.243 1.965 5.597 1.786 2.252-.295 3.442.19 5.556-.642-1.063.418 3.68 9.237 4.229 10.032 2.017 2.923 4.874 6.056 8.114 7.603-.156-3.252-.328-5.541-2.181-8.241-2.23-3.252-3.539-6.675-4.557-10.475zM89.95 80.548a202.028 202.028 0 0015.777-11.135c.242-.19.488-.38.772-.5.395-.167.835-.182 1.264-.193 3.065-.101 6.131-.273 9.192-.519 1.611-.13 3.233-.28 4.837-.082 2.599.32 5 1.537 7.23 2.909.291.179.582.365.813.619.28.31.448.705.616 1.085 1.435 3.226 3.367 6.56 6.067 8.99 3.457 3.118 6.567 3.476 10.956 2.693.321-.056.705-.097.925.146.235.257.138.663.026.992-.295.872-.593 1.741-.888 2.614-.119.35-.257.727-.566.928-.243.157-.545.18-.832.183-6.381.09-13.637-5.806-16.997-10.792-.44-.656-.891-1.368-1.611-1.69-1.283-.574-2.506.27-3.752.47-1.406.228-2.744-.104-4.109-.522-2.566-.786-4.833-2.338-6.862-4.09-2.849 3.595-7.633 4.904-11.526 7.331-1.805 1.126-3.435 2.51-5.24 3.64-1.8 1.13-3.844 2.013-5.974 1.969-.022-.825-.04-1.649-.063-2.476l-.056-2.57z" fill="#000E42"/><path d="M100.573 59.86c.5-1.373.865-2.786 1.167-4.211.347-1.64.291-3.069 1.436-4.408 1.22-1.424 3.673-2.636 5.564-1.931 4.986 1.868 10.531 1.14 15.804 1.898.406.06.839.138 1.13.425.272.268.365.66.473 1.025.862 2.942 3.107 5.255 5.378 7.31 3.374 3.057 7.186 5.936 11.664 6.764 2.342.432 4.781.283 7.063.962.407.869-.168 1.95-1.014 2.409-.843.459-1.857.451-2.816.38-3.475-.257-6.865-1.17-10.199-2.181-1.872-.567-3.796-1.197-5.269-2.484-1.689-1.473-2.554-3.587-3.576-5.526-.645-1.223-1.261-2.76-2.413-3.603-1.499-1.1-3.505.138-5.183.358-4.248.556-8.693-.365-12.325-2.643-.481 5.865-3.841 11.067-7.316 15.818-.933 1.276-1.895 2.55-3.107 3.565-2.353 1.97-5.914 3.215-8.934 3.547.425-3.2 1.376-6.329 4.135-8.186 3.815-2.558 6.75-4.736 8.338-9.289z" fill="#000E42"/><path d="M87.152 59.87c.981-2.744 7.54-9.766 8.16-12.611a67.35 67.35 0 00.79-4.296c.246-1.634.03-3.163 1.935-3.726 2.193-.648 4.688-.331 6.944-.376l6.183-.123c1.085-.023 2.185-.041 3.233.23 1.402.363 2.614 1.22 3.845 1.985 3.061 1.902 6.391 3.319 9.71 4.728 1.663.705 3.353 1.421 5.15 1.626 3.375.384 6.791-1.066 10.136-.5.231.992-.88 1.727-1.813 2.133-2.502 1.097-5.004 2.19-7.51 3.286-.365.16-.746.324-1.149.324-.574.004-1.092-.328-1.566-.66-4.023-2.819-7.491-6.5-12.597-7.115-2.733-.328-5.619.615-8.256.22-2.472-.369-4.971-1.25-7.398-1.838-.127 2.953-1.141 5.537-2.659 8.084-3.494 5.862-9.498 10.259-11.553 12.262 0 0-.585-1.552-1.42-2.581l-.165-1.052z" fill="#000E42"/><path d="M116.142 95.61c-2.099 1.119-3.595 2.886-4.348 5.139-.227.682.832.958 1.07.294a8.987 8.987 0 013.752-4.624c.511-.317.056-1.092-.474-.809zM106.939 89.48c-1.156 1.297-1.995 2.953-1.965 4.724.007.504.831.664.917.123.261-1.607.66-3.061 1.644-4.389.258-.343-.313-.78-.596-.459zM40.61 85.705c.358 1.787.171 3.472.067 5.266-.034.544.734.582.902.123.653-1.797.43-3.83-.048-5.642-.16-.597-1.037-.34-.921.253zM29.702 94.797c1.309 1.29 1.94 2.898 1.928 4.728-.004.75 1.067.716 1.141 0 .224-2.08-.697-4.172-2.346-5.451-.503-.392-1.208.246-.723.723zM24.261 97.62c-.611 4.315-3.244 7.768-5.616 11.28-2.442 3.618-4.359 7.373-4.717 11.792-.06.746.996.783 1.223.164.865-2.346 1.391-4.777 2.499-7.037.943-1.928 2.144-3.718 3.289-5.53 2.073-3.282 3.982-6.593 4.273-10.546.041-.53-.872-.664-.95-.123zM55.19 109.221c-1.793-10.192 4.58-9.763 3.715-18.246-.448-4.397 4.236-9.36 8.532-8.32 3.613.876 6.78 4.617 10.31 3.446 1.209-.403 2.156-1.335 3.264-1.958 3.74-2.107 8.89-.075 11.008 3.662 2.114 3.736-.146 6.496-1.708 11.202-1.1 3.308 1.055 8.394 0 11.657-3.93 12.135-33.927 5.333-35.12-1.443z" fill="#2870F6"/><path d="M73.59 66.803c.73.57 2.502-1.093 3.367-.78 2.017.735 4.218-.53 6.34-.38 3.274.231 6.607.817 7.11 4.587.292 2.174-.637 4.27-.626 6.447.011 1.447.299 2.111.53 3.524.253 1.548 2.439 6.366.958 7.503-.678.522-1.86.768-2.644 1.145-2.006.962-5.653.515-7.864.865-1.98.317-3.994.455-5.997.358-3.856-.183-10.273-1.458-12.887-4.493-3.715-4.315 3.96-7.641 3.382-15.308-.291-3.9 4.94-6.112 8.33-3.468zM117.108 102.013c-.522 3.725-.239 6.988 1.335 10.404.765 1.659 1.607 3.274 2.293 4.971 1.104 2.726 1.701 5.575 2.48 8.401.194.709 1.406.601 1.328-.179-.463-4.564-2.182-8.763-4.3-12.783-1.838-3.49-2.517-6.72-2.256-10.691.034-.5-.809-.627-.88-.123z" fill="#2870F6"/><path d="M74.477 43.056c2.148-2.931 5.31-4.654 8.838-3.218 3.39 1.376 6.198 2.01 6.63 4.96.321 2.173-2.047 5.638-2.047 11.847 0 3.952 3.882 9.285.671 11.847-5.451 4.348-6.533 4.8-18.403-.917-5.176-2.495 1.958-9.86 2.764-13.63 1.517-7.09-1.287-7.018 1.547-10.89z" fill="#2870F6"/><path d="M76.603 32.275c.209-1.107.492-2.248 1.22-3.11 1.267-1.5 3.475-1.715 5.44-1.704 1.73.007 3.457.108 5.176.29.287.03.59.072.813.254.31.254.373.694.41 1.093.35 3.822.388 7.697-.194 11.493-1.148 7.518-2.666 7.152-7.932 7.026-4.038-.097-4.99-2.253-5.343-5.52-.351-3.266-.194-6.6.41-9.822z" fill="#2870F6"/><path d="M88.271 14.603c-.09-.209-.186-.425-.365-.582-.235-.201-.57-.264-.888-.313a25.106 25.106 0 00-3.129-.272c-1.64-.041-3.49.179-4.486 1.365-.693.824-1.495 2.853-1.529 3.9-.085 2.603.657 5.176.392 7.772-.082.809-.16 1.64.086 2.424.619 1.976 3.84 2.3 5.716 2.655.485.09 3.838.28 3.886-.507 1.23-.742 1.223-2.085 1.376-3.308.567-4.55.78-8.737-1.059-13.134z" fill="#2870F6"/><path d="M80.81 16.158a15.351 15.351 0 01-5.583-9.446c-.16-.962-.21-2.02.313-2.845.429-.679 1.17-1.081 1.88-1.458 1.085-.574 2.27-1.171 3.486-.98 1.72.264 2.808 1.957 3.52 3.542a28.62 28.62 0 012.286 8.219c.067.559.116 1.14-.06 1.678-.182.552-.589 1-1.036 1.368a6.305 6.305 0 01-3.379 1.399l-1.428-1.477z" fill="#2870F6"/><path d="M74.828.205c-1.22.377-2.309 1.081-3.345 1.827-2.197 1.578-4.4 3.673-4.56 6.373-.038.668.085 1.402.585 1.846.268.239.619.366.958.489l3.502 1.253c.346.123.704.25 1.073.227.444-.026.847-.268 1.198-.544 1.383-1.093 2.36-2.596 3.744-3.714 1.17-.944 2.435-1.97 2.725-3.543.62-3.282-3.165-5.05-5.88-4.214z" fill="#2870F6"/><path d="M61.79 16.34c-.066-1.293.113-2.632.747-3.762.734-1.316 2.017-2.241 3.356-2.942.7-.366 1.454-.69 2.248-.694 1.03-.007 1.992.519 2.782 1.175 1.209 1.003 2.148 2.375 2.465 3.915.313 1.54-.048 3.245-1.104 4.408-.697.772-1.67 1.302-2.189 2.204-.667 1.164-.402 2.625-.018 3.912a25.875 25.875 0 002.868 6.336c-.123-.198-2.152-.433-2.514-.564-.835-.302-1.7-.712-2.405-1.256-1.093-.847-1.372-1.869-2.044-3.017-1.853-3.14-3.997-5.91-4.191-9.714z" fill="#2870F6"/><path d="M65.374 84.56c2.428-.98 5.038-.872 7.298.511 1.432.877 2.667 2.052 4.397 2.283 1.853.246 3.61-.567 5.321-1.134 2.793-.925 5.094-.675 7.507 1.044.28.198.604-.239.362-.47-1.35-1.275-3.166-1.957-5.03-1.935-2.533.034-4.781 1.63-7.299 1.618-2.554-.01-4.169-2.29-6.462-3.084-2.096-.727-4.315-.581-6.35.258-.545.227-.307 1.14.257.91zM78.038 42.664c2.88-1.808 6.538.448 9.57.698.294.026.432-.448.156-.57-2.782-1.231-7.324-2.675-10.072-.724-.358.253-.038.835.346.596zM81.462 28.643c1.969-.22 3.826.045 5.787.142.474.022.537-.672.108-.802-1.913-.59-4.05-.377-5.985-.019-.38.071-.298.724.09.679zM81.182 16.281c1.704.213 3.629-.354 4.792-1.667.287-.324-.157-.776-.477-.477-1.209 1.111-2.551 1.723-4.225 1.495-.474-.063-.567.59-.09.65zM80.235 2.853c1.044 2.651-2.212 4.08-3.42 5.9-.25.376.295.756.604.465 1.746-1.633 4.956-3.848 3.375-6.6-.168-.291-.69-.097-.56.235zM68.947 9.52c1.111.205 1.954.858 2.689 1.69.28.317.727-.086.555-.43-.604-1.204-1.85-1.83-3.147-1.987-.41-.048-.504.653-.097.727z" fill="#000E42"/><path d="M59.065 114.404c.19-.682-.004-1.476.38-2.017.254-.354.634-.559 1.003-.757l1.876-.992c.578-.306 1.23-.619 1.857-.384.712.265 1.111 1.126 1.387 1.917.392 1.115.884 2.524.515 3.673-.973 3.05-3.557 2.483-2.58 8.148.104.608.98 6.336 1.752 6.213-4.467.716-8.424-7.761-6.19-15.801zM83.076 118.01c.004-.723.452-1.439.258-2.133-.127-.455-.422-.82-.705-1.167l-1.443-1.775c-.444-.548-.959-1.133-1.611-1.174-.742-.049-1.373.619-1.868 1.271-.746.977-1.444 2.077-1.652 3.353-.138.85.962 3.3.883 4.158-.507 5.668-.79 6.391-4.385 10.217 6.477 1.287 10.49-6.522 10.523-12.75z" fill="#2870F6"/><path d="M70.528 65.583c3.55-.402 6.052.769 9.226 2.115 1.07.455 1.808.5 2.942.391 1.675-.16 3.054-.003 4.729.172.339.037.473-.5.175-.645-1.369-.668-2.793-.664-4.292-.534-.627.053-1.182.25-1.835.202-1.063-.078-1.995-.664-2.942-1.085-2.551-1.134-5.307-2.029-8.092-1.298-.37.097-.306.727.09.682z" fill="#000E42"/><path d="M77.2 80.205c.436-3.192 1.465-6.142 2.185-9.263.082-.358-.433-.615-.62-.26-1.491 2.855-2.02 6.242-2.401 9.407-.056.474.768.59.835.116zM80.962 59.095c.466-4.523 1.48-8.875 2.413-13.317.115-.544-.656-.76-.835-.23-1.447 4.343-2.07 8.997-2.473 13.543-.056.582.835.57.895.004zM83.807 37.313c-.063-2.566.21-4.99.727-7.5.086-.42-.488-.57-.637-.174-.903 2.42-1.201 5.112-.955 7.674.052.54.88.563.865 0z" fill="#fff"/><path d="M59.542 111.831l1.723-1.051c.384-.235.869-.686 1.29-.791 1.496-.373 2.253 1.391 2.786 2.443.261.518 1.026.063.776-.451-.5-1.026-1.44-2.894-2.734-3.081-.462-.067-.858.161-1.245.373-1.026.56-1.995 1.276-2.976 1.906-.41.261-.037.906.38.652zM78.068 113.152c1.007-.94 2.301-1.563 3.308-.25.563.734 1.089 1.48 1.756 2.125.205.198.541-.056.396-.306-.463-.805-1.048-1.502-1.626-2.226-.362-.455-.675-.91-1.253-1.1-1.171-.384-2.461.265-3.304 1.033-.489.444.242 1.175.723.724z" fill="#000E42"/><path d="M74.906 89.74c-2.316 5.404-3.524 11.244-3.02 17.132.055.649 1.029.671 1.025 0-.03-5.758.843-11.348 3.069-16.68.25-.608-.813-1.063-1.074-.452zM65.83 86.966c-.101-.078-.22-.194-.321-.25-.004-.004-.008-.004-.015-.007-.086-.038-.168-.071-.254-.109l-.03-.01a.493.493 0 01-.067-.027 1.01 1.01 0 00-1.238.701 1.01 1.01 0 000 .537l.023.06.01.03c.016.044.034.09.057.13.018.049.037.094.06.138l.167.216c.004.004.008.008.008.012.007.01.015.018.022.03.019.022.034.044.052.063a.82.82 0 00.347.224.833.833 0 00.414.093.787.787 0 00.414-.093.82.82 0 00.347-.224c.056-.07.112-.145.168-.216.097-.168.145-.35.145-.545-.011-.097-.026-.19-.037-.287a1.043 1.043 0 00-.273-.466zM82.144 90.497l-.03-.063a.431.431 0 00-.138-.18c-.06-.044-.115-.089-.175-.133l-.108-.045a.655.655 0 00-.328-.075c-.075.011-.15.019-.224.03-.07.026-.138.056-.205.086a.484.484 0 00-.179.138l-.134.175c-.011.022-.023.045-.03.071a.884.884 0 000 .902c.16.273.459.444.776.444a.906.906 0 00.775-.444.884.884 0 00.123-.45.955.955 0 00-.123-.456zM88.003 90.963a.744.744 0 00.369-.082.701.701 0 00.31-.197.702.702 0 00.197-.31.707.707 0 00.082-.369 44.882 44.882 0 00-.034-.254.962.962 0 00-.246-.425l-.194-.149a.954.954 0 00-.484-.13.744.744 0 00-.37.082.702.702 0 00-.31.197.701.701 0 00-.197.31.707.707 0 00-.082.37l.034.253a.961.961 0 00.246.425l.194.149c.149.086.313.127.485.13zM85.739 95.07c.667 0 .667-1.037 0-1.037-.671 0-.671 1.036 0 1.036zM66.963 93.365c.668 0 .668-1.037 0-1.037-.667-.003-.671 1.037 0 1.037zM77.957 96.005c.406 0 .406-.63 0-.63-.407 0-.407.63 0 .63zM70.938 70.495c.045-.034.09-.064.135-.098a1.016 1.016 0 00.5-.869.97.97 0 00-.139-.507.99.99 0 00-.361-.361c-.045-.034-.09-.064-.135-.097a1.11 1.11 0 00-1.126 0c-.34.197-.552.57-.552.966 0 .395.213.764.552.966a1.11 1.11 0 001.126 0zM85.198 71.576l-.082-.104a.75.75 0 00-.324-.21.732.732 0 00-.388-.085c-.09.011-.179.022-.269.037a1.024 1.024 0 00-.443.258l-.082.104c-.06.075-.116.153-.176.227l-.111.269a.83.83 0 00-.02.447c0 .101.027.198.08.284a.548.548 0 00.145.25.523.523 0 00.201.201c.07.07.153.12.25.145.134.071.28.105.432.097l.299-.04.268-.112c.075-.06.153-.116.228-.176.06-.074.115-.153.175-.227l.112-.269a.83.83 0 00.019-.447.54.54 0 00-.079-.284.908.908 0 00-.235-.365zM74.13 75.752c.657 0 .66-1.021 0-1.021s-.66 1.022 0 1.022zM76.677 46.927a.44.44 0 00.045.04.692.692 0 00.302.195c.112.06.235.086.362.082l.25-.034a.964.964 0 00.417-.242.43.43 0 01.045-.041c.052-.067.105-.134.157-.205.033-.082.067-.16.1-.243a.778.778 0 00.019-.402.506.506 0 00-.067-.254.488.488 0 00-.13-.224.514.514 0 00-.18-.179.522.522 0 00-.223-.13.731.731 0 00-.388-.086c-.09.011-.18.022-.269.037l-.242.101c-.067.052-.134.104-.205.157a9.625 9.625 0 00-.157.205l-.1.242a.778.778 0 00-.02.403c0 .09.023.175.068.253a.802.802 0 00.216.325zM86.675 47.714c.1.003.198-.02.284-.064a.559.559 0 00.238-.153.559.559 0 00.153-.238.575.575 0 00.063-.284c-.007-.067-.018-.13-.026-.197a.714.714 0 00-.19-.329.759.759 0 00-.522-.216.564.564 0 00-.283.064.559.559 0 00-.239.152.559.559 0 00-.153.239.574.574 0 00-.063.283c.007.068.018.13.026.198a.712.712 0 00.19.328c.145.13.324.217.522.217zM77.956 52.785c.608 0 .608-.943 0-.943s-.608.943 0 .943zM84.78 52.1c.497 0 .497-.773 0-.773-.495 0-.495.772 0 .772zM87.548 32.19l-.045-.176-.067-.157a.485.485 0 00-.172-.186.322.322 0 00-.145-.086.496.496 0 00-.254-.056l-.175.023-.157.067a.485.485 0 00-.186.171.503.503 0 00-.12.224c-.014.06-.03.12-.044.175-.06.239-.004.519.182.69.139.127.31.209.5.209a.521.521 0 00.272-.06.543.543 0 00.228-.145.725.725 0 00.183-.694zM80.612 34.666c.507 0 .507-.787 0-.787-.508 0-.508.787 0 .787zM85.847 17.978c.455 0 .455-.709 0-.709s-.455.709 0 .709zM82.733 21.879c.68 0 .68-1.056 0-1.056-.678 0-.678 1.056 0 1.056z" fill="#fff"/><path d="M57.2 55.959c.761-.045 1.507-.213 2.133-.664.504-.362.079-1.067-.48-.824-.53.227-1.075.447-1.653.514-.608.075-.637 1.011 0 .974zM51.678 69.331c.906-.201 1.793-.544 2.494-1.167.504-.448-.138-1.115-.67-.869-.713.325-1.388.668-2.153.854-.768.186-.443 1.354.329 1.182zM70.245 44.86c.421-.14.798-.324 1.126-.63.298-.275.641-.678.705-1.092.108-.679-.578-1.074-1.115-.649-.24.19-.414.481-.63.701-.22.224-.44.448-.687.642-.485.38.045 1.215.6 1.029zM98.817 41.322c.813.582 2.01.984 2.983 1.17.578.113.903-.614.399-.95-.824-.552-1.958-1.108-2.942-1.264-.641-.101-.985.656-.44 1.044zM105.35 50.91c-.108.943.209 2.036 1.018 2.591.478.328 1.071-.31.783-.783-.369-.6-.708-1.07-.675-1.809.03-.738-1.044-.7-1.126 0zM107.58 70.975c.791 1.048 1.91 1.735 3.259 1.66.709-.041.933-1.119.176-1.294-.865-.201-1.69-.585-2.305-1.238-.548-.574-1.629.213-1.13.873zM34.964 31.376c5.478-.097 6.772-6.04 7.156-10.411h-1.648c.5 3.9 1.976 9.486 7.059 8.927l-.246-1.808c-5.27.805-5.053 8.55-5.65 12.496h1.73c-.6-2.764-.798-5.747-2.58-8.089-1.454-1.909-3.64-3.058-6.026-2.476-.981.239-.563 1.7.414 1.503 4.855-.98 6.578 5.72 6.429 9.297-.041.988 1.603 1.249 1.763.238.336-2.133.634-4.273 1.011-6.399.366-2.066 1.007-4.434 3.4-4.8 1.015-.156.788-1.92-.245-1.808-4.076.451-4.997-4.28-5.437-7.305-.142-.97-1.559-.649-1.619.22-.25 3.569-.883 8.942-5.504 9.2-.783.048-.794 1.23-.007 1.215zM97.24 25.716c3.151-.396 4.053-3.32 4.176-6.108-.488.067-.977.134-1.47.197.247 1.443.254 3.326 1.451 4.367 1.007.876 2.458.88 3.711.813-.071-.537-.146-1.07-.216-1.607-1.41.578-2.749 1.238-3.301 2.755-.641 1.76.045 3.674-.63 5.434.53.07 1.063.145 1.592.216-.145-1.697-.283-3.759-1.133-5.27-.832-1.476-2.275-1.48-3.77-1.815-.567-.127-1.01.734-.418.992 1.328.581 2.528.436 3.188 2.17.455 1.197.47 2.663.515 3.923.034.95 1.272 1.055 1.592.216.388-1.014.414-1.991.399-3.073-.026-1.976.414-3.162 2.402-3.967.776-.317.787-1.682-.216-1.607-1.197.089-2.491.234-3.152-1.097-.399-.805-.41-1.969-.57-2.841-.157-.854-1.443-.616-1.47.197-.059 2.066-.514 4.415-2.837 4.964-.623.145-.507 1.227.157 1.14zM90.449 126.923c4.124-.496 5.284-4.516 5.422-8.111-.489.067-.977.135-1.47.198.318 1.853.325 4.37 1.824 5.739 1.32 1.208 3.278 1.19 4.949 1.093-.071-.537-.146-1.071-.217-1.608-1.909.772-3.729 1.682-4.381 3.789-.727 2.349.168 4.852-.768 7.164l1.592.216c-.172-2.271-.37-5.016-1.47-7.052-1.08-2.006-3.02-1.868-4.974-2.412-.574-.161-.996.738-.418.992 1.73.757 3.662.522 4.39 2.684.618 1.839.771 3.864.85 5.788.037.962 1.256 1.04 1.592.216.623-1.544.537-3.117.522-4.751-.022-2.733.996-4.042 3.498-5.049.779-.313.787-1.682-.216-1.607-1.462.108-3.468.298-4.345-1.193-.712-1.216-.742-3.054-.988-4.401-.156-.854-1.447-.615-1.47.198-.078 2.871-.782 6.306-4.082 6.966-.627.127-.496 1.223.16 1.141zM35.03 140.102c6.732-.034 8.343-7.5 8.809-12.814H41.81c.604 4.74 2.435 11.751 8.69 10.986l-.303-2.226c-2.666.384-4.389 2.547-5.187 4.99-1.07 3.281-1.25 6.988-1.768 10.392h2.13c-.694-3.419-1.018-7.107-3.204-9.99-1.745-2.297-4.512-3.777-7.39-3.009-1.198.321-.69 2.118.51 1.85 5.967-1.339 8.063 7.133 7.913 11.444-.04 1.216 1.973 1.54 2.17.295.418-2.659.799-5.325 1.261-7.977.436-2.506 1.253-5.388 4.166-5.806 1.249-.179.97-2.379-.303-2.226-4.978.608-6.156-5.299-6.693-8.991-.175-1.193-1.92-.802-1.995.268-.299 4.341-1.108 11.083-6.776 11.322-.955.041-.966 1.499 0 1.492z" fill="#2870F6"/></g><defs><clipPath id="clip0_12321_7801"><path fill="#fff" transform="translate(2.405)" d="M0 0h155.189v160H0z"/></clipPath></defs></svg>