<svg width="160" height="160" viewBox="0 0 160 160" fill="none" xmlns="http://www.w3.org/2000/svg"><g clip-path="url(#clip0_12319_26456)"><path d="M22.609 45.272c4.138-6.982 9.193-13.257 14.897-18.339 43.233-38.523 131.731 4.537 119.908 64.29-4.183 21.148-27.928 43.612-47.426 52.349-10.089 4.52-21.642 4.987-32.536 3.093-20.996-3.648-48.717-12.009-60.05-32.333-11.925-21.391-6.759-48.872 5.207-69.06z" fill="#CDF3F1"/><path d="M66.535 46.756c-1.143-5.024-3.905-9.599-7.499-13.29-6.765-6.945-16.526-8.761-26.206-8.227 0 0-13.923-7.232-25.206 5.826-9.29 10.751-6.332 24.008-4.994 35.2.562 4.703.893 9.49-.037 14.17-1.447 7.306-4.361 15.214-1.122 21.959 1.805 3.763 5.284 6.323 8.94 7.675 5.247 1.944 12.965 3.81 18.233.639 7.246-4.361 5.078-15.776 4.341-22.7-.128-1.2-.274-2.397-.43-3.59 1.11.374 2.222.723 3.341 1.047 4.676 1.356 9.677 2.343 14.376 1.072 5.197-1.403 9.38-5.467 11.946-10.2 2.562-4.734 3.681-10.11 4.402-15.445.625-4.693.967-9.514-.085-14.136z" fill="#0E423F"/><path d="M54.678 42.26c-2.39-4.474-6.407-8.085-11.15-9.894-7.026-2.677-14.018-.936-20.385 2.526-4.365 2.377-7.137 5.268-8.841 8.27a17.273 17.273 0 00-.896 1.809c-1.316 2.816-1.758 5.64-1.68 8.463.023.943.108 1.883.23 2.833a99.73 99.73 0 00.625 3.09c1.68 7.908 3.84 15.374 7.178 22.74a30.623 30.623 0 001.873 2.669c.676.865 1.4 1.703 2.157 2.518 2.593 2.313 5.849 4.027 9.186 4.734a16.41 16.41 0 002.005.3 24.233 24.233 0 003.05-.145c7.668.007 14.673-4.02 18.325-10.035.524-.862.984-1.768 1.38-2.718a40.38 40.38 0 00.713-3.12c.2-1.049.358-2.1.483-3.159 1.309-9.646.372-19.19-3.12-28.447a27.352 27.352 0 00-1.133-2.435z" fill="#CDF3F1"/><path d="M22.541 60.084c-2.715-2.56-4.902-9.426-2.928-14.096.413 3.395.217 6.15 1.796 9.336 2.552 5.142 7.925 4.405 10.474 2.87-1.812-1.582-2.941-3.367-3.181-3.787-1.887-3.26-3.649-7.134-3.726-11.012.01.575.612 1.518.835 2.083.31.781.622 1.565.95 2.34.66 1.562 1.376 3.107 2.268 4.55 1.779 2.881 4.484 5.38 7.953 5.846 1.15.156 2.316.17 3.475.183 3.892.054 7.756-.477 11.6-1.021 1.481-.21 4.518-.39 4.518-.39s.547-4.046-.024-6.01c-.629-2.161-1.217-4.477-2.188-6.516-2.633-5.524-7.127-11.32-12.878-13.818-7.52-3.266-20.198-.237-26.416 4.953-4.402 3.675-7.607 15.76-5.599 21.71.825 2.44 2.52 4.196 4.67 4.95.52.185 9.331-1.292 8.401-2.171zM20.932 71.123c3.07 1.004 7.144.253 8.943-2.688.32-.528-.345-1.268-.883-.883-1.143.815-2.096 1.748-3.455 2.215a8.187 8.187 0 01-4.308.28c-.703-.145-.987.85-.297 1.076zM40.833 66.59c3.06 1.855 6.785 1.95 9.595-.43.588-.497-.176-1.478-.822-1.065-2.644 1.683-5.331 1.91-8.155.436-.7-.365-1.298.646-.618 1.058zM35.156 69.169c.2.841.21 1.646.05 2.498-.084.457-.432 1.096-.236 1.562.436 1.025 2.231 1.184 3.127 1.035.714-.118.443-1.092-.155-1.16-.558-.064-1.106-.196-1.664-.263-.47-.058-.341.04-.27-.315.05-.25.145-.49.19-.744.161-.95.04-1.917-.237-2.833-.16-.514-.927-.304-.805.22z" fill="#0E423F"/><path d="M37.844 80.772c.196.075.706.146.91.095a.655.655 0 00.337-.233c.934-1.16 2.563-1.606 4.047-1.576.055.65-.317 1.545-.78 2.009-1.488 1.487-3.676 2.258-5.768 2.1-1.13-.085-2.648-.883-2.648-.883s2.164-2.167 3.902-1.512z" fill="#29A49D"/><path d="M20.753 87.416c6.63 5.325 16.398 8.602 24.404 4.166.507-.281.166-1.126-.399-.944-3.608 1.153-7.158 1.884-10.961 1.414-4.595-.565-8.821-2.594-12.483-5.363-.416-.31-.97.4-.561.727z" fill="#0E423F"/><path d="M65.906 34.483c1.478 2.373 2.77 4.811 3.885 7.144 5.173 10.806 7.043 22.68 6.755 34.598-.29 12.05-4.003 23.883-16.496 28.079-5.359 1.799-16.313 3.361-17.537-4.51-.791-5.078 3.036-10.63 5.94-14.437 4.75-6.224 6.756-12.635 6.478-20.543-.206-5.93-7.07-11.874-14.305-19.343-.422-.436-.987-1.007-1.646-1.684-.707-.743-1.488-1.447-2.306-2.14-5.673-4.496-19.424-2.623-17.196-10.413 4.43-15.489 22.704-14.092 30.463-11.34 6.81 2.407 12.043 8.283 15.965 14.589z" fill="#0E423F"/><path d="M6.79 48.349c-.464-6.945 5.503-13.825 10.622-17.605 12.966-9.582 41.066-4.582 42.956 12.158.125 1.105.125 1.575 0 2.962-.416-1.356-2.231-3.216-2.989-4.027a18.929 18.929 0 00-3.327-2.84c-2.302-1.542-4.94-2.566-7.532-3.51-15.08-5.484-32.908-.304-39.339 15.144a11.163 11.163 0 01-.392-2.282zM5.254 60.757a80.358 80.358 0 01.822 16.736C5.785 82.564 4.47 87.609 4.56 92.697c.074 4.054 1.43 7.922 4.642 10.535 2.962 2.411 6.843 3.523 10.63 3.365.67-.027.673-1.018 0-1.045-4.006-.152-8.135-1.349-10.971-4.324-3.216-3.375-3.378-8.132-2.942-12.51.46-4.622 1.197-9.16 1.251-13.822.054-4.811-.422-9.578-1.325-14.302-.081-.388-.653-.22-.592.163zM27.647 96.02c.135 3.06-.305 5.985-1.086 8.94-.165.622.737.852.95.264 1.069-2.955 1.346-6.083 1.079-9.2-.054-.598-.97-.615-.943-.003zM7.895 57.285c.558 3.496 1.318 6.998 2.552 10.322.2.54 1.042.335.883-.244-.95-3.425-1.9-6.826-2.566-10.319-.112-.57-.96-.324-.87.24z" fill="#29A49D"/><path d="M14.214 47.392c-1.271 3.979-.28 8.854 3.09 11.539.325.26.74-.139.46-.46-2.668-3.087-3.986-6.853-2.935-10.91.105-.4-.49-.562-.615-.17zM21.973 46.168c-.223 3.144.815 6.478 3.3 8.52.372.307.852-.162.534-.534-2.008-2.333-3.252-4.849-3.154-7.99.017-.44-.65-.43-.68.004zM32.542 47.446c.734 2.948 3.314 5.747 6.489 5.876.341.013.392-.487.077-.585-2.836-.862-5.152-2.471-5.994-5.45-.102-.365-.666-.213-.572.159zM36.623 46.827c2.8 3.347 6.478 7.668 11.34 7.236.426-.038.605-.741.108-.812-4.746-.696-7.762-3.58-10.812-7.06-.382-.44-1 .197-.636.636zM41.347 43.683c2.12 2.529 5.098 4.997 8.418 5.65.382.074.666-.46.28-.663-3.032-1.586-5.764-2.986-8.063-5.623-.382-.44-1.004.196-.635.636zM64.574 45.938c4.953 12.226 6.07 25.878 2.228 38.577-.859 2.837-2.005 5.748-4.118 7.895-2.414 2.455-7.29 3.837-8.168-.795-.666-3.506 1.744-6.758 3.185-9.747 1.355-2.816 2.038-5.694 2.843-8.69.25-.926.872-2.085 1.731-1.017.42.52.599 1.538.737 2.184.328 1.498.315 3.073.007 4.575-.619 3.022-2.37 5.744-4.97 7.424-.544.352-.05 1.221.514.876 4.973-3.036 7.597-10.278 4.676-15.624-1.485-2.718-3.452-.172-3.861 1.779-.426 2.025-.954 4-1.711 5.927-.846 2.147-2.036 4.111-3.006 6.2-1.298 2.797-2.428 6.813.108 9.319 2.249 2.221 5.772 1.173 7.942-.582 2.732-2.208 4.186-5.606 5.194-8.882 1.227-3.993 1.954-8.148 2.245-12.314.652-9.358-.991-18.859-5.035-27.335-.142-.298-.67-.085-.54.23z" fill="#29A49D"/><path d="M58.603 52.68c1.035 4.361 1.028 8.57.839 13.01-.017.378.598.473.67.091.807-4.362.26-9.024-.809-13.294-.115-.453-.808-.26-.7.193zM49.14 92.268c-1.684 4.044.77 8.53 5.186 8.987.528.054.64-.812.125-.927-3.665-.808-5.88-4.22-4.615-7.867.16-.45-.524-.612-.696-.193zM73.064 72.807c.05 4.875-.71 9.595-1.897 14.308-.091.365.436.504.558.156 1.623-4.629 2.174-9.579 2.005-14.464-.014-.43-.67-.433-.666 0zM11.8 73.064c-.392 5.531-1.16 11.242-.68 16.787.352 4.074 1.765 8.966 5.636 11.062 1.346.73 3.452 1.167 4.693.01 1.177-1.095 1.234-3.431 1.184-4.922a10.945 10.945 0 00-1.721-5.532c-.795-1.227-2.3-3.158-3.868-3.354-1.853-.233-2.076 1.914-1.785 3.233.493 2.255 1.734 4.364 3.63 5.686.393.274.738-.297.474-.615-1.278-1.555-2.924-3.516-3.114-5.616-.101-1.122.663-1.809 1.657-.95.3.26.582.551.845.852.65.737 1.194 1.586 1.63 2.465.855 1.724 1.295 3.76 1.105 5.677-.131 1.339-.442 2.644-2.086 2.549-1.203-.068-2.38-.72-3.27-1.488-3.32-2.867-3.975-7.776-4.04-11.9-.074-4.64.271-9.309.41-13.944.01-.45-.666-.443-.7 0z" fill="#29A49D"/><path d="M53.836 36.261a.874.874 0 00.453-.101.892.892 0 00.379-.243.872.872 0 00.243-.38.868.868 0 00.102-.452l-.041-.311a1.176 1.176 0 00-.3-.518c-.079-.06-.16-.121-.238-.182a1.176 1.176 0 00-.591-.16.875.875 0 00-.453.102.892.892 0 00-.379.244.871.871 0 00-.243.378.868.868 0 00-.102.454l.04.31c.058.2.156.373.302.518l.236.182c.183.105.379.156.592.16zM50.398 34.27c.016-.044.037-.091.054-.135a.822.822 0 000-.443.828.828 0 00-.582-.581.82.82 0 00-.443 0c-.044.016-.091.037-.135.053a.899.899 0 00-.626.626.904.904 0 00.23.872.904.904 0 00.873.23.901.901 0 00.395-.23.82.82 0 00.234-.392zM48.01 31.514c.836 0 .839-1.298 0-1.298-.838 0-.838 1.298 0 1.298zM44.728 32.752c.618 0 .622-.964 0-.964-.623.004-.623.964 0 .964zM42.266 29.912c.582 0 .585-.906 0-.906s-.585.906 0 .906zM39.45 32.312c.656 0 .66-1.02 0-1.02-.656 0-.656 1.02 0 1.02zM56.568 38.381c.619 0 .622-.963 0-.963s-.622.963 0 .963zM36.052 30.121c.703 0 .706-1.095 0-1.095-.703.003-.707 1.095 0 1.095zM8.97 43.54c.02 0 .02-.03 0-.03s-.02.03 0 .03zM9.673 42.72c.02 0 .02-.031 0-.031s-.02.03 0 .03zM8.923 44.41c2.397-2.78 4.797-5.633 7.79-7.8a30.654 30.654 0 014.51-2.688c2.126-1.042 4.456-1.694 6.542-2.796.314-.166.095-.64-.237-.562-2.262.541-4.564 1.745-6.63 2.803-1.674.855-3.3 1.799-4.808 2.921-2.948 2.201-5.27 4.977-7.282 8.034-.044.067.06.152.115.087z" fill="#fff"/><path d="M10.81 39.497c5.148-5.829 12.238-10.312 20.082-11.1.524-.05.545-.859 0-.832-3.908.19-7.81 1.894-11.16 3.834-3.462 2.005-6.729 4.724-9.024 8.017-.044.06.054.135.101.081z" fill="#fff"/><path d="M93.465 71.86c1.143-5.024 3.905-9.599 7.499-13.29 6.765-6.945 16.526-8.764 26.21-8.23 0 0 13.923-7.232 25.205 5.825 9.291 10.752 6.333 24.012 4.994 35.2-.561 4.703-.893 9.491.037 14.17 1.447 7.306 4.362 15.215 1.123 21.96-1.806 3.763-5.285 6.322-8.94 7.675-5.247 1.944-12.966 3.81-18.234.639-7.245-4.362-5.078-15.776-4.341-22.701.129-1.2.274-2.397.43-3.59a80.617 80.617 0 01-3.341 1.048c-4.676 1.356-9.676 2.343-14.376 1.072-5.197-1.403-9.379-5.467-11.945-10.201-2.563-4.733-3.682-10.11-4.402-15.444-.63-4.69-.97-9.511.081-14.133z" fill="#0E423F"/><path d="M105.322 67.363c2.391-4.473 6.407-8.084 11.151-9.893 7.026-2.677 14.018-.936 20.384 2.526 4.368 2.377 7.141 5.268 8.841 8.267.342.598.639 1.203.896 1.808 1.316 2.817 1.758 5.64 1.681 8.463a28.036 28.036 0 01-.23 2.834c-.193 1.038-.403 2.069-.626 3.09-1.68 7.908-3.841 15.373-7.178 22.74a30.564 30.564 0 01-1.873 2.668 38.422 38.422 0 01-2.157 2.519c-2.593 2.313-5.849 4.027-9.186 4.733-.666.142-1.339.244-2.005.301a24.34 24.34 0 01-3.05-.145c-7.668.007-14.673-4.02-18.325-10.035a20.024 20.024 0 01-1.379-2.718 40.171 40.171 0 01-.714-3.121 45.557 45.557 0 01-.483-3.158c-1.309-9.646-.372-19.19 3.121-28.448.392-.943.781-1.775 1.132-2.43z" fill="#CDF3F1"/><path d="M137.459 85.191c2.715-2.56 4.902-9.426 2.928-14.095-.413 3.394-.217 6.15-1.796 9.335-2.552 5.142-7.925 4.405-10.474 2.87 1.812-1.582 2.941-3.367 3.182-3.786 1.886-3.26 3.648-7.134 3.725-11.012-.01.574-.612 1.518-.835 2.082-.311.781-.622 1.566-.95 2.34-.659 1.562-1.376 3.107-2.268 4.55-1.779 2.882-4.484 5.38-7.953 5.847-1.149.155-2.316.169-3.475.182-3.892.054-7.756-.477-11.601-1.02-1.48-.21-4.517-.39-4.517-.39s-.547-4.047.024-6.011c.629-2.16 1.217-4.477 2.188-6.515 2.63-5.528 7.123-11.32 12.875-13.822 7.519-3.266 20.198-.237 26.415 4.953 4.403 3.675 7.608 15.76 5.599 21.71-.825 2.44-2.518 4.196-4.669 4.95-.514.186-9.328-1.289-8.398-2.168zM138.774 95.152c-1.44.29-2.911.2-4.307-.28-1.36-.467-2.316-1.4-3.456-2.215-.537-.382-1.207.358-.882.882 1.798 2.942 5.873 3.692 8.942 2.688.683-.223.406-1.217-.297-1.075zM118.549 90.635c-2.813 1.467-5.511 1.247-8.155-.436-.639-.406-1.417.561-.822 1.065 2.81 2.38 6.536 2.285 9.595.43.68-.41.082-1.424-.618-1.06zM124.043 94.053c-.281.916-.396 1.883-.237 2.834.044.256.136.493.19.743.077.369.169.156-.122.274-.534.217-1.248.24-1.812.305-.595.07-.879 1.044-.156 1.16.899.148 2.691-.011 3.128-1.035.186-.433-.119-.991-.207-1.41a5.93 5.93 0 01.021-2.648c.118-.524-.65-.737-.805-.223z" fill="#0E423F"/><path d="M122.156 105.877c-.196.074-.706.145-.909.094a.654.654 0 01-.338-.233c-.934-1.16-2.563-1.606-4.047-1.576-.055.649.317 1.545.781 2.009 1.487 1.487 3.675 2.258 5.768 2.099 1.129-.084 2.647-.882 2.647-.882s-2.164-2.167-3.902-1.511z" fill="#29A49D"/><path d="M137.388 111.783c-5.904 5.234-14.826 6.225-22.146 3.963-.558-.173-.909.659-.399.943 3.567 1.978 8.115 1.924 12.02 1.2 4.104-.757 8.124-2.576 11.177-5.453.436-.409-.209-1.045-.652-.653z" fill="#0E423F"/><path d="M94.094 59.59c-1.478 2.374-2.77 4.811-3.885 7.144-5.173 10.806-7.043 22.68-6.755 34.598.29 12.05 4.003 23.884 16.496 28.08 5.359 1.798 16.313 3.36 17.537-4.511.791-5.078-3.036-10.629-5.94-14.436-4.751-6.225-6.756-12.635-6.478-20.544.206-5.93 7.069-11.874 14.305-19.342.422-.436.987-1.008 1.646-1.684.707-.744 1.488-1.447 2.306-2.14C129 62.258 142.75 64.13 140.522 56.34c-4.429-15.488-22.704-14.092-30.463-11.34-6.809 2.407-12.043 8.284-15.965 14.59z" fill="#0E423F"/><path d="M153.211 73.456c.46-6.945-5.508-13.825-10.623-17.605-12.966-9.582-41.066-4.581-42.956 12.158-.125 1.106-.125 1.576 0 2.962.416-1.356 2.231-3.215 2.989-4.027a18.88 18.88 0 013.327-2.84c2.302-1.542 4.939-2.566 7.533-3.51 15.079-5.483 32.907-.304 39.338 15.144.216-.76.341-1.521.392-2.282zM154.161 85.699c-.903 4.723-1.376 9.49-1.325 14.301.05 4.659.791 9.2 1.251 13.822.436 4.399.26 9.112-2.942 12.51-2.813 2.985-6.985 4.175-10.971 4.324-.673.024-.673 1.014 0 1.045 3.705.155 7.512-.903 10.444-3.216 3.327-2.62 4.75-6.535 4.824-10.687.092-4.98-1.19-9.916-1.494-14.88a80.297 80.297 0 01.801-17.06c.058-.376-.514-.548-.588-.16zM131.978 121.362c-.869 3.323-.849 7.117.467 10.325.209.514.984.335.852-.237-.781-3.374-1.089-6.423-.497-9.865.094-.528-.68-.764-.822-.223zM151.24 82.152c-.666 3.496-1.62 6.894-2.566 10.319-.159.575.679.784.882.243 1.234-3.327 1.995-6.826 2.553-10.322.088-.565-.761-.815-.869-.24z" fill="#29A49D"/><path d="M145.025 72.076c1.052 4.054-.267 7.82-2.934 10.911-.281.325.135.72.46.46 3.37-2.685 4.361-7.56 3.09-11.54-.125-.388-.72-.23-.616.17zM137.344 71.275c.101 3.138-1.146 5.653-3.155 7.99-.321.371.159.841.535.534 2.485-2.046 3.523-5.38 3.299-8.52-.027-.436-.693-.447-.679-.004zM126.886 72.394c-.842 2.979-3.161 4.588-5.994 5.45-.311.095-.267.599.078.585 3.174-.128 5.754-2.928 6.488-5.876.094-.372-.467-.527-.572-.159zM122.741 71.299c-3.049 3.479-6.062 6.363-10.812 7.06-.491.07-.318.774.108.81 4.862.434 8.54-3.887 11.34-7.234.365-.44-.25-1.076-.636-.636zM118.018 68.151c-2.296 2.634-5.031 4.034-8.064 5.623-.382.2-.105.737.281.662 3.32-.652 6.299-3.117 8.419-5.65.368-.439-.254-1.074-.636-.635zM95.913 71.546c-3.618 7.583-5.315 15.982-5.163 24.373a56.826 56.826 0 001.542 12.199c.828 3.459 1.9 7.07 4.09 9.933 1.85 2.418 5.197 4.801 8.389 3.567 3.077-1.19 3.405-4.993 2.59-7.746-1.194-4.02-3.756-7.461-4.95-11.515-.395-1.339-.933-7.388-3.733-5.968-1.146.582-1.565 2.58-1.791 3.713a12.536 12.536 0 00-.014 4.736c.636 3.422 2.624 6.404 5.596 8.22.561.341 1.058-.524.514-.876-2.279-1.471-3.92-3.743-4.7-6.339a11.637 11.637 0 01-.497-3.824c.044-1.072.216-3.395 1.058-4.186 1.464-1.376 1.863 2.306 2.056 3.11.392 1.62.906 3.212 1.538 4.754 1.194 2.925 3.219 5.646 3.939 8.74.385 1.653.385 3.645-.747 5.018-1.407 1.7-3.743 1.274-5.444.284-2.677-1.566-4.277-4.592-5.304-7.401-2.212-6.053-3.097-12.662-2.969-19.083.149-7.384 1.775-14.643 4.544-21.476.125-.315-.399-.538-.544-.233z" fill="#29A49D"/><path d="M99.74 77.506c-1.072 4.267-1.616 8.933-.808 13.295.071.378.686.29.67-.092-.19-4.442-.197-8.645.838-13.01.105-.453-.588-.646-.7-.193zM110.654 117.362c1.268 3.648-.953 7.063-4.615 7.867-.511.112-.409.981.125.927 4.419-.453 6.874-4.94 5.187-8.987-.173-.416-.852-.257-.697.193zM87.301 97.914c-.169 4.886.382 9.836 2.005 14.464.122.348.653.213.558-.155-1.187-4.717-1.947-9.433-1.897-14.309.004-.433-.652-.43-.666 0zM148.995 98.432c-.196 4.588-.2 9.213-.578 13.787-.338 4.081-1.305 8.815-4.676 11.526-1.762 1.417-5.187 2.475-5.471-.75-.172-1.958.376-3.987 1.282-5.714a11.25 11.25 0 011.545-2.232 9.979 9.979 0 011.028-1.007c.388-.605.835-.66 1.339-.163.706.068.899.396.574.991.024.805-.815 2.025-1.257 2.691-.643.964-1.461 1.83-2.259 2.668-.301.318.085.849.473.615 1.792-1.065 3.013-2.765 3.763-4.699.45-1.157.957-3.107-.426-3.861-1.433-.781-3.205.94-4.121 1.876a10.74 10.74 0 00-2.806 5.329c-.321 1.616-.497 3.851.226 5.399.69 1.481 2.401 1.68 3.851 1.393 4.287-.852 6.58-5.744 7.411-9.582 1.282-5.91.788-12.273.795-18.274.003-.443-.673-.44-.693.007z" fill="#29A49D"/><path d="M106.164 61.365a.875.875 0 00.453-.101.888.888 0 00.379-.244.867.867 0 00.243-.378.87.87 0 00.102-.453l-.041-.311a1.166 1.166 0 00-.301-.518c-.078-.06-.159-.121-.236-.182a1.18 1.18 0 00-.592-.16.876.876 0 00-.453.102.888.888 0 00-.379.244.868.868 0 00-.243.378.86.86 0 00-.102.454l.041.31c.057.2.155.373.301.518l.236.182c.183.105.382.16.592.16zM110.705 58.272l-.135-.054a.82.82 0 00-.443 0 .83.83 0 00-.582 1.024l.054.135a.906.906 0 00.23.396c.112.111.244.19.396.23a.904.904 0 00.872-.23.896.896 0 000-1.268.818.818 0 00-.392-.233zM111.993 56.622c.835 0 .838-1.298 0-1.298-.839-.004-.839 1.298 0 1.298zM115.273 57.86c.618 0 .622-.964 0-.964-.619 0-.619.963 0 .963zM117.737 55.016c.582 0 .585-.906 0-.906-.585.003-.585.906 0 .906zM120.55 57.42c.656 0 .66-1.021 0-1.021-.659 0-.659 1.02 0 1.02zM103.432 63.485c.619 0 .622-.963 0-.963-.619 0-.619.963 0 .963zM123.948 55.229c.703 0 .707-1.096 0-1.096-.703 0-.703 1.096 0 1.096zM151.03 68.648c.021 0 .021-.03 0-.03-.02 0-.02.03 0 .03zM150.327 67.827c.02 0 .02-.03 0-.03s-.02.03 0 .03zM151.192 69.43c-2.011-3.057-4.334-5.833-7.282-8.03-1.508-1.127-3.134-2.067-4.808-2.922-2.069-1.058-4.365-2.259-6.63-2.803-.328-.078-.555.392-.237.561 2.086 1.103 4.416 1.755 6.542 2.797a29.907 29.907 0 014.511 2.687c2.988 2.174 5.389 5.021 7.79 7.8.054.058.162-.023.114-.09z" fill="#fff"/><path d="M149.292 64.523c-2.295-3.293-5.561-6.011-9.024-8.016-3.35-1.94-7.252-3.645-11.16-3.834-.541-.027-.524.78 0 .831 7.844.785 14.93 5.272 20.083 11.1.047.055.145-.02.101-.08z" fill="#fff"/><path d="M73.98 32.833c6.867-.01 8.46-7.732 8.92-13.101h-1.837c.612 4.79 2.465 11.972 8.798 11.17l-.274-2.011c-2.725.372-4.483 2.647-5.268 5.136-1.061 3.364-1.254 7.123-1.782 10.599h1.928c-.63-3.442-1.001-7.188-3.135-10.102-1.748-2.39-4.611-4.007-7.58-3.202-1.078.29-.625 1.924.46 1.673 6.245-1.453 8.371 7.422 8.294 11.898-.02 1.096 1.785 1.4 1.96.267.437-2.796.822-5.605 1.323-8.388.463-2.57 1.362-5.498 4.344-5.903 1.133-.156.876-2.157-.274-2.012-5.2.66-6.44-5.525-6.995-9.366-.155-1.078-1.734-.723-1.802.244-.314 4.5-1.187 11.55-7.083 11.752-.86.027-.866 1.35.003 1.346zM47.361 118.667c3.46-.45 4.4-3.868 4.514-6.884-.318.044-.636.085-.953.129.274 1.592.267 3.77 1.589 4.922 1.109.967 2.718.934 4.094.849l-.142-1.045c-1.521.619-3.026 1.339-3.61 2.993-.728 2.059.11 4.293-.71 6.346.344.047.689.094 1.034.138-.146-1.984-.284-4.463-1.332-6.207-.923-1.532-2.54-1.4-4.078-1.856-.446-.136-.592.51-.186.679 1.549.646 3.104.416 3.787 2.343.561 1.593.683 3.368.76 5.041.028.619.819.68 1.035.139.531-1.332.45-2.668.443-4.078-.01-2.403.94-3.627 3.145-4.517.507-.202.51-1.092-.142-1.044-1.363.098-2.756.213-3.639-.998-.808-1.105-.865-2.634-1.105-3.966-.102-.554-.937-.399-.954.129-.077 2.546-.72 5.582-3.644 6.14-.42.081-.332.801.094.747zM68.94 126.051c5.263-.578 6.714-6.001 6.86-10.498-.454.061-.91.122-1.363.186.412 2.397.412 5.68 2.343 7.445 1.68 1.532 4.185 1.484 6.309 1.346l-.203-1.491c-2.472.997-4.845 2.214-5.623 4.963-.838 2.975.355 6.218-.876 9.115.467.125.934.254 1.4.379-.196-2.962-.46-6.515-1.853-9.19-1.362-2.61-3.922-2.322-6.383-3.12-.534-.173-.916.689-.389.919 2.33 1.021 4.832.531 5.873 3.415.906 2.509 1.136 5.332 1.248 7.976.027.673 1.088 1.116 1.4.379.936-2.208.74-4.433.75-6.776.003-1.298.068-2.674.75-3.824.883-1.484 2.58-2.164 4.105-2.772.724-.291.73-1.562-.203-1.491-1.886.142-4.344.348-5.67-1.292-1.274-1.575-1.298-4.432-1.646-6.353-.142-.791-1.343-.571-1.363.186-.095 3.844-1.126 8.693-5.616 9.437-.588.101-.46 1.129.15 1.061zM99.358 32.897c3.807-.142 4.696-4.128 4.974-7.222h-1.224c.358 2.786 1.359 6.509 4.906 6.211l-.183-1.342c-3.668.666-3.499 5.856-3.925 8.666h1.284c-.645-3.057-1.626-8.284-5.984-7.32-.734.162-.416 1.24.308 1.115 3.35-.591 4.449 3.899 4.368 6.384-.024.733 1.19.93 1.308.176.342-2.171.227-7.199 3.006-7.702.751-.136.588-1.407-.182-1.343-2.797.234-3.392-2.9-3.703-5.01-.104-.72-1.156-.484-1.2.162-.172 2.478-.571 6.076-3.75 6.322-.57.048-.584.923-.003.903z" fill="#29A49D"/></g><defs><clipPath id="clip0_12319_26456"><path fill="#fff" transform="translate(0 12.287)" d="M0 0h160v135.427H0z"/></clipPath></defs></svg>