<svg width="160" height="160" viewBox="0 0 160 160" fill="none" xmlns="http://www.w3.org/2000/svg"><path d="M144.193 129.384c-27.408 32.53-78.04 28.446-110.91 7.006C-45.48 85.018 51.915-28.764 124.238 17.823c38.305 24.674 47.248 79.164 19.954 111.561z" fill="#FEEBEB"/><path d="M127.57 143.377c-1.964-16.372-11.194-31.744-18.702-46.59-20.518.06-29.612-.941-50.123 0C53.958 110.398 42 125.852 39.09 139.888c26.587 14.829 62.188 18.863 88.481 3.488z" fill="#F93F25"/><path d="M62.858 120.882a226.392 226.392 0 00-10.346 16.695l-13.114-7.802c-.22-.129 3.581-9.507 3.886-10.242 2.57-6.195 5.675-11.693 9.82-16.951l9.754 18.3z" fill="#F93F25"/><path d="M29.575 133.181c.983-3.524 4.493-5.656 8.039-5.599 2.082.033 4.106.668 6.037 1.45a39.869 39.869 0 018.412 4.655c4.716 3.406 4.199 12.192-1.787 13.979-3.292.983-6.676-2.15-5.57-5.509-.697 2.117-3.385 2.408-5.215 1.78-2.677-.919-3.137-3.915-2.814-6.421-.097.754-2.06.959-2.623 1.002-1.479.111-2.972-.449-3.87-1.665-.846-1.152-.954-2.441-.61-3.672zM102.9 125.095a226.373 226.373 0 0110.347 16.696l14.405-7.802c-.865-2.265-1.726-4.529-2.591-6.794-3.467-9.087-8.2-17.934-12.206-23.008l-9.955 20.908z" fill="#F93F25"/><path d="M136.187 137.395c-.984-3.525-4.493-5.656-8.039-5.599-2.082.032-4.106.668-6.037 1.45a39.861 39.861 0 00-8.412 4.655c-4.716 3.406-4.199 12.191 1.787 13.979 3.291.983 6.675-2.15 5.57-5.509.696 2.117 3.384 2.408 5.215 1.78 2.677-.919 3.136-3.916 2.813-6.421.097.754 2.06.958 2.624 1.001 1.478.112 2.971-.448 3.869-1.665.847-1.152.951-2.437.61-3.671z" fill="#F93F25"/><path d="M42.308 129.154c3.503.776 6.927 2.387 9.568 4.856 1.289 1.206 2.423 2.67 2.886 4.4.527 1.981-.086 3.388-.696 5.201-.115.337.312.667.61.47 3.348-2.215 1.633-7.419-.355-9.895-2.85-3.549-7.182-5.728-11.59-6.571-.997-.19-1.435 1.317-.423 1.539z" fill="#fff"/><path d="M53.987 133.874a71.203 71.203 0 013.771-5.301c1.152-1.461 2.484-2.835 3.457-4.425.455-.747-.542-1.4-1.149-.887-3.025 2.548-5.179 6.622-7.084 10.024-.366.657.599 1.213 1.005.589zM36.703 138.382a21.72 21.72 0 012.648-4.705c.24-.323-.23-.765-.549-.55-1.672 1.124-2.47 3.148-2.943 5.021-.143.564.635.743.844.234zM44.551 144.666c.31-.948.715-1.863 1.178-2.746.42-.797.925-1.489 1.202-2.354.14-.435-.395-.847-.782-.6-1.712 1.091-2.452 3.467-2.81 5.366-.144.789.958 1.109 1.212.334zM122.28 147.957c-.086-2.789-1.023-5.028-2.487-7.35-.208-.334-.837-.119-.671.283.961 2.297 1.912 4.572 2.21 7.07.072.582.969.618.948-.003zM122.136 132.331c-4.005.707-8.455 2.397-11.036 5.67-2.07 2.627-3.24 6.316-1.385 9.371.477.786 1.694.079 1.235-.722-1.709-2.986.38-6.725 2.648-8.814 2.523-2.326 6.101-2.735 9.016-4.382.638-.359.179-1.238-.478-1.123z" fill="#fff"/><path d="M113.462 136.601c-.783-2.53-1.992-4.884-3.424-7.109-1.375-2.132-3.083-4.852-5.365-6.087-.629-.341-1.569.402-1.07 1.069 1.54 2.06 3.506 3.726 4.989 5.861 1.428 2.057 2.713 4.278 3.65 6.6.297.736 1.464.463 1.22-.334zM130.459 142.261c-.201-2.146-.987-4.515-2.688-5.943-.51-.427-1.468.151-1.001.771 1.18 1.58 2.056 3.396 2.39 5.348.125.728 1.371.571 1.299-.176z" fill="#fff"/><path d="M53.778 25.123a23.107 23.107 0 00-3.283 1.378c-9.3 4.774-17.105 12.4-21.982 21.656l5.803-.216a77.8 77.8 0 00-5.506 28.812 6.502 6.502 0 003.593-2.282 111.539 111.539 0 005.44 31.485l5.628-6.679a59.841 59.841 0 0017.873 20.941l1.758-3.696c5.298 8.749 20.967 18.845 22.826 18.719 1.166-.079 15.931-12.256 19.211-20.973 0 0 2.265 2.788 2.835 3.528.287.373 2.369 3.097 3.736 5.275 0 0 14.923-23.396 15.813-35.314l5.251 3.628a51.578 51.578 0 00-.04-24.261c1.888-.517 5.47 2.699 5.47 2.699.958-15.091-9.048-24.606-15.906-27.527 2.684-.075 5.369-.154 8.053-.23 2.742-.079-4.35-8.61-4.967-9.234-6.151-6.216-14.531-10.279-23.324-10.612-7.785-.294-14.754 2.817-21.591 6.183-.71.349-5.376-1.963-6.41-2.282-2.609-.804-5.272-1.475-7.981-1.863-4.257-.603-8.359-.438-12.3.865z" fill="#8F1202"/><path d="M72.854 33.675c-10.814-5.286-24.638-2.397-31.798 7.48-.348.48.43 1.076.822.635 7.741-8.764 19.538-11.958 30.427-7.174.627.276 1.187-.628.549-.94z" fill="#F93F25"/><path d="M54.18 37.505c-12.5 2.838-17.287 17.345-17.492 28.732-.01.517.836.66.926.126 1.03-6.072 1.597-12.141 4.59-17.664 2.613-4.82 6.834-8.926 12.167-10.505.445-.126.262-.79-.19-.69z" fill="#F93F25"/><path d="M44.91 50.281c-4.382 11.075-6.668 24.05-4.622 35.91.097.568 1.04.438 1.008-.136-.334-5.972-.6-11.814.14-17.776a76.095 76.095 0 014.425-17.732c.223-.6-.721-.847-.95-.266zM45.564 71.194c-.596 12.364 3.244 26.407 12.022 35.48.316.326.92-.112.643-.496-3.679-5.171-6.984-10.375-9.051-16.422a51.106 51.106 0 01-2.696-18.559c.026-.595-.89-.592-.918-.003zM59.876 101.929c3.621 8.283 8.498 16.312 15.46 22.219.6.51 1.411-.28.87-.869-2.95-3.222-5.922-6.366-8.456-9.941-2.674-3.772-4.863-7.845-6.78-12.048-.337-.75-1.417-.1-1.094.639zM77.132 114.695c1.378 2.142 2.745 4.285 4.184 6.384.377.549 1.256.054.905-.527-1.321-2.175-2.714-4.3-4.099-6.435-.398-.621-1.392-.047-.99.578zM82.217 32.516c11.796-7.048 26.127-6.026 37.64.973.442.269.783-.38.395-.675-10.856-8.219-27.075-7.967-38.405-.94-.405.255-.04.886.37.642z" fill="#F93F25"/><path d="M98.568 32.412c6.643-1.234 12.967.312 18.77 3.603.517.295.915-.441.456-.778-5.52-4.038-12.87-5.104-19.47-3.715-.585.126-.334.998.244.89zM118.045 45.372c5.616 4.784 8.742 11.308 9.902 18.511.071.456.832.348.803-.108-.409-7.414-4.443-14.334-10.142-18.97-.391-.32-.962.23-.563.567zM118.748 56.203c2.114 3.85 3.69 7.96 4.641 12.252.961 4.343 1.004 8.617 1.144 13.028.018.614 1.034.822 1.127.154 1.253-8.767-1.722-18.393-6.065-25.93-.312-.552-1.152-.06-.847.496zM116.405 67.64a71.334 71.334 0 011.6 20.21c-.445 6.908-2.239 13.221-4.174 19.81-.175.596.765 1.03 1.03.435 2.728-6.134 3.866-13.258 4.278-19.922.431-6.988-.236-13.968-1.905-20.762-.129-.538-.951-.312-.829.23zM112.41 89.468c-.674 5.448-2.218 10.595-3.987 15.77-.161.477.607.815.825.348 2.344-5.057 3.546-10.602 4.167-16.118.072-.646-.929-.631-1.005 0zM98.528 109.39c-2.609 5.707-6.172 10.835-10.54 15.339-.542.56.312 1.418.854.855 4.425-4.576 7.906-9.924 10.393-15.781.201-.474-.484-.897-.707-.413zM89.373 113.058c-.406 1.027-.811 2.053-1.213 3.08-.233.592.71.836.947.262.424-1.023.851-2.043 1.275-3.065.254-.614-.761-.898-1.009-.277zM86.882 37.59c.973-1.069 2.125-1.826 3.453-2.393.488-.208.136-1.048-.362-.861-1.45.542-2.72 1.442-3.754 2.59-.406.45.254 1.117.663.665zM76.844 38.83c-2.024-.805-4.08-1.404-6.259-1.562-.491-.036-.603.764-.118.865 2.07.441 4.127.886 6.122 1.604.582.208.808-.689.255-.908zM57.647 88.64c-3.143-7.017-5.613-14.6-4.992-22.263.621-7.662 4.903-15.407 12.023-18.314 19.427-7.931 51.917-5.279 48.468 22.495-2.254 18.139-10.634 41.036-34.392 37.106-10.85-1.794-16.818-9.457-21.107-19.025z" fill="#F93F25"/><path d="M54.536 64.403c-5.56-5.745-5.445-10.07-4.73-13.278.725-3.245 3.15-6.059 6.255-7.25 3.104-1.188 6.794-.718 9.5 1.213 1.457 1.04 3.671 3.89 3.671 3.89s-5.817 5.373-8.3 8.032c-2.1 2.247-6.396 7.393-6.396 7.393z" fill="#F93F25"/><path d="M56.244 58.844c-3.14-3.244-3.075-5.684-2.67-7.497.41-1.83 1.78-3.42 3.532-4.091 1.75-.671 3.832-.406 5.361.685.822.589 2.071 2.197 2.071 2.197s-3.284 3.032-4.683 4.532c-1.188 1.27-3.61 4.174-3.61 4.174z" fill="#fff"/><path d="M110.878 59.684c4.734-6.445 4.037-10.713 2.896-13.795-1.155-3.12-3.94-5.578-7.178-6.339-3.237-.76-6.826.205-9.248 2.484-1.303 1.227-3.112 4.35-3.112 4.35s6.489 4.54 9.31 6.837c2.379 1.941 7.332 6.463 7.332 6.463z" fill="#F93F25"/><path d="M108.437 54.405c2.674-3.64 2.279-6.047 1.633-7.788-.653-1.758-2.225-3.147-4.052-3.578-1.826-.427-3.854.115-5.218 1.403-.736.693-1.758 2.455-1.758 2.455s3.664 2.562 5.254 3.858c1.346 1.098 4.141 3.65 4.141 3.65z" fill="#fff"/><path d="M65.349 49.8a10.103 10.103 0 00-5.337-.954c.287.861.578 1.719.865 2.58l-3.955.819a16.22 16.22 0 012.369 1.79 15.048 15.048 0 00-5.739 2.897l2.818 3.603L65.349 49.8zM97.488 46.678a8.715 8.715 0 015.512-.55c-.19.762-.43 1.512-.718 2.24 1.382-.04 2.767.104 4.113.424.169.04.352.093.449.24.104.162.057.373.007.56-.154.574-.312 1.148-.466 1.72.663-.03 1.327-.058 1.991-.09a8.842 8.842 0 01.173 5.167l-11.061-9.711z" fill="#F93F25"/><path d="M79.568 83.005c1.224-5.348.85-10.476.313-12.834-.097-.42-.19-.84-.277-1.26-.62-2.982-2.512-7.813 1.816-8.868 1.27-.309 2.886-.635 4.106.025 2.426 1.31 1.712 4.188 1.583 6.41-.388 6.704.226 9.177 1.083 15.798.004.018.004.036.008.054-.004 0-8.614.675-8.632.675z" fill="#fff"/><path d="M79.626 83.504c-.155-.445-.069-.876.502-1.213.948-.556 2.394-.65 3.467-.754.811-.079 1.63-.097 2.448-.054.692.036 1.776.094 2.153.844.312.62-.43 1.521-.729 2.006-.312.51-.746.94-1.144 1.385-.36.406-.636.883-1.027 1.263-.323.316-.797.66-1.256.55-.495-.115-.915-.55-1.314-.84-.463-.334-.904-.7-1.324-1.084-.631-.567-1.493-1.274-1.776-2.103z" fill="#8F1202"/><path d="M83.502 93.553a3.403 3.403 0 002.336-.41c.345-.208.643-.48.872-.81.068-.101.585-.962.452-1.034-1.338-.74-2.081-1.935-2.76-3.255-.05-.097-.215-.237-.222-.338.021.284-.197.628-.298.887-.499 1.285-1.636 2.135-2.641 3.01-.112.098.154.618.215.726.183.334.585.614.9.804.356.204.744.348 1.146.42z" fill="#fff"/><path d="M78.678 93.287c1.917-.585 3.672-1.5 4.942-3.09 1.03-1.285 1.633-3.291.793-4.813-.14-.258-.545-.136-.545.147 0 1.83-.018 3.202-1.396 4.62-1.116 1.151-2.487 1.909-3.984 2.447-.427.154-.258.825.19.689z" fill="#8F1202"/><path d="M91.304 92.146c-1.6-.205-3.252-.607-4.594-1.543-1.633-1.142-1.805-2.631-2.053-4.444-.043-.323-.473-.23-.563 0-.693 1.748.438 3.866 1.816 4.946 1.55 1.213 3.474 1.608 5.398 1.762.463.032.441-.664-.004-.721zM61.157 70.957c1.762 1.924 4.411 2.964 7.024 2.584 1.97-.287 4.647-1.583 4.802-3.826.025-.362-.496-.581-.736-.305-1.267 1.46-2.272 2.624-4.321 2.893-2.25.297-4.436-.542-6.19-1.924-.403-.323-.945.176-.579.578zM92.98 69.579c1.963 1.338 3.88 2.419 6.31 1.73 2.07-.585 3.918-2.06 4.984-3.916.42-.725-.621-1.285-1.098-.642-1.026 1.381-2.516 2.523-4.102 3.183-2.082.869-3.837-.111-5.613-1.184-.531-.323-.987.484-.481.829z" fill="#8F1202"/><path d="M75.269 83.342c1.213 0 1.216-1.888 0-1.888-1.213 0-1.217 1.888 0 1.888zM70.937 87.979l-.093.054a.733.733 0 00-.363.628.733.733 0 00.362.628c.09.043.187.079.28.118.14.036.277.036.417 0a.762.762 0 00.344-.2.762.762 0 00.201-.345.616.616 0 00.015-.312.57.57 0 00-.094-.291.786.786 0 00-1.07-.28zM75.315 87.053c.754 0 .754-1.17 0-1.17-.753-.004-.753 1.17 0 1.17zM91.788 82.072c.948 0 .951-1.475 0-1.475-.95 0-.95 1.475 0 1.475zM92.076 85.535c-.008-.018-.011-.036-.018-.057-.011-.036-.026-.065-.04-.1a.372.372 0 00-.09-.155.51.51 0 00-.284-.223.515.515 0 00-.265-.057c-.06.007-.122.018-.183.025a.692.692 0 00-.301.176c-.032.043-.086.1-.115.147-.025.054-.047.111-.072.165 0 .007-.003.01-.003.018a1.705 1.705 0 00-.011.057.719.719 0 00.183.696.74.74 0 00.506.209.566.566 0 00.276-.061.539.539 0 00.23-.147.69.69 0 00.187-.693zM94.56 84.318c.936 0 .936-1.453 0-1.453-.938 0-.938 1.453 0 1.453zM97.908 82.05c.782 0 .782-1.213 0-1.213-.783-.003-.786 1.213 0 1.213zM97.48 86.985c.88 0 .88-1.368 0-1.368-.879 0-.879 1.368 0 1.368zM69.343 83.723c.008.025.015.05.025.075.026.108.076.2.148.28.057.09.136.161.233.212a.854.854 0 00.416.114c.072-.01.144-.017.216-.028.068-.029.132-.058.2-.086.058-.043.112-.087.17-.13a.82.82 0 00.211-.366l.014-.075a.864.864 0 000-.449.807.807 0 00-.219-.373c-.057-.043-.114-.09-.172-.133a.846.846 0 00-.427-.114.68.68 0 00-.326.071.65.65 0 00-.273.176.874.874 0 00-.22.373.92.92 0 00.004.453zM103.65 82.94c4.227-1.686 8.836-2.067 13.304-1.216.57.107.818-.74.24-.88-4.73-1.134-9.417-.603-13.846 1.382-.398.18-.111.88.302.714zM103.912 85.786c2.146-.161 4.224.162 6.284.754 1.877.538 3.718 1.636 5.642 1.898.549.076.84-.549.377-.893-1.723-1.27-4.275-1.867-6.335-2.337a16.344 16.344 0 00-6.079-.233c-.456.068-.352.843.111.811zM102.239 89.899c1.407.678 2.81 1.407 4.117 2.265 1.306.857 2.483 1.909 3.815 2.724.423.258 1.023-.28.71-.711-1.877-2.606-5.254-4.289-8.268-5.172-.517-.15-.883.646-.374.894zM65.277 84.788c-4.608-1.356-9.316-1.248-13.803.496-.534.208-.322 1.07.241.879 4.317-1.45 8.926-1.723 13.354-.62.488.121.69-.611.208-.755zM65.188 87.584c-2.244-.028-4.379.42-6.457 1.267-1.837.75-4.07 1.587-5.487 3-.349.349.007.94.473.815 1.741-.46 3.277-1.69 4.91-2.444 2.092-.969 4.242-1.676 6.557-1.812.531-.029.538-.819.004-.826zM66.91 91.45c-2.795 1.245-5.94 3.373-7.407 6.147-.287.542.37 1.002.818.632 1.148-.944 2.143-2.082 3.255-3.072 1.188-1.059 2.505-1.985 3.83-2.864.53-.352.071-1.095-.496-.844z" fill="#fff"/><path d="M133.463 105.338c3.029.226 5.681-1.518 7.256-4.034 1.892-3.014 1.974-6.783 1.949-10.224-.007-1.012-1.443-.97-1.543 0-.362 3.556-.736 7.461 1.127 10.698 1.396 2.423 3.876 4.203 6.736 4.066 1.027-.05 1.041-1.604 0-1.604-7.748.007-8.739 9.109-10.12 14.754.516.072 1.037.14 1.554.212-.029-2.276-.065-4.554-.097-6.83-.022-1.626.197-3.531-.395-5.085-.926-2.444-4.066-3.395-6.449-3.363-.715.011-.865 1.048-.169 1.245 2.803.797 5.261.958 5.383 4.472.108 3.183.09 6.377.144 9.561.014.872 1.342 1.098 1.554.212 1.155-4.784 1.769-13.764 8.595-13.57v-1.604c-6.786.129-6.747-8.452-6.323-13.16h-1.544c.04 4.984-.868 13.149-7.665 12.837-.912-.047-.894 1.349.007 1.417zM21.439 110.359c3.183-.402 4.095-3.352 4.22-6.169-.495.068-.99.133-1.482.201.248 1.457.255 3.359 1.465 4.411 1.019.883 2.483.89 3.75.822-.072-.542-.147-1.084-.219-1.622-1.328.541-2.641 1.155-3.244 2.548-.793 1.826-.018 3.876-.725 5.728.534.071 1.073.143 1.607.218-.15-1.722-.297-3.782-1.151-5.318-.826-1.493-2.294-1.5-3.805-1.841-.57-.13-1.019.739-.423 1.001 1.22.535 2.717.545 3.18 2.028.412 1.32.51 2.756.56 4.13.035.959 1.284 1.066 1.607.219.427-1.119.402-2.2.399-3.377-.008-1.923.595-2.997 2.433-3.736.786-.316.797-1.697-.22-1.622-1.18.086-2.561.248-3.182-1.109-.384-.84-.41-1.97-.578-2.871-.158-.861-1.457-.621-1.482.201-.061 2.085-.52 4.457-2.868 5.014-.628.136-.51 1.227.158 1.144zM147.825 56.382c3.693-.43 4.741-4.023 4.871-7.25-.471.065-.941.126-1.411.191.287 1.68.287 3.94 1.669 5.157 1.195 1.052 2.911 1.045 4.4.959-.068-.514-.14-1.03-.208-1.544-1.647.668-3.262 1.454-3.887 3.245-.739 2.12.111 4.421-.729 6.524.51.068 1.02.137 1.529.208-.161-2.027-.33-4.475-1.328-6.287-.976-1.777-2.673-1.698-4.443-2.16-.549-.144-.961.71-.402.954 1.572.678 3.284.477 3.916 2.498.502 1.604.635 3.326.703 4.995.036.923 1.21 1.002 1.529.209.557-1.39.47-2.79.467-4.257-.007-2.361.897-3.539 3.068-4.414.75-.302.754-1.615-.208-1.543-1.572.114-3.23.244-3.998-1.483-.445-.997-.488-2.368-.685-3.441-.151-.822-1.389-.593-1.411.19-.072 2.533-.689 5.559-3.585 6.151-.614.122-.488 1.17.143 1.098zM.878 73.304C8.76 73.3 10.578 64.4 11.1 58.248H9.197c.417 3.245.858 6.694 2.864 9.396 1.683 2.265 4.354 3.776 7.217 3.392 1.332-.18 1.353-2.297 0-2.121-3.183.412-5.254 2.749-6.237 5.703-1.303 3.915-1.507 8.369-2.128 12.435h1.995c-.65-3.912-1.134-8.172-3.485-11.506-1.974-2.8-5.35-4.734-8.785-3.8-1.116.304-.646 1.998.477 1.73 3.37-.805 6.586 1.769 7.896 4.719 1.223 2.763 1.873 6.126 1.866 9.133-.004 1.127 1.845 1.457 2.031.277.499-3.187.948-6.389 1.508-9.565.491-2.8 1.5-6.56 4.862-6.998v-2.121c-6.065.811-7.572-6.439-8.211-10.917-.162-1.12-1.794-.747-1.866.25-.37 5.255-1.429 13.452-8.32 13.66-.896.018-.904 1.389-.003 1.389z" fill="#F93F25"/></svg>