<svg width="160" height="160" viewBox="0 0 160 160" fill="none" xmlns="http://www.w3.org/2000/svg"><g clip-path="url(#clip0_12319_28420)"><path d="M.026 81.448a64.61 64.61 0 01.412-5.706c2.919-25.14 11.338-48.703 34.971-61.04C57.1 3.379 84.24.907 107.922 6.526c5.369 1.274 10.644 3.005 15.627 5.38 58.286 27.786 40.201 109.942-8.868 136.341C67.447 173.656-1.502 136.168.026 81.447z" fill="#CDF3F1"/><path d="M74.974 39.077c-1.068 6.11-1.03 12.255-1.102 18.494-.273 5.807 1.544 11.614 1.315 17.421-.228 5.808-4.282 11.615-4.45 17.422-.083 2.848-.098 5.699-.132 8.546-.16 4.567-.498 9.479 2.784 12.866 3.065 3.818 10.685 2.578 12.975-1.615 3.2-5.515.951-13.48 1.273-19.8-.224-5.808-4.293-11.615-4.488-17.422-.191-5.695 1.705-11.394 1.559-17.093.13-5.732.27-11.977-.454-17.418-.314-2.637-1.558-4.803-4.095-5.185-2.132-.318-4.78 1.191-5.185 3.784z" fill="#29A49D"/><path d="M136.482 47.593a3.136 3.136 0 00-.322-.105c-1.307-.344-2.686-.056-4.035.08-6.512.644-12.78-2.474-18.321-5.954-5.541-3.48-10.963-7.493-17.332-9-6.37-1.506-14.121.326-17.17 6.115-2.061-4.058-6.696-6.37-11.244-6.587-4.549-.217-9.004 1.371-13.031 3.488-4.028 2.117-7.756 4.774-11.76 6.932a54.94 54.94 0 01-15.737 5.586c-1.506.288-5.582.198-5.549 2.63.03 2.233 4.066 2.33 5.632 2.26 7.808-.353 14.859-4.47 21.94-7.779 7.081-3.308 15.29-5.897 22.592-3.113 2.076.79 4.44 2.064 6.793 2.345 2.806.334 4.923-1.116 7.43-2.162 5.256-2.191 11.314-1.465 16.698.39s10.337 4.758 15.571 6.999c5.234 2.236 10.997 3.821 16.602 2.81 1.303-.236 2.795-.813 3.105-2.102.3-1.21-.685-2.383-1.862-2.833z" fill="#0E423F"/><path d="M10.1 85.206a4550.49 4550.49 0 016.865-17.186c1.101-2.75 2.248-5.485 3.387-8.22.57-1.368 1.139-2.739 1.708-4.11.656-1.577 1.188-3.582 2.184-4.976l-.899.517c.12 0 1.578 4.114 1.701 4.429.525 1.311 1.042 2.626 1.57 3.938 1.203 2.99 2.435 5.968 3.653 8.95 2.312 5.662 4.41 11.487 7.017 17.021.626 1.327 2.9.386 2.387-1.008-2.357-6.425-5.316-12.69-7.969-18.999a957.95 957.95 0 00-4.028-9.482c-.648-1.495-1.3-2.994-1.952-4.489-.363-.835-.723-2.113-1.738-2.416-.847-.255-1.45.224-1.836.921-.738 1.334-1.135 2.968-1.678 4.395-1.312 3.454-2.612 6.913-3.953 10.356-2.596 6.665-5.302 13.289-7.928 19.943-.367.937 1.143 1.341 1.51.416z" fill="#0E423F"/><path d="M9.014 84.854c-.367 0 .173 5.755.225 6.234 1.06 10.049 13.672 14.829 22.072 10.532 2.72-1.394 4.983-3.653 6.414-6.354 1.73-3.271 1.334-6.782 1.401-10.356l-30.112-.056zM123.392 83.943a4467.81 4467.81 0 016.864-17.186c1.101-2.75 2.248-5.485 3.386-8.22.57-1.367 1.139-2.739 1.709-4.11.656-1.577 1.188-3.582 2.184-4.975l-.899.517c.12 0 1.577 4.114 1.701 4.428.525 1.312 1.042 2.627 1.57 3.938 1.203 2.99 2.435 5.968 3.653 8.95 2.312 5.662 4.41 11.488 7.017 17.022.626 1.326 2.9.385 2.387-1.008-2.357-6.426-5.317-12.69-7.969-19a953.228 953.228 0 00-4.028-9.482c-.648-1.495-1.3-2.994-1.952-4.489-.363-.835-.723-2.113-1.738-2.416-.847-.255-1.45.225-1.836.922-.738 1.333-1.135 2.967-1.679 4.394-1.311 3.455-2.611 6.913-3.952 10.356-2.597 6.665-5.302 13.29-7.928 19.943-.367.937 1.143 1.342 1.51.416z" fill="#0E423F"/><path d="M122.309 83.591c-.367 0 .172 5.755.225 6.235 1.06 10.048 13.671 14.829 22.071 10.531 2.72-1.394 4.983-3.653 6.414-6.354 1.731-3.27 1.334-6.781 1.402-10.356l-30.112-.056zM85.895 30.007c0 3.443-2.79 9-6.238 9-3.443 0-6.238-5.557-6.238-9a6.238 6.238 0 0112.476 0z" fill="#0E423F"/><path d="M75.644 35.844c2.177 1.922 5.89 2.237 7.992.007.266-.284-.09-.809-.434-.565-2.215 1.58-4.946 2.008-7.205.206-.244-.195-.596.135-.353.352zM20.783 90.698c1.247.162 2.349 1.15 2.645 2.376.296 1.225-.236 2.604-1.278 3.316-.974.666-2.225.73-3.406.753 1.784 1.922 4.789 2.6 7.224 1.63.412-.165.817-.379 1.12-.701.236-.251.405-.555.555-.866.921-1.9 1.199-4.395-.225-5.95-.794-.869-2.005-1.284-3.181-1.31-1.18-.027-2.338.306-3.436.737l-.018.015z" fill="#fff"/><path d="M10.67 87.45c4.421.27 8.846.438 13.271.48 4.14.037 8.516.352 12.619-.236.356-.053.228-.559-.08-.589-4.236-.408-8.646-.003-12.906-.06a674.068 674.068 0 01-12.904-.292c-.45-.015-.445.667 0 .697zM124.493 86.603c4.436.117 8.876.147 13.312.221 4.106.068 8.636.517 12.679-.307.355-.071.228-.55-.079-.588-2.053-.229-4.178-.038-6.246-.038-2.237.004-4.473-.015-6.706-.03-4.32-.03-8.647-.123-12.96.244-.318.03-.326.49 0 .498zM118.562 135.085c-18.887 14.364-56.585 16.35-79.185-.405 1.315-6.998 5.706-13.016 11.7-16.867 5.992-3.852 12.98-5.849 19.952-7.306 18.332-3.825 39.085 3.376 46.439 21.528.113.27 1.218 2.956 1.094 3.05z" fill="#29A49D"/><path d="M67.32 111.863c7.013 3.331 16.897 4.417 23.956.633 1.903-1.019.505-3.582-1.376-3.267-7.066 1.188-14.44 2.106-21.434-.071-1.581-.491-2.683 1.978-1.146 2.705zM37.283 135.973c8.722 7.857 20.981 11.27 32.42 12.592 11.771 1.364 24.248.532 35.506-3.315 5.553-1.9 11.435-4.414 15.601-8.659 1.817-1.851-.524-5.043-2.81-3.642-4.087 2.503-8.149 4.923-12.678 6.557-5.055 1.825-10.382 3.072-15.71 3.773-11.161 1.472-22.81.76-33.637-2.368-5.879-1.697-11.51-4.32-16.759-7.448-1.529-.915-3.308 1.273-1.933 2.51z" fill="#0E423F"/><path d="M138.629 88.005c.69 1.255 1.184 2.765 1.188 2.776.225.682 1.034.775 1.645.843.453.049.899.165 1.337.292.221.064 1.057.202 1.057.202-.51.439-1.001.896-1.488 1.36-.356.341-.921.63-.996 1.162-.068.506.135.996.232 1.48.101.51.082 1.038.09 1.555.004.12-.075.738.011.824a69.18 69.18 0 00-1.439-1.386c-.423-.401-.79-.888-1.296-1.192-.704-.423-1.034-.09-1.588.356a69.779 69.779 0 00-2.608 2.222c.079-.562.168-1.128.258-1.69.094-.58.338-1.169.398-1.772.033-.322.03-.656-.102-.96-.153-.355-.412-.407-.682-.647-.576-.51-1.165-1.016-1.693-1.574.697-.176 1.461-.16 2.173-.172.457-.008.959.127 1.405-.019.472-.154.626-.72.843-1.131.442-.828.854-1.679 1.255-2.53z" fill="#fff"/><path d="M84.07 39.613c3.425-3.458 8.858-4.642 13.511-3.368 5.066 1.386 9.037 5.245 13.923 7.036.352.127.547-.4.247-.588a223.726 223.726 0 00-8.31-4.946c-2.237-1.259-4.601-2.409-7.16-2.787-4.6-.682-9.569.644-12.862 4.001-.42.424.232 1.075.652.652zM76.266 39.238c-2.026-1.573-4.087-3.233-6.567-4.031-2.514-.81-5.186-.52-7.666.277-2.656.855-5.095 2.278-7.538 3.6-3.095 1.68-6.238 3.178-9.427 4.67-.277.127-.078.569.206.486 5.542-1.61 10.221-5.253 15.568-7.34 2.506-.977 5.241-1.614 7.912-.947 2.604.648 4.89 2.375 7.037 3.904.36.25.828-.345.475-.619zM25.462 50.418c5.991.559 12.72-2.18 17.909-4.945.37-.199.045-.723-.326-.555-5.436 2.47-11.45 5.294-17.583 4.92-.375-.023-.363.547 0 .58zM113.635 44.326c3.02 2.207 6.748 3.496 10.24 4.755 3.481 1.255 7.786 2.09 11.427 1.049.322-.09.263-.585-.078-.585-3.994.004-7.565.038-11.398-1.318-3.424-1.21-6.8-2.488-9.969-4.283-.248-.138-.443.217-.222.382z" fill="#29A49D"/><path d="M46.923 130.36c1.334-1.836 3.376-4.874 5.93-5.028 1.173-.071 2.462.547 3.062 1.574.757 1.304-.09 2.851-.184 4.215-.187 2.72 2.608 5.028 5.268 4.106 1.439-.498 2.274-1.839 2.937-3.121.465-.895.858-1.873 1.611-2.577 1.701-1.593 3.275-.386 3.728 1.487.469 1.944-.049 4.028 1.098 5.807.81 1.255 2.278 2.121 3.773 2.188 3.35.158 4.897-2.727 5.035-5.638.06-1.267-.123-2.852 1.24-3.432 1.394-.596 2.706.712 3.32 1.899.734 1.416.693 3.114 1.371 4.564 1.285 2.742 4.946 3.222 7.385 1.682 1.21-.764 1.933-1.941 1.997-3.376.086-1.933-1.446-5.65 1.199-6.29 2.652-.645 3.705 3.368 5.683 4.589 1.387.858 3.106.888 4.605.311 4.14-1.6 3.717-5.946 2.278-9.329-.318-.746-1.607-.21-1.319.555.821 2.176 1.836 4.87-.225 6.732a4.275 4.275 0 01-3.004 1.079c-1.75-.078-2.649-1.33-3.597-2.607-1.435-1.934-4.534-4.373-6.448-1.503-.727 1.094-.708 2.466-.562 3.709.127 1.079.487 2.26.157 3.339-.543 1.768-2.54 2.42-4.203 2.274-3.965-.352-2.882-5.433-5.145-7.756-1.84-1.888-4.975-2-5.81.903-.491 1.701.13 3.664-.791 5.246-.693 1.195-2.147 1.952-3.53 1.671-2.056-.413-2.802-2.245-2.952-4.14-.183-2.323-.483-6.246-3.754-6.126-4.009.15-3.979 7.294-7.845 6.515-3.455-.697-1.117-4.421-1.675-6.65-.33-1.326-1.394-2.36-2.63-2.878-3.972-1.659-7.119 2.563-8.91 5.482-.363.581.517 1.06.907.524zM54.315 121.503c1.502 0 1.506-2.334 0-2.334-1.502 0-1.502 2.334 0 2.334z" fill="#fff"/><path d="M60.062 123.219l.06-.067a.807.807 0 00.21-.326.737.737 0 00.086-.39c-.011-.09-.022-.18-.037-.27a1.011 1.011 0 00-.263-.449c-.018-.023-.04-.045-.06-.068l-.224-.172-.266-.112a.842.842 0 00-.442-.019.56.56 0 00-.281.075.554.554 0 00-.244.142.56.56 0 00-.198.199.574.574 0 00-.143.243.834.834 0 00-.097.427c.015.098.026.199.041.296l.112.266.173.225c.075.056.15.116.225.173l.266.112a.853.853 0 00.442.019.57.57 0 00.28-.075.777.777 0 00.36-.229zM65.12 124.845l.034-.022a1.064 1.064 0 00.39-.405c.157-.281.206-.607.12-.918a1.194 1.194 0 00-1.466-.832c-.093.042-.19.079-.284.12-.18.105-.322.248-.427.427a1.197 1.197 0 00.427 1.626c.367.218.846.225 1.206.004zM70.336 125.921a.934.934 0 00.472-.105.962.962 0 00.393-.251.926.926 0 00.251-.394.928.928 0 00.105-.472l-.045-.326a1.227 1.227 0 00-.315-.539 38.175 38.175 0 00-.247-.191 1.232 1.232 0 00-.618-.169.934.934 0 00-.472.105.961.961 0 00-.394.251.922.922 0 00-.25.393.933.933 0 00-.106.472l.045.326c.06.207.162.386.315.54l.247.191c.192.112.398.169.619.169zM76.405 126.535a.906.906 0 00.465-.105.91.91 0 00.39-.251.924.924 0 00.25-.39.937.937 0 00.105-.464l-.045-.322a1.176 1.176 0 00-.31-.532c-.083-.064-.162-.128-.244-.188a1.2 1.2 0 00-.61-.165.906.906 0 00-.465.105.91.91 0 00-.39.251.924.924 0 00-.251.39.94.94 0 00-.105.465l.045.322c.056.206.161.382.31.532.083.063.162.127.244.187.192.109.394.165.611.165zM82.864 126.625c.18.007.345-.03.499-.112a.992.992 0 00.415-.266.952.952 0 00.266-.416.96.96 0 00.113-.499l-.045-.344a1.259 1.259 0 00-.334-.57l-.262-.202a1.291 1.291 0 00-.652-.176.947.947 0 00-.498.112.993.993 0 00-.416.266.948.948 0 00-.266.416.956.956 0 00-.112.498l.045.345c.06.221.172.408.333.57.086.067.176.134.262.202.199.116.42.172.652.176zM89.181 126.269a.988.988 0 00.51-.113.995.995 0 00.427-.273.964.964 0 00.273-.427 1 1 0 00.113-.51c-.015-.116-.03-.236-.05-.352a1.311 1.311 0 00-.34-.584c-.09-.068-.18-.139-.27-.206-.206-.12-.43-.18-.67-.18a.987.987 0 00-.51.112.998.998 0 00-.427.274.964.964 0 00-.274.427.994.994 0 00-.112.509c.015.116.03.236.049.352.063.225.176.42.34.585.09.067.18.139.27.206.206.12.431.18.671.18zM95.42 122.515l-.027-.015a1.03 1.03 0 00-1.03 0c-.008.003-.019.011-.026.015a.817.817 0 00-.3.277.538.538 0 00-.139.236.822.822 0 00-.093.412c.01.094.026.191.037.285.037.086.071.172.109.255a.824.824 0 00.277.299.534.534 0 00.236.139.836.836 0 00.412.094c.094-.012.191-.027.285-.038.086-.037.172-.071.255-.108a.828.828 0 00.3-.278.538.538 0 00.138-.236.822.822 0 00.094-.412c-.012-.094-.027-.191-.038-.285-.037-.086-.071-.172-.108-.254a1.076 1.076 0 00-.383-.386zM100.417 122.028c-.011-.049-.026-.098-.037-.146-.034-.083-.068-.161-.101-.244a.744.744 0 00-.263-.285.535.535 0 00-.224-.131.752.752 0 00-.394-.086c-.09.011-.18.023-.27.038l-.243.101a.736.736 0 00-.285.262.789.789 0 00-.183.345c-.012.048-.027.097-.038.146-.09.356-.007.772.27 1.026.071.057.142.109.213.165.165.094.341.143.532.143a.864.864 0 00.409-.09.812.812 0 00.341-.218c.27-.269.367-.659.273-1.026zM103.531 121.777c1.585 0 1.585-2.462 0-2.462-1.581 0-1.585 2.462 0 2.462z" fill="#fff"/><path d="M75.21 85.951c-1.91 3.234-2.128 6.962-2.252 10.633-.138 4.125-.202 8.558.738 12.596.131.566 1.004.435 1.004-.134-.022-7.273-2.026-15.774 1.357-22.6.273-.562-.525-1.042-.847-.495zM82.932 84.561c1.232 4.444.873 8.959.757 13.507-.105 4.14-.686 8.681-.023 12.78.056.341.61.33.675 0 .427-2.143.318-4.44.352-6.617.033-2.296.078-4.593.09-6.886.018-4.342.003-8.752-1.33-12.926-.105-.333-.615-.195-.521.142zM76.585 46.368a83.617 83.617 0 00-.135 10.877c.18 3.327.304 6.983 1.311 10.18.12.378.731.33.716-.098-.124-3.48-.895-6.958-1.139-10.442-.24-3.495-.3-7.014-.202-10.517.015-.36-.525-.352-.551 0zM80.901 46.93c-.019 4.908-.408 9.828-.315 14.732.008.423.712.562.776.105.66-4.878.427-9.936.124-14.837-.027-.37-.585-.378-.585 0zM78.702 93.096c-.188 3.458-.21 6.905.262 10.341.082.599 1.064.449 1.045-.143-.105-3.401-.3-6.792-.213-10.198.018-.708-1.057-.7-1.094 0zM74.824 78.62c2.106.632 4.245 1.112 6.437.602 1.862-.434 3.746-1.524 3.38-3.668-.094-.547-.634-.992-1.14-1.139-1.364-.39-2.094.585-3.346.806-1.408.247-2.896-.191-4.252-.536-2.54-.64-3.593 3.181-1.079 3.934z" fill="#0E423F"/><path d="M57.162 57.66c3.301-.415 4.245-3.476 4.377-6.399-.514.072-1.027.139-1.537.21.255 1.51.266 3.485 1.521 4.575 1.057.918 2.574.922 3.89.854-.075-.562-.154-1.124-.229-1.682-1.379.562-2.739 1.199-3.364 2.641-.825 1.896-.02 4.02-.754 5.939l1.668.224c-.154-1.787-.311-3.922-1.196-5.515-.857-1.547-2.379-1.554-3.945-1.907-.592-.135-1.056.768-.438 1.038 1.266.555 2.817.566 3.297 2.102.43 1.371.528 2.859.58 4.282.038.997 1.33 1.106 1.668.225.442-1.161.42-2.282.412-3.503-.007-1.993.618-3.106 2.522-3.874.816-.33.824-1.76-.229-1.682-1.225.09-2.656.255-3.3-1.15-.398-.873-.428-2.042-.6-2.979-.165-.895-1.514-.644-1.536.21-.064 2.162-.54 4.623-2.975 5.2-.648.15-.525 1.282.168 1.192zM32.944 27.811c3.301-.416 4.245-3.477 4.376-6.399-.513.071-1.026.139-1.536.21.255 1.51.266 3.484 1.521 4.574 1.057.918 2.574.922 3.89.855l-.23-1.683c-1.378.562-2.738 1.2-3.364 2.642-.824 1.896-.018 4.02-.753 5.938l1.667.225c-.153-1.787-.31-3.923-1.195-5.515-.858-1.547-2.379-1.555-3.945-1.907-.592-.135-1.056.768-.438 1.038 1.266.554 2.817.566 3.297 2.102.43 1.37.528 2.858.58 4.282.038.997 1.33 1.105 1.668.225.442-1.162.42-2.282.412-3.503-.008-1.994.618-3.106 2.521-3.874.817-.33.825-1.761-.228-1.683-1.225.09-2.657.255-3.301-1.15-.397-.873-.427-2.042-.6-2.978-.164-.896-1.513-.645-1.536.21-.063 2.161-.54 4.623-2.974 5.2-.649.146-.525 1.277.168 1.191zM44.896 96.76c5.433-.625 6.924-6.178 7.081-10.842l-1.326.18c.442 2.551.42 6.103 2.641 7.879 1.746 1.394 4.196 1.33 6.298 1.195-.063-.483-.13-.967-.195-1.454-2.491 1-4.904 2.207-5.754 4.95-.97 3.128.33 6.552-.967 9.61l1.364.371c-.203-3.058-.461-6.744-1.915-9.502-1.42-2.69-4.042-2.401-6.601-3.226-.517-.165-.896.675-.379.896 2.428 1.038 5.047.58 6.122 3.555.944 2.604 1.184 5.53 1.304 8.273.03.652 1.06 1.09 1.364.371.97-2.289.768-4.594.772-7.029.003-1.506.116-3.023 1.026-4.278.97-1.338 2.563-1.971 4.047-2.567.704-.281.708-1.521-.195-1.454-1.825.139-4.219.352-5.661-1.03-1.589-1.521-1.611-4.89-1.982-6.92-.139-.772-1.308-.555-1.327.18-.105 4.02-1.199 9.022-5.87 9.808-.566.102-.439 1.106.153 1.035zM112.733 21.108c5.994-.644 7.639-6.845 7.808-11.955-.488.067-.975.131-1.462.199.472 2.72.469 6.481 2.675 8.478 1.919 1.739 4.77 1.679 7.186 1.521-.071-.532-.146-1.067-.217-1.6-2.873 1.154-5.612 2.574-6.44 5.796-.862 3.361.423 7.007-.971 10.259.502.135 1.004.27 1.503.408-.221-3.39-.532-7.403-2.113-10.472-1.54-2.982-4.478-2.641-7.276-3.559-.574-.187-.986.742-.416.99 2.589 1.12 5.571.677 6.721 3.825 1.061 2.896 1.338 6.163 1.469 9.216.03.723 1.165 1.2 1.502.409 1.064-2.488.855-5.028.855-7.677 0-1.514.071-3.118.876-4.448 1.023-1.693 2.968-2.472 4.721-3.173.776-.31.783-1.675-.217-1.6-2.177.165-5.002.394-6.534-1.495-1.465-1.806-1.495-5.073-1.892-7.272-.154-.85-1.443-.614-1.462.199-.108 4.402-1.318 9.988-6.47 10.816-.637.098-.498 1.203.154 1.136zM99.54 78.08c6.25-.079 7.677-6.995 8.101-11.93h-1.506c.569 4.388 2.229 10.802 7.988 10.131l-.225-1.652c-2.267.326-3.803 2.046-4.582 4.118-1.184 3.15-1.319 6.916-1.825 10.224h1.581c-.584-3.196-.899-6.74-2.975-9.4-1.622-2.083-4.117-3.402-6.747-2.728-.892.229-.514 1.57.378 1.372 5.792-1.29 7.785 6.77 7.733 10.974-.011.895 1.465 1.15 1.611.217.401-2.548.753-5.107 1.206-7.643.431-2.417 1.297-5.115 4.066-5.512.929-.135.719-1.76-.225-1.652-4.818.562-5.991-5.047-6.508-8.65-.128-.889-1.424-.593-1.48.198-.3 4.21-1.124 10.591-6.594 10.824-.705.033-.712 1.12.004 1.109z" fill="#29A49D"/></g><defs><clipPath id="clip0_12319_28420"><path fill="#fff" transform="translate(0 3.63)" d="M0 0h160v152.739H0z"/></clipPath></defs></svg>