<svg width="160" height="160" viewBox="0 0 160 160" fill="none" xmlns="http://www.w3.org/2000/svg"><g clip-path="url(#clip0_12321_6361)"><path d="M33.817 28.446a55.366 55.366 0 0111.302-8.363c21.028-11.711 51.857-1.684 72.504 6.64 36.263 14.62 52.481 51.773 30.213 86.169-17.627 27.229-54.415 38.49-84.908 29.093-45.98-14.165-64.933-79.29-29.111-113.54z" fill="#EBF2FE"/><path d="M78.003 103.695c21.086-4.923 45.862-26.25 47.754-21.51 3.331 8.321-10.68 35.284-34.184 46.426-11.863 5.624-27.376 1.451-33.25-5.605-5.874-7.055.817-14.908 19.68-19.311z" fill="#2870F6"/><path d="M74.365 98.132c2.203-.833 4.935-.673 7.517-.494.534.039 1.12.09 1.524.375.525.372.522.97.92 1.416.78.874 2.66.659 3.477-.084.817-.743.987-1.777 1.496-2.667.51-.89 1.684-1.717 3.026-1.438.567.118 1.057.42 1.618.566 1.678.44 3.151-.592 4.227-1.511 4.967-4.237 10.713-7.933 16.439-11.616.404-.26 2.793.977 2.45 1.829-4.246 10.479-14.921 19.052-28.68 23.036-3.756 1.089-13.607 3.292-17.476.407-3.235-2.409.224-8.596 3.462-9.82z" fill="#000E42"/><path d="M73.785 106.67c.026-1.826.779-3.142 1.339-4.81.147-.439-.432-.708-.737-.43-1.36 1.253-1.723 3.472-1.703 5.24.01.708 1.092.708 1.101 0zM76.918 108.166c1.21-2.233 2.594-4.638 3.164-7.133.16-.691-.83-1.178-1.188-.499-1.189 2.238-1.954 4.711-3.065 6.994-.353.724.698 1.358 1.089.638zM80.428 107.262c1.03-1.63 2.257-3.462 2.488-5.415.042-.346-.5-.577-.717-.298-1.176 1.518-1.835 3.446-2.825 5.098-.407.676.634 1.278 1.054.615zM88.924 105.581c1.669-2.155 3.02-4.689 3.084-7.472.013-.63-.874-.704-1.06-.144-.81 2.424-1.537 4.727-2.994 6.863-.397.577.535 1.313.97.753zM93.014 103.166c.43-.778.855-1.547 1.23-2.351.26-.554-.49-1.012-.83-.483-.48.746-.906 1.515-1.332 2.29-.34.608.596 1.153.932.544zM97.35 101.033c1.15-1.768 2.486-3.628 3.072-5.675.179-.621-.628-.855-.97-.41-1.266 1.65-2.108 3.674-3.175 5.457-.41.692.64 1.294 1.073.628zM101.587 99.38c.759-1.085 1.361-2.212 1.899-3.423.43-.97.878-1.973.731-3.046-.064-.457-.689-.522-.971-.256-.762.72-1.066 1.851-1.483 2.796-.47 1.063-.989 2.11-1.489 3.161-.42.887.753 1.576 1.313.769zM106.033 97.219c1.482-2.466 3.189-5.835 3.292-8.76.019-.56-.75-.73-1.025-.278-.753 1.24-1.147 2.735-1.694 4.074-.606 1.48-1.252 2.94-1.871 4.413-.32.76.894 1.217 1.298.55zM111.416 91.761c.708-.733 1.176-1.662 1.691-2.53.522-.877 1.028-1.748 1.352-2.725.253-.762-.817-1.377-1.355-.788-.692.756-1.201 1.624-1.713 2.511-.506.877-1.086 1.739-1.381 2.716-.24.8.827 1.415 1.406.817z" fill="#2870F6"/><path d="M147.804 71.527s.775.417 1.618.602c1.438.32 9.544 4.276 10.578 2.739-2.181 3.247-5.979 6.075-9.883 6.303-4.167.243-8.205-.958-12.366-.625-4.198.336-7.667 4.279-11.555 5.745l-4.189-4.128s1.621-.682 1.361-2.962a15.147 15.147 0 012.495-10.133c1.851-2.722 4.766-5.531 3.837-8.686-.343-1.165-1.182-2.107-1.848-3.125-3.516-5.378-2.095-12.459-.544-18.697.224 3.57.666 7.583 3.465 9.816 1.05.839 2.335 1.329 3.449 2.081a8.73 8.73 0 013.443 4.692c-.055-2.716 3.183-5.4 4.993-7.424 2.632-2.943 4.403-4.272 7.465-6.764.275-.214-.429 2.793-.532 3.344-.586 3.158-1.178 6.345-1.146 9.57.029 2.78 2.05 5.005 2.264 7.756a10.545 10.545 0 01-1.012 5.365c-.413.842-1.893 4.531-1.893 4.531z" fill="#000E42"/><path d="M126.747 80.93c1.787-1.764 1.284-4.032 1.441-6.296.186-2.665 1.919-4.692 3.421-6.754 1.335-1.835 2.517-3.715 2.834-6.012.279-2.024.035-4.932-1.464-6.45-.368-.371-.899.02-.819.477.208 1.18.775 2.23.916 3.443.14 1.208.067 2.46-.225 3.642-.515 2.088-1.803 3.776-3.017 5.499-.989 1.402-1.969 2.879-2.424 4.557-.628 2.322.458 5.278-1.447 7.116-.507.493.278 1.275.784.778zM135.429 68.994c2.595-2.985 3.254-6.264 2.873-10.136a.32.32 0 00-.64 0c-.324 3.516-.651 6.568-2.912 9.457-.371.474.266 1.156.679.679z" fill="#2870F6"/><path d="M146.2 49.468c-3.033 3.516-4.695 7.641-5.057 12.262-.211 2.713-.179 5.474-1.784 7.809-1.409 2.05-3.552 3.25-5.915 3.865-.942.247-.525 1.573.394 1.428 4.554-.723 7.513-4.759 8.08-9.124.362-2.786.227-5.566.98-8.301a22.782 22.782 0 013.709-7.622c.179-.237-.215-.538-.407-.317zM142.626 73.314c1.656-2.046 2.882-4.339 3.475-6.91.669-2.896.502-5.948.858-8.891.077-.628-.855-.666-1.041-.141-.925 2.604-.307 5.508-.791 8.202-.471 2.63-1.563 5.102-3.113 7.267-.256.355.33.816.612.474zM130.975 79.989c2.715-2.072 7.119-2.93 10.485-2.764 2.508.125 6.325 2.091 8.183-.59.24-.349-.212-.653-.519-.518-2.072.906-3.731.541-5.887.198-1.601-.256-3.164-.09-4.765.084-2.959.32-5.806.765-8.125 2.77-.442.384.157 1.182.628.82z" fill="#2870F6"/><path d="M81.539 121.649c-1.012 2.036.436 4.47 2.239 5.908 1.803 1.438 5.194-1.162 6.607.641 6.097 7.786 15.033.394 17.486-3.962 3.084-5.47 2.95-9.909 10.905-11.033 2.21-.314 3.773-2.706 4.487-4.823.602-1.787.173-3.731.025-5.614-.265-3.414 3.315-5.71 2.716-8.756-.163-.833-3.388-4.32-3.103-4.823l-3.465 6.213c-3.267 5.854-6.623 11.824-11.674 16.32-5.051 4.494-11.834 9.275-20.369 11.155l-5.854-1.226z" fill="#000E42"/><path d="M122.004 94.045c1.137 2.658-.804 4.077-1.947 6.149-.798 1.445-.218 4.071-1.589 5.083-.541.397-.083 1.239.535.916.833-.436 1.304-1.157 1.515-2.072.346-1.493.144-2.764 1.047-4.125 1.387-2.089 2.428-3.863 1.044-6.303-.23-.404-.778-.052-.605.352zM97.427 123.365c1.74.122 3.1-1.31 3.718-2.805.17-.414-.454-.74-.736-.43-.868.964-1.496 2.396-2.982 2.454-.506.019-.5.746 0 .781zM85.321 124.995c1.976.596 4.067.695 6.056.096.683-.205.385-1.146-.288-1.041-1.857.292-3.657.369-5.521.039-.586-.103-.836.73-.247.906zM118.273 111.515c2.034-.711 3.785-2.715 3.308-4.983-.105-.499-.752-.391-.906 0-.612 1.55-1.371 2.988-2.892 3.814-.631.34-.205 1.413.49 1.169z" fill="#2870F6"/><path d="M75.015 121.287c.205.08.423.166.567.333.269.31.202.816-.064 1.133-.263.317-.67.478-1.07.574-.8.192-1.662.176-2.43-.122-.77-.298-1.435-.887-1.759-1.643-.406-.951-.131-1.986.942-1.826 1.198.177 2.67 1.102 3.814 1.551z" fill="#fff"/><path d="M97.606 128.131c3.261-.013 6.025-1.64 7.738-4.398 1.777-2.86 2.511-6.081 4.798-8.656.4-.449-.1-1.118-.644-.833-2.463 1.287-3.366 4.106-4.391 6.511-1.438 3.375-3.574 6.072-7.5 6.415-.606.054-.628.964 0 .961z" fill="#2870F6"/><path d="M73.718 120.691c-.845-.41-1.736-.842-2.514-.958-1.073-.16-1.348.875-.942 1.826.324.759.99 1.348 1.759 1.643.144.054.291.099.442.134.781-.672 1.268-1.588 1.255-2.645z" fill="#000E42"/><path d="M96.735 114.244l-.048-.045a.914.914 0 00-.384-.246.92.92 0 00-.461-.103c-.106.013-.212.029-.317.042-.202.057-.378.16-.529.307l-.048.045-.198.256c-.042.1-.087.202-.128.301a.96.96 0 00-.023.503c0 .115.029.221.087.32a.619.619 0 00.163.279c.058.096.131.17.227.227.08.077.173.132.279.164a.95.95 0 00.487.109l.336-.045c.1-.042.202-.087.301-.128l.256-.199.199-.256c.041-.099.086-.202.128-.301a.96.96 0 00.022-.503.623.623 0 00-.086-.32 1 1 0 00-.263-.407zM90.064 115.118c1 0 1.003-1.553 0-1.553-.999 0-1.002 1.553 0 1.553zM82.295 115.49c.185.006.358-.032.519-.116.166-.054.31-.147.432-.278a1.01 1.01 0 00.278-.433c.084-.16.122-.333.116-.518l-.048-.359a1.37 1.37 0 00-.346-.596l-.272-.211a1.33 1.33 0 00-.68-.183 1.026 1.026 0 00-.518.116c-.167.054-.31.147-.432.278a1.01 1.01 0 00-.28.433c-.082.16-.12.333-.114.518l.048.359c.064.228.179.426.346.596l.272.211c.211.122.435.183.679.183zM73.135 113.104c.967 0 .97-1.505 0-1.505s-.97 1.505 0 1.505zM98.628 109.683c1.182 0 1.182-1.835 0-1.835s-1.182 1.835 0 1.835zM109.754 101.821c.65 0 .65-1.009 0-1.009s-.65 1.009 0 1.009zM117.152 91.384c.958 0 .958-1.49 0-1.49-.958.004-.961 1.49 0 1.49z" fill="#fff"/><path d="M56.062 117.594c1.047 2.062 3.366 3.766 5.762 3.347.393-.068.397-.73 0-.798-2.12-.352-3.969-.967-5.147-2.908-.24-.394-.823-.048-.615.359z" fill="#000E42"/><path d="M95.903 55.822c-20.68 6.847-43.566 30.466-45.897 25.89-4.093-8.036 7.497-36.321 30.034-49.625 11.376-6.713 27.296-3.942 33.826 2.597 6.527 6.537.538 15.011-17.963 21.138z" fill="#2870F6"/><path d="M96.056 27.549c-.438.131-2.354 1.092-1.713 1.694.08.074.208.09.33.103.977.099 4.298 1.024 5.768.31.557-.269.477-.954.288-1.316-.234-.452-.733-.743-1.255-.893-.779-.225-2.23-.257-3.418.102zM103.461 53.695c-.452.07-2.594.039-2.28-.781.038-.103.147-.173.253-.234.839-.512 3.426-2.79 5.06-2.783.618.003.845.653.832 1.06-.016.51-.339.986-.743 1.352-.605.538-1.896 1.194-3.122 1.386z" fill="#fff"/><path d="M96.809 33.948c-1.73-.458-3.484-.208-5.111.541l-9.218 4.247c-1.053.487-2.242 1.134-2.45 2.274-.227 1.24.775 2.744-.099 3.654-.39.407-1.005.474-1.563.58-2.373.445-4.5 2.052-5.576 4.217-.589 1.185-.89 2.537-1.748 3.546-.58.682-1.368 1.146-2.091 1.675-3.322 2.414-5.455 6.389-5.63 10.492 8.099-3.51 13.313-11.517 20.743-16.283 3.497-2.241 11.311-3.395 14.338-6.2.003-.003.519-8.186-1.595-8.743z" fill="#000E42"/><path d="M95.647 42.089c.057-1.633.041-3.299-.52-4.849-.092-.253-.505-.234-.493.067.061 1.602.33 3.174.327 4.782 0 .442.67.439.686 0zM94 43.12c.01-1.188.02-2.572-.429-3.69-.157-.39-.762-.368-.772.106-.025 1.188.304 2.409.458 3.584.058.461.74.493.743 0zM89.879 44.247c-.443-2.03-1.073-3.993-2.034-5.841-.202-.388-.874-.119-.718.3.705 1.906 1.365 3.815 1.842 5.791.138.593 1.038.343.91-.25zM85.709 45.96c-.317-.86-.631-1.706-1.028-2.536-.221-.467-.97-.137-.827.35.247.838.56 1.64.884 2.453.234.595 1.195.349.97-.266zM83.736 46.835c-.247-.861-.56-1.822-1.204-2.472-.465-.47-1.326.006-1.128.656.23.76.666 1.448.913 2.207.295.894 1.682.525 1.419-.39zM80.472 49.023c-.525-.436-.967-.98-1.4-1.506-.342-.413-1.05.03-.89.52.27.838.846 1.444 1.608 1.87.535.3 1.192-.462.682-.884zM78.07 51.485c-.714-.637-1.383-1.322-2.097-1.956-.484-.433-1.086.208-.698.698.624.79 1.402 1.428 2.21 2.02.441.32.992-.397.585-.762zM76.456 53.605c-.371-.477-.72-.925-1.207-1.29-.423-.317-.92.285-.689.688.298.522.721.932 1.14 1.358.202.205.551.202.756 0 .224-.224.176-.525 0-.756zM73.071 56.747l-.778-1.181c-.276-.417-.474-.769-.977-.916-.291-.087-.564.15-.573.435-.02.522.282.833.59 1.22l.87 1.112c.385.496 1.214-.148.868-.67zM70.817 59.098c-.513-.624-1.093-1.3-1.794-1.72-.477-.285-1.002.381-.599.775.567.551 1.208 1.006 1.749 1.586.41.435 1.009-.196.644-.64zM67.271 61.48c-.32-.329-.656-.65-1.05-.89a.565.565 0 00-.727.145c-.176.237-.141.518.045.74.297.355.675.62 1.05.89.227.16.573.06.727-.144a.57.57 0 00-.045-.74z" fill="#2870F6"/><path d="M13.66 82.432C7.94 84.415 2.51 88.12 0 93.625c2.649-3.106 7.254-3.606 11.321-3.26 4.068.346 8.228 1.304 12.173.256 1.403-.371 2.761-.996 4.212-1.066 1.45-.074 3.09.608 3.507 2.001-2.927 2.249-5.925 4.574-7.821 7.741-1.544 2.578-2.267 5.704-1.672 8.651.596 2.943 2.6 5.643 5.387 6.767 1.854.749 3.984.81 5.678 1.87 3.168 1.982 3.488 6.492 2.742 10.152-.746 3.661-2.204 7.392-1.31 11.017 2.06-.643 2.719-3.145 3.407-5.191a19.72 19.72 0 014.81-7.712c1.154-1.14 2.505-2.219 3.008-3.763.813-2.488-.852-5.012-2.018-7.356-2.997-6.037-1.45-11.472 2.342-16.667 3.705-5.076 6.651-9.009 7.622-15.485l-4.138-5.569c-5.313-.564-11.722 2.171-16.593 2.914-6.36.968-12.871 1.384-18.998 3.507z" fill="#000E42"/><path d="M50.47 82.157c-1.57 4.852-6.597 7.065-9.582 10.87-2.508 3.196-3.85 7.125-3.721 11.186.025.817 1.242.817 1.268 0 .144-4.653 1.886-8.951 5.207-12.234 2.947-2.91 6.607-5.326 7.491-9.64.083-.429-.528-.602-.663-.182zM37.106 107.864c.003 1.976.79 3.674 1.79 5.339 1.13 1.88 2.943 3.962 2.927 6.274-.016 2.354-2.495 2.905-3.497 4.705-.83 1.489-1.147 3.193-1.855 4.727-.317.682.664 1.284 1.025.599.836-1.589 1.064-3.494 2.012-5.019 1.04-1.678 3.119-2.174 3.523-4.365.851-4.593-4.776-7.802-4.977-12.26-.03-.605-.948-.611-.948 0zM47.962 78.147c-6.908-1.912-11.81 4.545-18.024 6.005-3.465.814-7.043-.298-10.546.144-3.049.385-6.213 1.589-8.43 3.77-.397.39.129 1.117.609.79 2.783-1.889 5.595-3.413 9.025-3.647 3.129-.215 6.255.653 9.37.026 6.124-1.24 11.047-7.93 17.73-6.114.625.166.891-.8.267-.974zM44.914 82.874c-3.084 4.44-10.047 7.085-11.091 12.808-.093.509.647.922.9.38 1.28-2.712 3.023-4.704 5.284-6.651 2.14-1.842 4.237-3.61 5.614-6.12.266-.474-.406-.849-.707-.417zM45.855 80.38c-2.149.867-4.224 1.892-6.19 3.125-1.79 1.121-3.796 2.37-5.077 4.077-.282.375.257.84.622.621 1.857-1.117 3.417-2.703 5.236-3.897a38.436 38.436 0 015.758-3.094c.465-.208.128-1.025-.349-.833zM31.757 94.91c-2.488 3.401-7.61 7.68-5.57 12.468.18.419.866.198.846-.228-.125-2.418.34-4.394 1.605-6.479 1.14-1.873 2.597-3.529 3.782-5.374.27-.426-.378-.778-.663-.387zM33.458 103.842c-1.633 2.937-2.328 6.501-1.102 9.717.138.355.788.352.73-.1-.394-3.183-.282-6.213 1.205-9.127.281-.551-.529-1.035-.833-.49z" fill="#2870F6"/><path d="M60.824 51.13c-2.693 4.817-5.662 1.457-10.053 4.839-.781-2.722-.611-4.218.288-6.716.875-2.43.958-5.009 1.79-7.44 1.72-5.015 6.63-5.454 10.81-7.478 2.856-1.383 5.636-3.052 8.531-4.336 3.318-1.473 7.655-1.838 10.29.685.004 0-16.32 10.905-21.656 20.446z" fill="#000E42"/><path d="M79.97 31.06c-3.107-.404-6.172.057-9.013 1.392-2.988 1.406-5.796 3.21-8.765 4.676-4.689 2.316-7.968 7.062-7.43 12.43.073.72 1.166.752 1.146 0-.064-2.57.503-5.057 1.947-7.213 1.483-2.216 3.59-3.52 5.97-4.605 2.43-1.108 4.67-2.524 7.052-3.715 2.841-1.419 5.919-2.082 9.09-2.098.576-.006.537-.8.003-.868z" fill="#2870F6"/><path d="M67.297 38.114c-3.152 2.095-5.717 4.955-7.107 8.5-.227.583.73.983 1.012.426 1.605-3.187 3.68-5.96 6.614-8.038.531-.378.038-1.26-.52-.888z" fill="#2870F6"/><path d="M93.965 56.507c2.088 3.645-1.374 9.25-5.297 10.751-1.224.468-2.597.618-3.664 1.384-.72.519-1.233 1.275-1.752 1.995-3.779 5.217-5.438 10.806-14.953 11.866 2.767-3.686 3.856-8.583 2.915-13.096 6.382-5.393 14.75-10.485 22.751-12.9z" fill="#000E42"/><path d="M89.747 59.55c1.163 4.282-5.992 4.704-8.096 7.039-.913 1.015-1.33 2.335-1.771 3.597-.74 2.11-1.8 3.711-4.074 4.307-.746.195-.426 1.288.317 1.147 1.9-.365 3.376-1.49 4.253-3.216 1.025-2.018 1.15-4.474 3.206-5.816 2.581-1.684 9.006-2.716 7.123-7.321-.24-.57-1.128-.368-.958.263zM83.922 62.797c-3.597 1.643-7.83 4.308-8.801 8.455-.125.538.685.948.938.397 1.749-3.837 4.526-6.267 8.247-8.189.445-.23.054-.865-.384-.663z" fill="#2870F6"/><path d="M100.729 28.34c-.234-.452-.733-.743-1.255-.894-.372-.108-.9-.17-1.477-.166-.42.83-.403 1.864.106 2.607.893.077 1.758.051 2.338-.23.557-.27.477-.955.288-1.317zM106.494 49.894c-.74-.004-1.678.464-2.559 1.021-.125 1.009.227 1.845 1.002 2.348.686-.282 1.288-.64 1.643-.961.404-.362.73-.842.743-1.352.016-.403-.211-1.053-.829-1.056z" fill="#000E42"/><path d="M95.919 51.354l-.048-.045a.882.882 0 00-.388-.25.89.89 0 00-.464-.102c-.106.013-.215.029-.32.041-.206.058-.382.16-.532.311l-.048.045c-.067.086-.132.173-.199.256-.041.103-.086.202-.128.304a.941.941 0 00-.022.506c0 .116.029.221.086.32a.612.612 0 00.163.282.62.62 0 00.228.228c.08.08.173.134.282.163.15.08.314.116.49.11.112-.017.224-.03.34-.046.102-.041.201-.086.303-.128.087-.067.173-.131.257-.198.067-.087.131-.173.198-.257.042-.102.087-.201.128-.304a.94.94 0 00.023-.506.625.625 0 00-.087-.32.923.923 0 00-.262-.41zM87.006 54.646c1.53 0 1.534-2.38 0-2.38-1.531 0-1.534 2.38 0 2.38zM78.59 60.517c.835 0 .835-1.297 0-1.297-.837 0-.837 1.297 0 1.297zM72.978 63.556c1.134 0 1.137-1.764 0-1.764-1.133 0-1.137 1.764 0 1.764zM63.96 71.153c1.114 0 1.114-1.73 0-1.73-1.112 0-1.115 1.73 0 1.73zM86.413 34.982c.035-.01.07-.02.11-.029a.846.846 0 00.393-.22.536.536 0 00.15-.234.523.523 0 00.061-.28.747.747 0 00-.211-.511.82.82 0 00-.394-.221l-.109-.03c-.266-.07-.58-.002-.768.203a.825.825 0 00-.231.557.616.616 0 00.067.304c.032.1.087.182.164.253a.795.795 0 00.768.208zM68.235 50.246h.135a.789.789 0 00.41-.093.774.774 0 00.342-.22.834.834 0 00.221-.343.821.821 0 00.093-.41l-.038-.282a1.091 1.091 0 00-.272-.471l-.215-.167a1.058 1.058 0 00-.538-.144h-.135a.788.788 0 00-.41.093.774.774 0 00-.342.221.834.834 0 00-.221.343.821.821 0 00-.093.41l.038.282c.052.179.141.336.273.47l.214.167c.167.096.346.144.538.144z" fill="#fff"/><path d="M131.782 109.357c5.556.39 6.687-5.999 6.664-10.188-.006-.986-1.402-.941-1.502 0-.269 2.569-.528 5.355.849 7.674 1.034 1.745 2.802 2.975 4.871 2.892.999-.039 1.009-1.582 0-1.563-5.572.112-6.296 6.363-7.302 10.501.506.067 1.009.138 1.515.205-.019-1.624-.042-3.251-.067-4.874-.019-1.169.137-2.546-.34-3.648-.727-1.691-2.953-2.476-4.676-2.36a.62.62 0 00-.163 1.213c.65.228 1.352.282 1.995.532 1.32.516 1.595 1.384 1.611 2.738.023 2.133.061 4.266.1 6.399.016.849 1.306 1.073 1.514.205.782-3.283 1.166-9.444 5.816-9.348v-1.563c-4.602-.003-4.499-5.784-4.221-9.003h-1.502c.026 3.411-.535 8.942-5.162 8.804-.9-.025-.881 1.323 0 1.384zM54.829 99.144c2.946-.372 3.792-3.104 3.907-5.714l-1.374.186c.228 1.348.237 3.11 1.358 4.083.942.82 2.3.823 3.472.763-.067-.5-.135-1.003-.205-1.502-1.304.531-2.54 1.133-3.068 2.526-.631 1.659.038 3.475-.609 5.134l1.49.202c-.141-1.621-.25-3.712-1.166-5.112-.81-1.236-2.114-1.2-3.424-1.514-.532-.128-.935.679-.39.928 1.037.474 2.26.375 2.824 1.557.577 1.207.593 2.847.64 4.144.033.89 1.186.98 1.49.202.397-1.022.381-2.043.368-3.126-.019-1.816.545-2.77 2.252-3.459.727-.294.736-1.572-.205-1.502-1.092.08-2.373.228-2.947-1.028-.355-.778-.38-1.825-.535-2.658-.147-.797-1.351-.577-1.373.186-.058 1.931-.484 4.128-2.656 4.644-.576.128-.467 1.14.151 1.06zM107.919 62.144c2.946-.372 3.792-3.104 3.907-5.714l-1.374.186c.228 1.348.237 3.11 1.358 4.083.942.82 2.3.823 3.472.763-.068-.5-.135-1.003-.205-1.503-1.304.532-2.54 1.134-3.068 2.527-.631 1.66.038 3.475-.609 5.134l1.489.202c-.141-1.62-.249-3.712-1.165-5.111-.811-1.237-2.114-1.201-3.424-1.515-.532-.128-.935.679-.391.928 1.038.474 2.261.375 2.825 1.557.576 1.207.592 2.847.64 4.144.033.89 1.185.98 1.49.202.397-1.022.381-2.043.368-3.126-.019-1.816.544-2.77 2.251-3.459.727-.294.737-1.572-.204-1.502-1.093.08-2.374.228-2.947-1.028-.355-.778-.381-1.825-.535-2.658-.147-.797-1.351-.576-1.374.186-.057 1.931-.483 4.128-2.655 4.644-.576.128-.467 1.136.151 1.06zM33.403 44.795c5.125-.067 6.338-5.672 6.694-9.736h-1.544c.465 3.648 1.842 8.875 6.6 8.35-.076-.564-.153-1.128-.227-1.692-1.988.305-3.292 1.864-3.913 3.696-.849 2.505-.974 5.39-1.37 7.994h1.616c-.54-2.581-.759-5.361-2.401-7.549-1.342-1.787-3.427-2.892-5.65-2.328-.913.23-.525 1.598.388 1.406 4.535-.958 6.139 5.377 6.014 8.695-.035.926 1.499 1.169 1.65.224.31-1.966.592-3.936.928-5.896.337-1.957.913-4.227 3.196-4.576.948-.145.737-1.797-.227-1.691-3.801.42-4.673-3.99-5.086-6.832-.131-.906-1.457-.608-1.515.205-.23 3.325-.832 8.388-5.15 8.603-.726.029-.736 1.137-.003 1.127z" fill="#2870F6"/></g><defs><clipPath id="clip0_12321_6361"><path fill="#fff" transform="translate(0 14.751)" d="M0 0h160v130.497H0z"/></clipPath></defs></svg>