<svg width="160" height="160" viewBox="0 0 160 160" fill="none" xmlns="http://www.w3.org/2000/svg"><g clip-path="url(#clip0_12319_18633)"><path d="M.004 80.5c-.14-18.4 6.84-36.379 21.034-51.046C45.86 3.798 90.244-5.808 123.356 12.027c69.756 37.575 26.572 136.775-19.387 144.129-32.15 5.144-70.887-4.481-89.135-30.894C5.08 111.14.117 95.678.004 80.5z" fill="#FEEBEB"/><path d="M16.477 105.409c2.68.905 9.016 5.178 11.521 6.503.17.091.345.186.47.337.22.273.22.659.212 1.011-.11 3.512 1.79 10.961 1.499 14.466a40.026 40.026 0 004.86-3.368c.136-.11.28-.231.34-.398.046-.125.038-.257.03-.39-.17-3.421-2.444-10.783-2.615-14.205 0 0-9.701-6.488-13.145-7.877l-3.172 3.921z" fill="#F93F25"/><path d="M23.157 100.822c2.68.905 9.016 5.178 11.522 6.503.17.091.344.185.47.337.219.272.219.658.211 1.01-.11 3.513 1.79 10.962 1.5 14.467a39.921 39.921 0 004.86-3.369c.136-.11.28-.231.34-.397.045-.125.038-.258.03-.39-.17-3.422-2.445-10.784-2.615-14.206 0 0-9.701-6.487-13.146-7.877l-3.172 3.922z" fill="#F93F25"/><path d="M29.44 96.878c2.68.904 9.017 5.178 11.522 6.503.17.09.345.185.47.336.22.273.22.659.212 1.011-.11 3.513 1.79 10.962 1.499 14.467 1.7-1 3.323-2.127 4.86-3.369.136-.11.28-.231.34-.397.046-.125.038-.258.03-.39-.17-3.422-2.444-10.784-2.615-14.206 0 0-9.701-6.487-13.146-7.877l-3.171 3.922zM127.422 51.653c1.976-7.574-3.009-15.61-9.762-19.538-6.753-3.93-14.849-4.64-22.65-4.955-7.801-.314-15.807-.36-23.09-3.183-7.937-3.081-14.523-9.497-17.823-17.363-.44-1.048-.875-2.184-1.806-2.83-.836-.58-2.256-.5-2.778.472-.496.931.193 2.835.424 3.82.674 2.846 1.802 5.579 3.263 8.107 2.918 5.053 7.138 9.327 11.998 12.518 8.339 5.477 18.29 7.978 28.18 9.201 4.826.594 9.759.924 14.297 2.672 4.538 1.75 8.736 5.231 9.883 9.97.602 2.483.999 5.216 2.555 7.325 1.881 2.55 5.223 3.24 7.43 5.439 2.899 2.884 3.967 7.48 4.023 11.446.072 5.174-1.396 10.223-2.456 15.288-1.923 9.198-2.491 18.842-.159 27.941 2.332 9.1 7.809 17.628 15.924 22.333.81.469 1.802.908 2.646.499.95-.458 1.154-1.802.73-2.767-.424-.965-1.287-1.654-2.082-2.343-6.014-5.216-9.864-12.865-10.473-20.814-.609-7.983 1.904-15.83 4.182-23.502 2.283-7.672 4.384-15.727 2.945-23.6-1.438-7.873-7.445-15.485-15.401-16.136z" fill="#F93F25"/><path d="M65.497 20.025c-2.15 1.673-4.36 4.573-4.466 7.396-.057 1.457 2.112 2.078 2.79.757.552-1.079.832-2.233 1.468-3.281.632-1.049 1.45-1.908 2.381-2.7 1.525-1.305-.651-3.353-2.173-2.172zM61.44 16.649c-2.116 1.412-4.554 3.955-4.633 6.67-.042 1.392 1.923 1.884 2.6.703.507-.882.761-1.85 1.336-2.71.568-.855 1.317-1.586 2.143-2.192 1.446-1.07.113-3.512-1.446-2.471z" fill="#8F1202"/><path d="M131.846 123.419c-19.841-11-41.662-18.434-63.79-23.218a304.35 304.35 0 00-19.164-3.486l1.136 1.998c6.582-23.085 11.4-46.806 13.925-70.69.223-2.112-3.043-2.07-3.29 0-2.808 23.611-7.266 46.943-13.77 69.828-.219.768.27 1.87 1.136 1.998 28.737 4.3 56.523 12.654 82.296 26.174 1.715.901 3.225-1.658 1.521-2.604z" fill="#8F1202"/><path d="M135.912 120.493c-1.265 1.726-3.165 2.82-5.182 3.418-1.942.575-1.132 3.55.836 3.039 2.877-.745 5.318-2.456 6.976-4.92 1.109-1.647-1.491-3.085-2.63-1.537zM139.019 125.308c-1.264 1.726-3.164 2.82-5.182 3.418-1.941.575-1.131 3.55.837 3.039 2.877-.746 5.318-2.456 6.976-4.921 1.109-1.65-1.495-3.088-2.631-1.536zM140.2 40.04c.375-.037.738-.007 1.049.145.643.306.954.972 1.09 1.638.193.94-.186 1.802-.746 2.54-1.363 1.787-8.164 5.553-10.083 6.624-26.208 14.664-49.873 28.703-74.733 45.577-3.615 2.452-20.205 13.138-23.782 15.647-2.055 1.442-5.86 4.697-7.915 2.453-2.082-2.279-.057-4.296 1.329-5.284 5.787-4.126 24.38-16.386 30.428-20.118A3674.628 3674.628 0 0196.8 64.935c7.355-4.413 14.743-8.77 22.113-13.164 4.091-2.442 7.324-4.47 11.12-6.632 1.034-.587 6.681-3.838 7.779-4.303.643-.28 1.555-.708 2.388-.795z" fill="#8F1202"/><path d="M141.063 41.384c-.375 4.368-.204 6.03-.484 10.311 0 0 1.506-1.567 1.828-1.885 6.018-5.965 8.433-10.595 12.763-17.752.046-.072.224-.473.295-.488-8.289 1.559-15.655 3.607-23.815 6.007-.186.053-.943.412-1.128.333 10.541 3.474 10.643 2.263 10.541 3.474zM81.399 30.131c8.573.985 17.513.428 25.931 2.533 3.702.923 7.283 2.44 10.254 4.875 1.314 1.075 2.51 2.313 3.486 3.702 1.022 1.453 1.541 3.092 2.396 4.625.273.484 1.143.295 1.094-.295-.28-3.168-2.896-6.23-5.204-8.23-2.82-2.44-6.208-4.095-9.785-5.105-4.224-1.196-8.626-1.597-12.994-1.855-5.05-.299-10.121-.659-15.178-.659-.27 0-.254.379 0 .41z" fill="#8F1202"/><path d="M90.014 33.985c6.994-.197 13.864 1.355 20.424 3.637.617.216 1.03-.76.447-1.056-3.153-1.609-6.844-2.108-10.307-2.608-3.464-.5-7.17-1.283-10.64-.549-.326.068-.254.583.076.576zM125.813 58.258c9.872 4.63 9.504 17.325 7.339 26.44-.825 3.474-1.824 6.903-2.433 10.427-.837 4.838-1.568 10.398-.527 15.228.091.416.818.45.879 0 .408-2.987.196-6.037.42-9.047a62.027 62.027 0 011.014-7.52c.723-3.65 1.859-7.207 2.544-10.868 1.703-9.084.655-21.079-8.857-25.326-.436-.193-.826.458-.379.666zM139.364 76.9c-.716 5.715-2.188 11.174-3.857 16.67-.193.632.749.866.972.268 2.052-5.405 3.085-11.2 3.634-16.938.045-.485-.693-.466-.749 0zM135.018 96.692c-.382 1.397-.787 2.858-.821 4.315-.011.458.689.557.799.11.344-1.382.469-2.824.742-4.224.094-.47-.591-.67-.72-.2z" fill="#8F1202"/><mask id="a" style="mask-type:luminance" maskUnits="userSpaceOnUse" x="49" y="3" width="100" height="138"><path d="M127.422 51.653c1.976-7.574-3.009-15.61-9.762-19.538-6.753-3.93-14.849-4.64-22.65-4.955-7.801-.314-15.807-.36-23.09-3.183-7.937-3.081-14.523-9.497-17.823-17.363-.44-1.048-.875-2.184-1.806-2.83-.836-.58-2.256-.5-2.778.472-.496.931.193 2.835.424 3.82.674 2.846 1.802 5.579 3.263 8.107 2.918 5.053 7.138 9.327 11.998 12.518 8.339 5.477 18.29 7.978 28.18 9.201 4.826.594 9.759.924 14.297 2.672 4.538 1.75 8.736 5.231 9.883 9.97.602 2.483.999 5.216 2.555 7.325 1.881 2.55 5.223 3.24 7.43 5.439 2.899 2.884 3.967 7.48 4.023 11.446.072 5.174-1.396 10.223-2.456 15.288-1.923 9.198-2.491 18.842-.159 27.941 2.332 9.1 7.809 17.628 15.924 22.333.81.469 1.802.908 2.646.499.95-.458 1.154-1.802.73-2.767-.424-.965-1.287-1.654-2.082-2.343-6.014-5.216-9.864-12.865-10.473-20.814-.609-7.983 1.904-15.83 4.182-23.502 2.283-7.672 4.384-15.727 2.945-23.6-1.438-7.873-7.445-15.485-15.401-16.136z" fill="#fff"/></mask><g mask="url(#a)"><path d="M69.162 30.26c.14-1.658.753-2.415 1.831-2.275.315 0 .621.03.928.091.583.072 1.162.174 1.737.291 1.374.284 3.4 1.272 3.44 2.98-.344.817-.684 1.634-1.029 2.456-.409.007-.814.019-1.222.026-.708-.136-1.28-.571-1.828-.995-.424-.33-1.234-.875-.81-1.548.253-.41 1.797-.314 2.244-.367.492-.061.492-.704 0-.765-.973-.121-3.111-.148-3.57 1.007-.412 1.044.913 1.98 1.583 2.494 1.896 1.461 5.844 1.92 5.799-1.483-.053-3.948-3.664-4.985-6.923-5.224-1.295-.095-2.9.186-3.494 1.525-.431.977-.072 1.92.825 2.415.39.212.833-.314.489-.628z" fill="#8F1202"/></g><mask id="b" style="mask-type:luminance" maskUnits="userSpaceOnUse" x="49" y="3" width="100" height="138"><path d="M127.422 51.653c1.976-7.574-3.009-15.61-9.762-19.538-6.753-3.93-14.849-4.64-22.65-4.955-7.801-.314-15.807-.36-23.09-3.183-7.937-3.081-14.523-9.497-17.823-17.363-.44-1.048-.875-2.184-1.806-2.83-.836-.58-2.256-.5-2.778.472-.496.931.193 2.835.424 3.82.674 2.846 1.802 5.579 3.263 8.107 2.918 5.053 7.138 9.327 11.998 12.518 8.339 5.477 18.29 7.978 28.18 9.201 4.826.594 9.759.924 14.297 2.672 4.538 1.75 8.736 5.231 9.883 9.97.602 2.483.999 5.216 2.555 7.325 1.881 2.55 5.223 3.24 7.43 5.439 2.899 2.884 3.967 7.48 4.023 11.446.072 5.174-1.396 10.223-2.456 15.288-1.923 9.198-2.491 18.842-.159 27.941 2.332 9.1 7.809 17.628 15.924 22.333.81.469 1.802.908 2.646.499.95-.458 1.154-1.802.73-2.767-.424-.965-1.287-1.654-2.082-2.343-6.014-5.216-9.864-12.865-10.473-20.814-.609-7.983 1.904-15.83 4.182-23.502 2.283-7.672 4.384-15.727 2.945-23.6-1.438-7.873-7.445-15.485-15.401-16.136z" fill="#fff"/></mask><g mask="url(#b)"><path d="M142.861 60.658c-.848-2.116-2.252-4.353-4.5-5.178-2.116-.776-3.184.182-3.468 2.267-.688 5.012.951 10.81 4.588 14.425 1.359 1.348 3.225 1.564 4.376-.17 1.207-1.82 1.018-5.03.223-6.953-.515-1.246-2.65-4.171-4.395-3.316-1.729.852.11 4.395.746 5.398.231.363.901.132.731-.307-.277-.704-.553-1.408-.746-2.142a7.669 7.669 0 01-.265-1.465c.772-.239 1.382-.034 1.832.617 1.2 1.238 1.556 2.99 1.518 4.66-.015.688-.053 1.483-.326 2.127-.783 1.835-2.104 1.415-3.168.196a15.621 15.621 0 01-2.294-3.531c-1.211-2.544-1.794-5.383-1.635-8.195.034-.572-.091-1.575.258-1.998.741-.913 1.741-.379 2.46.083 1.442.927 2.161 2.517 3.013 3.929.318.537 1.302.181 1.052-.447z" fill="#8F1202"/></g><path d="M13.99 66.2c8.024.007 9.924-8.99 10.47-15.27h-2.416c.42 3.32.863 6.844 2.919 9.607 1.726 2.32 4.466 3.868 7.407 3.486 1.696-.223 1.719-2.922 0-2.695-3.274.428-5.42 2.76-6.46 5.799-1.352 3.94-1.541 8.47-2.162 12.578h2.536c-.787-4.001-1.192-8.308-3.668-11.715-2.052-2.824-5.424-4.728-8.921-3.774-1.42.386-.822 2.529.605 2.2 7.109-1.636 9.561 8.535 9.402 13.637-.045 1.446 2.347 1.836 2.582.348.492-3.126.946-6.264 1.476-9.383.454-2.672 1.348-6.567 4.614-6.991v-2.695c-5.916.772-7.324-6.367-7.953-10.716-.204-1.42-2.286-.954-2.373.322-.352 5.133-1.31 13.244-8.05 13.494-1.147.038-1.155 1.767-.008 1.767zM38.021 40.048c3.263-.412 4.194-3.444 4.323-6.332l-1.522.204c.254 1.495.262 3.448 1.5 4.523 1.04.909 2.54.913 3.837.845-.075-.557-.151-1.11-.223-1.666-1.457.602-2.843 1.287-3.414 2.858-.663 1.824.045 3.808-.651 5.632.549.076 1.097.148 1.646.223-.151-1.767-.306-3.88-1.18-5.458-.848-1.529-2.347-1.537-3.895-1.889-.587-.132-1.045.758-.432 1.026 1.325.583 2.616.587 3.255 2.078.534 1.25.523 2.896.576 4.24.037.984 1.317 1.09 1.646.223.401-1.052.428-2.067.413-3.187-.027-2.044.424-3.278 2.483-4.115.802-.325.817-1.74-.224-1.665-1.241.09-2.573.242-3.255-1.14-.412-.836-.424-2.04-.59-2.944-.163-.886-1.495-.636-1.522.204-.064 2.135-.53 4.576-2.933 5.148-.644.159-.523 1.28.162 1.192zM60.577 124.532c4.27-.515 5.465-4.686 5.606-8.407l-1.522.204c.33 1.919.337 4.531 1.885 5.95 1.366 1.25 3.391 1.234 5.117 1.132-.075-.556-.151-1.109-.223-1.665-1.976.802-3.857 1.745-4.53 3.925-.754 2.434.173 5.027-.796 7.426.55.076 1.098.148 1.647.224-.178-2.355-.382-5.197-1.518-7.309-1.117-2.078-3.123-1.935-5.144-2.502-.594-.167-1.03.764-.431 1.025 1.79.788 3.785.542 4.538 2.782.64 1.908.799 4.005.878 6 .042.995 1.302 1.079 1.647.223.647-1.601.552-3.232.54-4.928-.022-2.828 1.027-4.19 3.62-5.235.806-.325.813-1.741-.224-1.665-1.514.113-3.584.31-4.489-1.238-.738-1.26-.765-3.164-1.018-4.561-.163-.882-1.5-.636-1.522.204-.08 2.972-.806 6.537-4.22 7.222-.659.14-.519 1.272.159 1.193zM90.876 138.147c7.071-.053 8.66-8.017 9.126-13.551h-1.517c.632 4.89 2.509 12.279 8.997 11.458l-.227-1.666c-2.737.375-4.497 2.612-5.315 5.11-1.15 3.532-1.347 7.525-1.907 11.185h1.593c-.602-3.634-1.014-7.68-3.346-10.701-1.81-2.346-4.644-3.857-7.6-3.088-.897.235-.519 1.593.382 1.385 6.696-1.548 8.937 7.816 8.94 12.624 0 .9 1.477 1.165 1.624.219.447-2.861.852-5.734 1.348-8.588.484-2.809 1.464-6.068 4.727-6.511.935-.128.723-1.786-.227-1.665-5.541.7-6.919-5.844-7.506-9.963-.128-.893-1.434-.598-1.491.201-.345 4.815-1.317 12.222-7.608 12.434-.708.023-.716 1.121.007 1.117zM109.885 15.127c6.155-.08 7.601-6.828 8.025-11.703h-1.851c.552 4.345 2.214 10.704 7.914 10.034-.09-.678-.181-1.355-.276-2.029-2.388.367-3.952 2.24-4.693 4.44-1.019 3.013-1.17 6.476-1.643 9.61h1.942c-.655-3.103-.909-6.442-2.881-9.076-1.608-2.146-4.107-3.475-6.775-2.801-1.098.28-.632 1.919.465 1.688 5.443-1.15 7.366 6.476 7.207 10.454-.041 1.11 1.802 1.405 1.98.27.371-2.363.711-4.732 1.113-7.09.401-2.347 1.09-5.084 3.83-5.504 1.14-.174.886-2.165-.276-2.029-4.527.53-5.606-4.826-6.098-8.213-.159-1.087-1.752-.73-1.817.246-.276 3.985-.991 10.083-6.173 10.344-.863.042-.875 1.37.007 1.36z" fill="#F93F25"/></g><defs><clipPath id="clip0_12319_18633"><path fill="#fff" transform="translate(0 2.508)" d="M0 0h160v154.985H0z"/></clipPath></defs></svg>