<svg width="160" height="160" viewBox="0 0 160 160" fill="none" xmlns="http://www.w3.org/2000/svg"><g clip-path="url(#clip0_12319_19369)"><path d="M.432 75.382c.867-8.239 2.883-16.21 6.01-23.356 16.7-38.146 75.055-47.677 110.297-32.3 24.421 10.656 35.715 35.17 33.949 61.19-3.425 50.44-39.439 68.917-78.713 69.047-50.608.168-75.63-35.719-71.543-74.581z" fill="#DAFAC7"/><path d="M42.603 84.852c.11 6.726 2.246 13.23 3.675 19.803a95.424 95.424 0 012.17 18.816c.049 3.181-.03 6.504 1.369 9.36 2.468 5.04 8.56 6.939 14.005 8.293 6.73 1.677 14.657 3.045 19.937-1.457 2.232-1.903 3.563-4.532 4.646-7.299.27-.693.528-1.392.778-2.092 2.5-7.275 6.226-14.05 10.265-20.53.453-.672.912-1.34 1.372-2.005 1.834-2.671 3.651-5.352 5.088-8.253 3.809-7.687 4.714-16.44 5.561-24.977 6.98.38 10.176-1.217 16.522-4.148 4.69-2.167 10.162-.487 14.938-2.88 2.191-1.098 1.591-4.372-.85-4.612-14.05-1.399-27.926-8.331-34.992-.264-1.406-12.089-10.467-14.08-25.611-16.131-12.058-1.636-23.434-1.193-30.617 8.63-4.934-3.576-11.657-3.124-17.65-2.02-4.22.775-9.178 1.756-13.776 1.646-2.321-.059-3.387 2.918-1.553 4.347 3.284 2.565 7.06 2.277 11.976 3.82 5.407 1.697 7.635 6.76 16.8 5.622.555 4.934-4.145 10.66-4.053 16.33z" fill="#5ACD26"/><path d="M113.447 48.283c6.555-3.196 11.006-8.925 14.554-15.542.71-.98 1.485-1.916 2.308-2.801 3.504-3.761 7.786-6.237 12.545-8.06 5.945-2.277 12.613-1.098 17.149 3.442-.353-.357-2.599-.26-3.154-.32-1.135-.123-2.277-.232-3.418-.229-6.49.02-12.268 4.65-15.768 9.816a17.004 17.004 0 00-1.485 2.736c-.408.94-.747 1.903-1.066 2.88-3.192 12.312-15.607 19.82-26.907 23.314-1.07.185-2.088.192-3.041-.051-1.9-.484-3.521-1.958-4.66-4.927-.637-1.91-.226-3.257.748-4.286.487-.514 1.117-.95 1.827-1.337 1.961-1.598 4.574-1.443 7.049-2.822a57.797 57.797 0 003.319-1.813zM52 42.173c-5.674-4.32-10.172-10.57-12.541-17.695a29.612 29.612 0 00-1.968-3.048c-3.044-4.141-7.011-7.1-11.527-9.463-5.636-2.948-12.394-2.554-17.427 1.43.394-.312 2.612.045 3.168.048 1.142.01 2.287.031 3.422.168 6.442.772 11.643 6.041 14.523 11.582.49.943.857 1.91 1.155 2.89.299.98.525 1.975.734 2.983 2.109 12.411 13.042 23.9 25.522 26.503 1.317-.113 2.561-.6 3.559-1.667 1.183-1.052 1.913-2.32 2.225-3.658.312-1.337.206-2.75-.277-4.087-1.69-3.092-5.507-1.817-7.78-4.028a35.593 35.593 0 01-2.787-1.958zM46.556 63.913c-6.46-3.264-11.845-6.294-18.205-6.606-1.91-.093-3.82-.182-5.723-.36-.473-.045-5.403-.888-5.42-.858-.466.957-.336 2.205.668 2.987 3.285 2.564 7.06 2.276 11.976 3.82 5.37 1.683 7.605 6.685 16.612 5.642l.185-.02c1.364-1.156 1.519-3.789-.093-4.605zM111.469 74.514c6.98.381 10.176-1.217 16.522-4.148 4.69-2.167 10.162-.487 14.938-2.88 1.128-.566 1.512-1.704 1.289-2.712-3.072 1.522-6.147 1.142-9.456.998-3.716-.165-7.443-.24-11.159-.024-2.359.137-4.763.404-6.909 1.392-1.406.644-2.691 1.635-3.573 2.917-.953 1.396-1.292 2.843-1.652 4.457z" fill="#4F9C1F"/><path d="M99.96 94.61c.287 1.638-.567 3.325-1.835 4.401-1.269 1.077-2.9 1.633-4.522 1.999-2.956.672-8.068-.082-3.878-3.315 2.873-2.208 6.627-3.336 10.234-3.086z" fill="#fff"/><path d="M98.125 99.011l.044-.04c.25-.895.288-1.856.055-2.764a3.537 3.537 0 00-.689-1.563 15.427 15.427 0 00-5.753 1.731c-.734 1.076-.956 2.39-.274 3.5a6.1 6.1 0 00.936 1.31 9.085 9.085 0 001.162-.181c1.622-.36 3.25-.916 4.519-1.993z" fill="#3F7026"/><path d="M51.85 86.271c-.933 1.375-.85 3.26-.134 4.759.713 1.498 1.972 2.67 3.295 3.672 2.414 1.824 7.375 3.23 4.886-1.43-1.704-3.185-4.66-5.753-8.047-7.001z" fill="#fff"/><path d="M51.713 91.03c-.01-.017-.017-.038-.024-.055.137-.915.497-1.807 1.083-2.537.35-.511.785-.888 1.269-1.138a15.379 15.379 0 014.525 3.936c.227 1.278-.11 2.567-1.186 3.298-.36.291-.854.583-1.389.809a9.185 9.185 0 01-.983-.641c-1.324-1.001-2.579-2.174-3.295-3.672zM87.983 91.483c2.26-1.156 4.485-2.243 6.93-2.963 2.334-.685 4.738-1.042 7.138-1.402 1.172-.175.788-1.893-.268-1.965-5.043-.346-11.122 1.523-15.096 4.653-.987.785.275 2.198 1.296 1.677zM53.883 79.16c.137-.312.182-.569-.017-.87-.456-.686-1.852-.525-1.732.47.124 1.034.672 1.2 1.574 1.563a19.461 19.461 0 013.857 2.098c2.38 1.645 4.228 3.943 6.593 5.581.813.563 1.927-.555 1.368-1.367-1.409-2.044-3.46-3.779-5.427-5.263-1.029-.779-2.105-1.502-3.257-2.082a17.73 17.73 0 00-1.526-.668c-.37-.14-1.32-.267-1.598-.518.08.302.158.604.24.905l.031-.099-1.357-.185c0 .034.003.065.003.1.02.603.963.98 1.248.335z" fill="#3F7026"/><path d="M55.772 47.93c-.34 2.231-.99 4.206-3.11 5.276-.432.22-.123.857.32.754 2.629-.596 3.212-3.689 3.39-5.952.028-.336-.548-.421-.6-.079zM50.208 44.007c-.388 2.417-2.03 4.025-4.2 4.982-.453.199-.12.874.325.771 2.603-.6 4.33-3.096 4.622-5.65.048-.425-.679-.528-.747-.103zM45.25 39.224c-1.293 1.91-3.316 2.603-5.256 3.625-.532.277-.168 1.182.415.98 2.167-.747 4.508-2.067 5.5-4.22.201-.443-.381-.793-.66-.385zM41.407 33.358c-1.711 1.711-3.693 2.393-6.018 2.784-.552.093-.373.891.127.926 2.537.171 4.979-1.31 6.477-3.257.26-.343-.295-.744-.587-.453zM36.764 25.308c-.638.429-1.275.867-1.954 1.224-.682.36-1.457.542-2.115.933-.412.243-.275 1.035.264.97 1.55-.185 3.24-1.392 4.299-2.493.305-.319-.1-.898-.494-.634zM31.477 18.739c-.288.884-.805 1.618-1.35 2.355-.25.336.274.69.558.432.748-.686 1.16-1.656 1.351-2.633.072-.363-.442-.51-.559-.154zM24.535 13.672c-.189.476-.484.877-.755 1.306-.24.38.312.809.624.48.415-.442.669-1.015.847-1.588.148-.47-.545-.634-.716-.198zM107.985 52.894c-.641 2.825.381 6.466 3.161 7.793.391.185.782-.274.47-.61-1.851-1.995-3.144-4.094-2.739-6.94.079-.569-.758-.84-.892-.243zM115.412 50.309c-.004 2.06 1.416 4.344 3.061 5.492.326.227.758-.219.542-.541-.545-.823-1.159-1.612-1.656-2.465-.501-.858-.816-1.804-1.303-2.66-.171-.303-.644-.166-.644.174zM121.881 45.28c.713 2.434 3.089 4.861 5.812 4.528.391-.048.511-.579.096-.713-2.188-.706-4.111-1.776-4.859-4.104-.209-.665-1.247-.39-1.049.288zM127.895 37.809c.61 1.673 2.095 2.941 3.922 2.972.566.01.713-.888.137-1.005-1.381-.28-2.54-1.045-3.123-2.362-.233-.528-1.135-.15-.936.395zM132.695 30.242c.878 1.378 2.324 2.358 3.991 2.396.61.014.771-.967.147-1.087-1.268-.243-2.414-.788-3.168-1.875-.408-.586-1.364-.051-.97.566zM141.002 24.468c.247 1.032.861 1.958 1.879 2.325.374.133.614-.378.37-.635-.548-.576-1.062-1.172-1.261-1.96-.158-.642-1.142-.371-.988.27z" fill="#fff"/><path d="M65.876 49.894c4.937-.607 9.926-.624 14.86.014 2.612.336 5.204.857 7.744 1.553 2.195.6 4.406 1.7 6.655 1.999.528.072.59-.665.247-.909-1.903-1.34-4.622-1.855-6.857-2.42a60.65 60.65 0 00-7.173-1.361 59.962 59.962 0 00-15.476.065c-.665.089-.679 1.142 0 1.06zM71.434 55.596c2.002-.25 4.025-.37 6.044-.333 2.013.038 4.029.494 6.031.46.494-.01.525-.645.11-.813-3.665-1.491-8.52-.922-12.298-.175-.48.096-.381.923.113.86zM86.094 60.17c1.985.147 3.919.538 5.815 1.138 1.752.555 3.315 1.498 5.03 2.119.37.133.675-.405.387-.662-2.883-2.554-7.512-3.35-11.232-3.439-.548-.014-.535.802 0 .843zM32.537 56.004c2.863.27 5.599-.487 8.444-.521 3.374-.042 5.25 1.731 7.848 3.517.487.336 1.022-.4.62-.806-1.888-1.906-4.326-3.394-7.041-3.634-3.323-.291-6.556.943-9.875.847-.387-.01-.373.559.004.597zM110.269 66.08c3.857-3.82 9.062-3.329 14.036-3.548.587-.028.559-.827 0-.892-5.046-.586-10.988-.123-14.55 3.93-.306.346.178.843.514.51zM76.391 83.422c-1.673 5.102-4.015 10.755-3.531 16.24.034.392.634.539.73.1.58-2.691.576-5.448 1.293-8.129.716-2.68 1.66-5.287 2.256-8.002.11-.49-.593-.686-.748-.21z" fill="#3F7026"/><path d="M48.26 118.78c.103 1.56.165 3.127.189 4.691.048 3.181-.031 6.504 1.368 9.36 2.468 5.04 8.56 6.939 14.005 8.293 6.73 1.677 14.657 3.045 19.937-1.457 3.347-2.852 4.667-7.344 6.172-11.479.288-.788.586-1.57.898-2.345-13.17-7.436-28.008-7.68-42.569-7.063z" fill="#4F9C1F"/><path d="M69.29 119.038c-1.158 2.763-2.262 5.598-2.841 8.547-.37 1.886-.81 4.166-.44 6.065.1.504.93.508 1.022 0 .378-2.019.189-4.135.573-6.185.531-2.818 1.43-5.541 2.43-8.225.18-.47-.555-.648-.743-.202z" fill="#3F7026"/><path d="M94.964 98.813a.753.753 0 00.37-.083.707.707 0 00.309-.199.726.726 0 00.198-.308.698.698 0 00.083-.37c-.01-.086-.024-.172-.035-.257a.935.935 0 00-.246-.426l-.196-.15a.968.968 0 00-.487-.13.754.754 0 00-.37.082.707.707 0 00-.308.198.727.727 0 00-.2.309.7.7 0 00-.082.37c.01.086.024.172.035.257a.936.936 0 00.247.425c.065.052.13.1.195.151.15.086.312.127.487.13zM55.378 92.645a.787.787 0 00.404-.09.78.78 0 00.34-.216.778.778 0 00.216-.339.78.78 0 00.089-.404c-.014-.093-.024-.186-.038-.278a1.057 1.057 0 00-.27-.463c-.073-.055-.141-.11-.213-.165a1.03 1.03 0 00-.532-.144.787.787 0 00-.404.09.778.778 0 00-.34.216.78.78 0 00-.216.339.78.78 0 00-.089.404c.014.093.024.186.038.278.051.178.14.333.27.463.073.055.141.11.213.165.165.096.34.144.532.144z" fill="#fff"/><path d="M81.106 127.088c-.796-.113-2.058.603-2.613.675-.878.113-2.595.302-2.036 1.608.147.343.438.604.768.782.764.418 1.676.586 2.499.243.768-.322 1.567-.476 1.748-1.416.076-.387.395-1.186.172-1.556-.124-.203-.312-.302-.538-.336zM55.851 123.975c.463.102 1.145.658 1.485.812.84.384 3.648.782 2.684 2.26-.202.312-.538.517-.891.637-.827.278-1.752.288-2.503-.195-.7-.449-1.457-.741-1.474-1.701-.01-.483-.192-1.676.486-1.82a.409.409 0 01.213.007z" fill="#5ACD26"/><path d="M55.014 131.562c3.185 2.685 7.224 2.702 11.164 3.031 4.073.336 9.48 2.979 13.381.672.258-.151.162-.603-.157-.583-2.26.134-4.269.706-6.573.34-1.827-.292-3.61-.741-5.451-.964-4.042-.483-8.606-.212-11.952-2.904-.288-.233-.7.165-.412.408z" fill="#3F7026"/><path d="M77.883 80.096c1.087-1.268 2.012-2.876 2.02-2.89.417-.727 1.364-.641 2.077-.57.531.052 1.066.028 1.598-.013.27-.02 1.254.02 1.254.02a49.732 49.732 0 01-1.374-1.906c-.33-.473-.906-.939-.861-1.566.041-.594.394-1.104.617-1.64.237-.558.34-1.165.477-1.755.03-.133.089-.86.209-.94-.651.423-1.31.838-1.975 1.242-.58.357-1.114.826-1.766 1.053-.901.315-1.203-.144-1.731-.786a84.544 84.544 0 01-2.451-3.16c-.045.661-.076 1.326-.107 1.988-.03.686.106 1.416.034 2.119-.037.377-.123.757-.342 1.07-.264.37-.566.37-.933.579-.778.442-1.574.881-2.31 1.395.75.37 1.628.535 2.44.717.522.116 1.128.086 1.602.356.5.288.545.974.692 1.495.305 1.056.573 2.123.83 3.192zM66.984 70.167a11.483 11.483 0 001.066-1.526c.223-.384.72-.34 1.097-.301.281.027.562.013.843-.007.144-.01.665.01.665.01-.25-.33-.49-.669-.726-1.008-.175-.25-.477-.497-.456-.826.02-.312.209-.583.325-.864.124-.295.179-.614.25-.926.018-.072.049-.456.11-.497-.343.223-.692.442-1.042.655-.309.188-.59.435-.933.555-.476.168-.637-.075-.915-.415a50.687 50.687 0 01-1.296-1.67c-.024.35-.041.7-.055 1.053-.017.364.055.748.017 1.118-.02.199-.065.401-.181.566-.138.195-.299.195-.494.305-.412.233-.83.466-1.22.737.397.195.86.281 1.288.377.275.062.597.045.847.189.264.15.288.514.367.788.165.559.309 1.121.443 1.687zM91.38 74.446a11.478 11.478 0 001.067-1.526c.223-.384.72-.34 1.097-.302.282.028.563.014.844-.006.144-.01.665.01.665.01-.25-.33-.49-.669-.727-1.008-.175-.25-.476-.497-.456-.826.02-.312.21-.583.326-.864.123-.295.178-.614.25-.926.017-.072.048-.456.11-.497-.343.223-.693.442-1.043.655-.308.188-.59.435-.932.555-.477.168-.638-.075-.916-.415a50.687 50.687 0 01-1.296-1.67c-.023.35-.04.7-.054 1.053-.017.364.055.748.017 1.118-.02.199-.065.4-.182.565-.137.196-.298.196-.494.306-.411.233-.83.466-1.22.737.397.195.86.28 1.289.377.274.062.597.044.847.188.264.151.288.515.367.789.164.559.305 1.125.442 1.687z" fill="#fff"/><path d="M71.993 116.963c3.003.309 5.996.768 8.914 1.564 2.77.754 5.345 1.882 7.995 2.966.412.168.683-.504.299-.71-5.116-2.794-11.418-4.197-17.212-4.341-.34-.01-.326.487.004.521z" fill="#3F7026"/><path d="M23.561 79.808c3.94-.432 5.06-4.313 5.194-7.728-.5.069-1 .134-1.498.202.302 1.77.312 4.156 1.738 5.466 1.262 1.155 3.13 1.148 4.732 1.055-.076-.548-.148-1.093-.223-1.642-1.828.74-3.57 1.615-4.193 3.631-.69 2.225.157 4.598-.73 6.789.541.072 1.083.147 1.625.219-.165-2.16-.357-4.772-1.406-6.71-1.036-1.91-2.88-1.79-4.745-2.297-.587-.16-1.019.751-.429 1.015 1.622.72 3.446.494 4.128 2.523.583 1.739.727 3.652.795 5.469.038.98 1.286 1.06 1.626.22.593-1.468.51-2.966.497-4.52-.02-2.56.925-3.781 3.27-4.727.796-.32.803-1.718-.222-1.643-1.358.103-3.25.292-4.066-1.1-.672-1.145-.7-2.884-.933-4.156-.161-.87-1.478-.63-1.498.203-.072 2.688-.738 5.952-3.823 6.558-.645.13-.508 1.245.161 1.173zM101.9 35.408c2.636-.336 3.415-2.694 3.535-5.057-.501.069-1.002.134-1.499.203.206 1.227.22 2.756 1.248 3.634.84.716 2.033.73 3.076.682-.076-.548-.148-1.094-.223-1.642-1.108.456-2.201.97-2.705 2.132-.638 1.468-.045 3.117-.587 4.601.542.072 1.084.148 1.626.22-.141-1.454-.247-3.274-1.087-4.519-.72-1.07-1.852-1.083-3.017-1.316-.576-.114-1.032.73-.429 1.014.926.436 1.899.33 2.427 1.471.456.984.412 2.287.45 3.35.03.963 1.309 1.087 1.625.22.301-.827.336-1.609.329-2.486-.01-1.53.319-2.472 1.814-3.08.792-.322.805-1.717-.223-1.642-1.053.08-1.876.217-2.455-1-.268-.566-.281-1.43-.398-2.047-.164-.875-1.474-.628-1.498.202-.052 1.59-.364 3.404-2.167 3.888-.627.175-.524 1.261.158 1.172zM67.676 29.018c5.06-.552 6.477-5.692 6.624-10.036-.5.069-1.001.134-1.498.203.408 2.372.394 5.622 2.451 7.278 1.625 1.31 3.905 1.269 5.873 1.142-.075-.549-.147-1.094-.223-1.642-2.335.94-4.58 2.07-5.376 4.642-.88 2.846.309 5.98-.867 8.756.514.141 1.029.278 1.543.419-.196-2.819-.439-6.227-1.793-8.76-1.327-2.49-3.744-2.25-6.13-2.983-.587-.182-1.012.758-.43 1.015 2.171.953 4.564.535 5.524 3.199.854 2.372 1.067 5.036 1.17 7.532.03.74 1.196 1.231 1.542.419.902-2.126.724-4.252.73-6.515.004-1.34.096-2.701.91-3.82.867-1.192 2.296-1.758 3.62-2.29.795-.318.802-1.72-.223-1.642-1.636.124-3.772.33-5.071-.891-1.43-1.34-1.45-4.457-1.78-6.264-.157-.87-1.477-.63-1.498.202-.092 3.62-1.056 8.133-5.256 8.866-.654.117-.51 1.245.158 1.17zM121.892 98.922c5.537-.576 7.069-6.284 7.227-11.002-.501.069-1.001.134-1.498.202.435 2.51.435 5.956 2.465 7.8 1.772 1.608 4.402 1.567 6.638 1.423-.076-.549-.148-1.094-.223-1.642-2.657 1.07-5.188 2.386-5.956 5.369-.788 3.065.391 6.404-.877 9.367.514.14 1.028.277 1.542.418-.209-3.123-.504-6.795-1.957-9.621-1.409-2.742-4.128-2.448-6.707-3.274-.586-.188-1.008.758-.428 1.015 2.338 1.029 5.067.62 6.106 3.47.967 2.643 1.214 5.623 1.33 8.413.031.741 1.197 1.228 1.543.419.984-2.294.792-4.629.792-7.07 0-1.368.062-2.822.792-4.025.923-1.53 2.685-2.229 4.265-2.863.796-.319.803-1.721-.222-1.642-1.962.15-4.53.37-5.911-1.33-1.334-1.64-1.358-4.63-1.718-6.624-.158-.871-1.478-.631-1.498.202-.1 3.997-1.187 9.072-5.856 9.836-.662.1-.515 1.231.151 1.16zM12.771 112.801c7.149-.024 8.78-8.057 9.254-13.65h-1.683c.637 4.941 2.56 12.436 9.126 11.579 1.183-.154 1.2-2.036 0-1.879-2.835.367-4.693 2.424-5.595 5.047-1.228 3.569-1.406 7.677-1.972 11.393h1.77c-.607-3.593-1.029-7.546-3.26-10.573-1.818-2.466-4.777-4.122-7.845-3.302-.991.264-.573 1.769.421 1.532 6.662-1.56 8.904 7.807 8.884 12.587-.004.997 1.635 1.289 1.8.243.445-2.835.857-5.678 1.337-8.503.442-2.595 1.34-6.137 4.464-6.541v-1.879c-5.52.72-6.888-5.843-7.471-9.922-.14-.991-1.59-.662-1.653.222-.339 4.797-1.299 12.209-7.57 12.412-.802.02-.806 1.234-.007 1.234z" fill="#4F9C1F"/><path d="M.432 75.382c.867-8.239 2.883-16.21 6.01-23.356 16.7-38.146 75.055-47.677 110.297-32.3 24.421 10.656 35.715 35.17 33.949 61.19-3.425 50.44-39.439 68.917-78.713 69.047-50.608.168-75.63-35.719-71.543-74.581z" fill="#DAFAC7"/><path d="M42.603 84.852c.11 6.726 2.246 13.23 3.675 19.803a95.424 95.424 0 012.17 18.816c.049 3.181-.03 6.504 1.369 9.36 2.468 5.04 8.56 6.939 14.005 8.293 6.73 1.677 14.657 3.045 19.937-1.457 2.232-1.903 3.563-4.532 4.646-7.299.27-.693.528-1.392.778-2.092 2.5-7.275 6.226-14.05 10.265-20.53.453-.672.912-1.34 1.372-2.005 1.834-2.671 3.651-5.352 5.088-8.253 3.809-7.687 4.714-16.44 5.561-24.977 6.98.38 10.176-1.217 16.522-4.148 4.69-2.167 10.162-.487 14.938-2.88 2.191-1.098 1.591-4.372-.85-4.612-14.05-1.399-27.926-8.331-34.992-.264-1.406-12.089-10.467-14.08-25.611-16.131-12.058-1.636-23.434-1.193-30.617 8.63-4.934-3.576-11.657-3.124-17.65-2.02-4.22.775-9.178 1.756-13.776 1.646-2.321-.059-3.387 2.918-1.553 4.347 3.284 2.565 7.06 2.277 11.976 3.82 5.407 1.697 7.635 6.76 16.8 5.622.555 4.934-4.145 10.66-4.053 16.33z" fill="#5ACD26"/><path d="M113.447 48.283c6.555-3.196 11.006-8.925 14.554-15.542.71-.98 1.485-1.916 2.308-2.801 3.504-3.761 7.786-6.237 12.545-8.06 5.945-2.277 12.613-1.098 17.149 3.442-.353-.357-2.599-.26-3.154-.32-1.135-.123-2.277-.232-3.418-.229-6.49.02-12.268 4.65-15.768 9.816a17.004 17.004 0 00-1.485 2.736c-.408.94-.747 1.903-1.066 2.88-3.192 12.312-15.607 19.82-26.907 23.314-1.07.185-2.088.192-3.041-.051-1.9-.484-3.521-1.958-4.66-4.927-.637-1.91-.226-3.257.748-4.286.487-.514 1.117-.95 1.827-1.337 1.961-1.598 4.574-1.443 7.049-2.822a57.797 57.797 0 003.319-1.813zM52 42.173c-5.674-4.32-10.172-10.57-12.541-17.695a29.612 29.612 0 00-1.968-3.048c-3.044-4.141-7.011-7.1-11.527-9.463-5.636-2.948-12.394-2.554-17.427 1.43.394-.312 2.612.045 3.168.048 1.142.01 2.287.031 3.422.168 6.442.772 11.643 6.041 14.523 11.582.49.943.857 1.91 1.155 2.89.299.98.525 1.975.734 2.983 2.109 12.411 13.042 23.9 25.522 26.503 1.317-.113 2.561-.6 3.559-1.667 1.183-1.052 1.913-2.32 2.225-3.658.312-1.337.206-2.75-.277-4.087-1.69-3.092-5.507-1.817-7.78-4.028a35.593 35.593 0 01-2.787-1.958zM46.556 63.913c-6.46-3.264-11.845-6.294-18.205-6.606-1.91-.093-3.82-.182-5.723-.36-.473-.045-5.403-.888-5.42-.858-.466.957-.336 2.205.668 2.987 3.285 2.564 7.06 2.276 11.976 3.82 5.37 1.683 7.605 6.685 16.612 5.642l.185-.02c1.364-1.156 1.519-3.789-.093-4.605zM111.469 74.514c6.98.381 10.176-1.217 16.522-4.148 4.69-2.167 10.162-.487 14.938-2.88 1.128-.566 1.512-1.704 1.289-2.712-3.072 1.522-6.147 1.142-9.456.998-3.716-.165-7.443-.24-11.159-.024-2.359.137-4.763.404-6.909 1.392-1.406.644-2.691 1.635-3.573 2.917-.953 1.396-1.292 2.843-1.652 4.457z" fill="#307010"/><path d="M99.96 94.61c.287 1.638-.567 3.325-1.835 4.401-1.269 1.077-2.9 1.633-4.522 1.999-2.956.672-8.068-.082-3.878-3.315 2.873-2.208 6.627-3.336 10.234-3.086z" fill="#fff"/><path d="M98.125 99.011l.044-.04c.25-.895.288-1.856.055-2.764a3.537 3.537 0 00-.689-1.563 15.427 15.427 0 00-5.753 1.731c-.734 1.076-.956 2.39-.274 3.5a6.1 6.1 0 00.936 1.31 9.085 9.085 0 001.162-.181c1.622-.36 3.25-.916 4.519-1.993z" fill="#3F7026"/><path d="M51.85 86.271c-.933 1.375-.85 3.26-.134 4.759.713 1.498 1.972 2.67 3.295 3.672 2.414 1.824 7.375 3.23 4.886-1.43-1.704-3.185-4.66-5.753-8.047-7.001z" fill="#fff"/><path d="M51.713 91.03c-.01-.017-.017-.038-.024-.055.137-.915.497-1.807 1.083-2.537.35-.511.785-.888 1.269-1.138a15.379 15.379 0 014.525 3.936c.227 1.278-.11 2.567-1.186 3.298-.36.291-.854.583-1.389.809a9.185 9.185 0 01-.983-.641c-1.324-1.001-2.579-2.174-3.295-3.672zM87.983 91.483c2.26-1.156 4.485-2.243 6.93-2.963 2.334-.685 4.738-1.042 7.138-1.402 1.172-.175.788-1.893-.268-1.965-5.043-.346-11.122 1.523-15.096 4.653-.987.785.275 2.198 1.296 1.677zM53.883 79.16c.137-.312.182-.569-.017-.87-.456-.686-1.852-.525-1.732.47.124 1.034.672 1.2 1.574 1.563a19.461 19.461 0 013.857 2.098c2.38 1.645 4.228 3.943 6.593 5.581.813.563 1.927-.555 1.368-1.367-1.409-2.044-3.46-3.779-5.427-5.263-1.029-.779-2.105-1.502-3.257-2.082a17.73 17.73 0 00-1.526-.668c-.37-.14-1.32-.267-1.598-.518.08.302.158.604.24.905l.031-.099-1.357-.185c0 .034.003.065.003.1.02.603.963.98 1.248.335z" fill="#3F7026"/><path d="M55.772 47.93c-.34 2.231-.99 4.206-3.11 5.276-.432.22-.123.857.32.754 2.629-.596 3.212-3.689 3.39-5.952.028-.336-.548-.421-.6-.079zM50.208 44.007c-.388 2.417-2.03 4.025-4.2 4.982-.453.199-.12.874.325.771 2.603-.6 4.33-3.096 4.622-5.65.048-.425-.679-.528-.747-.103zM45.25 39.224c-1.293 1.91-3.316 2.603-5.256 3.625-.532.277-.168 1.182.415.98 2.167-.747 4.508-2.067 5.5-4.22.201-.443-.381-.793-.66-.385zM41.407 33.358c-1.711 1.711-3.693 2.393-6.018 2.784-.552.093-.373.891.127.926 2.537.171 4.979-1.31 6.477-3.257.26-.343-.295-.744-.587-.453zM36.764 25.308c-.638.429-1.275.867-1.954 1.224-.682.36-1.457.542-2.115.933-.412.243-.275 1.035.264.97 1.55-.185 3.24-1.392 4.299-2.493.305-.319-.1-.898-.494-.634zM31.477 18.739c-.288.884-.805 1.618-1.35 2.355-.25.336.274.69.558.432.748-.686 1.16-1.656 1.351-2.633.072-.363-.442-.51-.559-.154zM24.535 13.672c-.189.476-.484.877-.755 1.306-.24.38.312.809.624.48.415-.442.669-1.015.847-1.588.148-.47-.545-.634-.716-.198zM107.985 52.894c-.641 2.825.381 6.466 3.161 7.793.391.185.782-.274.47-.61-1.851-1.995-3.144-4.094-2.739-6.94.079-.569-.758-.84-.892-.243zM115.412 50.309c-.004 2.06 1.416 4.344 3.061 5.492.326.227.758-.219.542-.541-.545-.823-1.159-1.612-1.656-2.465-.501-.858-.816-1.804-1.303-2.66-.171-.303-.644-.166-.644.174zM121.881 45.28c.713 2.434 3.089 4.861 5.812 4.528.391-.048.511-.579.096-.713-2.188-.706-4.111-1.776-4.859-4.104-.209-.665-1.247-.39-1.049.288zM127.895 37.809c.61 1.673 2.095 2.941 3.922 2.972.566.01.713-.888.137-1.005-1.381-.28-2.54-1.045-3.123-2.362-.233-.528-1.135-.15-.936.395zM132.695 30.242c.878 1.378 2.324 2.358 3.991 2.396.61.014.771-.967.147-1.087-1.268-.243-2.414-.788-3.168-1.875-.408-.586-1.364-.051-.97.566zM141.002 24.468c.247 1.032.861 1.958 1.879 2.325.374.133.614-.378.37-.635-.548-.576-1.062-1.172-1.261-1.96-.158-.642-1.142-.371-.988.27z" fill="#fff"/><path d="M65.876 49.894c4.937-.607 9.926-.624 14.86.014 2.612.336 5.204.857 7.744 1.553 2.195.6 4.406 1.7 6.655 1.999.528.072.59-.665.247-.909-1.903-1.34-4.622-1.855-6.857-2.42a60.65 60.65 0 00-7.173-1.361 59.962 59.962 0 00-15.476.065c-.665.089-.679 1.142 0 1.06zM71.434 55.596c2.002-.25 4.025-.37 6.044-.333 2.013.038 4.029.494 6.031.46.494-.01.525-.645.11-.813-3.665-1.491-8.52-.922-12.298-.175-.48.096-.381.923.113.86zM86.094 60.17c1.985.147 3.919.538 5.815 1.138 1.752.555 3.315 1.498 5.03 2.119.37.133.675-.405.387-.662-2.883-2.554-7.512-3.35-11.232-3.439-.548-.014-.535.802 0 .843zM32.537 56.004c2.863.27 5.599-.487 8.444-.521 3.374-.042 5.25 1.731 7.848 3.517.487.336 1.022-.4.62-.806-1.888-1.906-4.326-3.394-7.041-3.634-3.323-.291-6.556.943-9.875.847-.387-.01-.373.559.004.597zM110.269 66.08c3.857-3.82 9.062-3.329 14.036-3.548.587-.028.559-.827 0-.892-5.046-.586-10.988-.123-14.55 3.93-.306.346.178.843.514.51zM76.391 83.422c-1.673 5.102-4.015 10.755-3.531 16.24.034.392.634.539.73.1.58-2.691.576-5.448 1.293-8.129.716-2.68 1.66-5.287 2.256-8.002.11-.49-.593-.686-.748-.21z" fill="#3F7026"/><path d="M48.26 118.78c.103 1.56.165 3.127.189 4.691.048 3.181-.031 6.504 1.368 9.36 2.468 5.04 8.56 6.939 14.005 8.293 6.73 1.677 14.657 3.045 19.937-1.457 3.347-2.852 4.667-7.344 6.172-11.479.288-.788.586-1.57.898-2.345-13.17-7.436-28.008-7.68-42.569-7.063z" fill="#4F9C1F"/><path d="M69.29 119.038c-1.158 2.763-2.262 5.598-2.841 8.547-.37 1.886-.81 4.166-.44 6.065.1.504.93.508 1.022 0 .378-2.019.189-4.135.573-6.185.531-2.818 1.43-5.541 2.43-8.225.18-.47-.555-.648-.743-.202z" fill="#3F7026"/><path d="M94.964 98.813a.753.753 0 00.37-.083.707.707 0 00.309-.199.726.726 0 00.198-.308.698.698 0 00.083-.37c-.01-.086-.024-.172-.035-.257a.935.935 0 00-.246-.426l-.196-.15a.968.968 0 00-.487-.13.754.754 0 00-.37.082.707.707 0 00-.308.198.727.727 0 00-.2.309.7.7 0 00-.082.37c.01.086.024.172.035.257a.936.936 0 00.247.425c.065.052.13.1.195.151.15.086.312.127.487.13zM55.378 92.645a.787.787 0 00.404-.09.78.78 0 00.34-.216.778.778 0 00.216-.339.78.78 0 00.089-.404c-.014-.093-.024-.186-.038-.278a1.057 1.057 0 00-.27-.463c-.073-.055-.141-.11-.213-.165a1.03 1.03 0 00-.532-.144.787.787 0 00-.404.09.778.778 0 00-.34.216.78.78 0 00-.216.339.78.78 0 00-.089.404c.014.093.024.186.038.278.051.178.14.333.27.463.073.055.141.11.213.165.165.096.34.144.532.144z" fill="#fff"/><path d="M81.106 127.088c-.796-.113-2.058.603-2.613.675-.878.113-2.595.302-2.036 1.608.147.343.438.604.768.782.764.418 1.676.586 2.499.243.768-.322 1.567-.476 1.748-1.416.076-.387.395-1.186.172-1.556-.124-.203-.312-.302-.538-.336zM55.851 123.975c.463.102 1.145.658 1.485.812.84.384 3.648.782 2.684 2.26-.202.312-.538.517-.891.637-.827.278-1.752.288-2.503-.195-.7-.449-1.457-.741-1.474-1.701-.01-.483-.192-1.676.486-1.82a.409.409 0 01.213.007z" fill="#5ACD26"/><path d="M55.014 131.562c3.185 2.685 7.224 2.702 11.164 3.031 4.073.336 9.48 2.979 13.381.672.258-.151.162-.603-.157-.583-2.26.134-4.269.706-6.573.34-1.827-.292-3.61-.741-5.451-.964-4.042-.483-8.606-.212-11.952-2.904-.288-.233-.7.165-.412.408z" fill="#3F7026"/><path d="M77.883 80.096c1.087-1.268 2.012-2.876 2.02-2.89.417-.727 1.364-.641 2.077-.57.531.052 1.066.028 1.598-.013.27-.02 1.254.02 1.254.02a49.732 49.732 0 01-1.374-1.906c-.33-.473-.906-.939-.861-1.566.041-.594.394-1.104.617-1.64.237-.558.34-1.165.477-1.755.03-.133.089-.86.209-.94-.651.423-1.31.838-1.975 1.242-.58.357-1.114.826-1.766 1.053-.901.315-1.203-.144-1.731-.786a84.544 84.544 0 01-2.451-3.16c-.045.661-.076 1.326-.107 1.988-.03.686.106 1.416.034 2.119-.037.377-.123.757-.342 1.07-.264.37-.566.37-.933.579-.778.442-1.574.881-2.31 1.395.75.37 1.628.535 2.44.717.522.116 1.128.086 1.602.356.5.288.545.974.692 1.495.305 1.056.573 2.123.83 3.192zM66.984 70.167a11.483 11.483 0 001.066-1.526c.223-.384.72-.34 1.097-.301.281.027.562.013.843-.007.144-.01.665.01.665.01-.25-.33-.49-.669-.726-1.008-.175-.25-.477-.497-.456-.826.02-.312.209-.583.325-.864.124-.295.179-.614.25-.926.018-.072.049-.456.11-.497-.343.223-.692.442-1.042.655-.309.188-.59.435-.933.555-.476.168-.637-.075-.915-.415a50.687 50.687 0 01-1.296-1.67c-.024.35-.041.7-.055 1.053-.017.364.055.748.017 1.118-.02.199-.065.401-.181.566-.138.195-.299.195-.494.305-.412.233-.83.466-1.22.737.397.195.86.281 1.288.377.275.062.597.045.847.189.264.15.288.514.367.788.165.559.309 1.121.443 1.687zM91.38 74.446a11.478 11.478 0 001.067-1.526c.223-.384.72-.34 1.097-.302.282.028.563.014.844-.006.144-.01.665.01.665.01-.25-.33-.49-.669-.727-1.008-.175-.25-.476-.497-.456-.826.02-.312.21-.583.326-.864.123-.295.178-.614.25-.926.017-.072.048-.456.11-.497-.343.223-.693.442-1.043.655-.308.188-.59.435-.932.555-.477.168-.638-.075-.916-.415a50.687 50.687 0 01-1.296-1.67c-.023.35-.04.7-.054 1.053-.017.364.055.748.017 1.118-.02.199-.065.4-.182.565-.137.196-.298.196-.494.306-.411.233-.83.466-1.22.737.397.195.86.28 1.289.377.274.062.597.044.847.188.264.151.288.515.367.789.164.559.305 1.125.442 1.687z" fill="#fff"/><path d="M71.993 116.963c3.003.309 5.996.768 8.914 1.564 2.77.754 5.345 1.882 7.995 2.966.412.168.683-.504.299-.71-5.116-2.794-11.418-4.197-17.212-4.341-.34-.01-.326.487.004.521z" fill="#3F7026"/><path d="M23.561 79.808c3.94-.432 5.06-4.313 5.194-7.728-.5.069-1 .134-1.498.202.302 1.77.312 4.156 1.738 5.466 1.262 1.155 3.13 1.148 4.732 1.055-.076-.548-.148-1.093-.223-1.642-1.828.74-3.57 1.615-4.193 3.631-.69 2.225.157 4.598-.73 6.789.541.072 1.083.147 1.625.219-.165-2.16-.357-4.772-1.406-6.71-1.036-1.91-2.88-1.79-4.745-2.297-.587-.16-1.019.751-.429 1.015 1.622.72 3.446.494 4.128 2.523.583 1.739.727 3.652.795 5.469.038.98 1.286 1.06 1.626.22.593-1.468.51-2.966.497-4.52-.02-2.56.925-3.781 3.27-4.727.796-.32.803-1.718-.222-1.643-1.358.103-3.25.292-4.066-1.1-.672-1.145-.7-2.884-.933-4.156-.161-.87-1.478-.63-1.498.203-.072 2.688-.738 5.952-3.823 6.558-.645.13-.508 1.245.161 1.173zM101.9 35.408c2.636-.336 3.415-2.694 3.535-5.057-.501.069-1.002.134-1.499.203.206 1.227.22 2.756 1.248 3.634.84.716 2.033.73 3.076.682-.076-.548-.148-1.094-.223-1.642-1.108.456-2.201.97-2.705 2.132-.638 1.468-.045 3.117-.587 4.601.542.072 1.084.148 1.626.22-.141-1.454-.247-3.274-1.087-4.519-.72-1.07-1.852-1.083-3.017-1.316-.576-.114-1.032.73-.429 1.014.926.436 1.899.33 2.427 1.471.456.984.412 2.287.45 3.35.03.963 1.309 1.087 1.625.22.301-.827.336-1.609.329-2.486-.01-1.53.319-2.472 1.814-3.08.792-.322.805-1.717-.223-1.642-1.053.08-1.876.217-2.455-1-.268-.566-.281-1.43-.398-2.047-.164-.875-1.474-.628-1.498.202-.052 1.59-.364 3.404-2.167 3.888-.627.175-.524 1.261.158 1.172zM67.676 29.018c5.06-.552 6.477-5.692 6.624-10.036-.5.069-1.001.134-1.498.203.408 2.372.394 5.622 2.451 7.278 1.625 1.31 3.905 1.269 5.873 1.142-.075-.549-.147-1.094-.223-1.642-2.335.94-4.58 2.07-5.376 4.642-.88 2.846.309 5.98-.867 8.756.514.141 1.029.278 1.543.419-.196-2.819-.439-6.227-1.793-8.76-1.327-2.49-3.744-2.25-6.13-2.983-.587-.182-1.012.758-.43 1.015 2.171.953 4.564.535 5.524 3.199.854 2.372 1.067 5.036 1.17 7.532.03.74 1.196 1.231 1.542.419.902-2.126.724-4.252.73-6.515.004-1.34.096-2.701.91-3.82.867-1.192 2.296-1.758 3.62-2.29.795-.318.802-1.72-.223-1.642-1.636.124-3.772.33-5.071-.891-1.43-1.34-1.45-4.457-1.78-6.264-.157-.87-1.477-.63-1.498.202-.092 3.62-1.056 8.133-5.256 8.866-.654.117-.51 1.245.158 1.17zM121.892 98.922c5.537-.576 7.069-6.284 7.227-11.002-.501.069-1.001.134-1.498.202.435 2.51.435 5.956 2.465 7.8 1.772 1.608 4.402 1.567 6.638 1.423-.076-.549-.148-1.094-.223-1.642-2.657 1.07-5.188 2.386-5.956 5.369-.788 3.065.391 6.404-.877 9.367.514.14 1.028.277 1.542.418-.209-3.123-.504-6.795-1.957-9.621-1.409-2.742-4.128-2.448-6.707-3.274-.586-.188-1.008.758-.428 1.015 2.338 1.029 5.067.62 6.106 3.47.967 2.643 1.214 5.623 1.33 8.413.031.741 1.197 1.228 1.543.419.984-2.294.792-4.629.792-7.07 0-1.368.062-2.822.792-4.025.923-1.53 2.685-2.229 4.265-2.863.796-.319.803-1.721-.222-1.642-1.962.15-4.53.37-5.911-1.33-1.334-1.64-1.358-4.63-1.718-6.624-.158-.871-1.478-.631-1.498.202-.1 3.997-1.187 9.072-5.856 9.836-.662.1-.515 1.231.151 1.16zM12.771 112.801c7.149-.024 8.78-8.057 9.254-13.65h-1.683c.637 4.941 2.56 12.436 9.126 11.579 1.183-.154 1.2-2.036 0-1.879-2.835.367-4.693 2.424-5.595 5.047-1.228 3.569-1.406 7.677-1.972 11.393h1.77c-.607-3.593-1.029-7.546-3.26-10.573-1.818-2.466-4.777-4.122-7.845-3.302-.991.264-.573 1.769.421 1.532 6.662-1.56 8.904 7.807 8.884 12.587-.004.997 1.635 1.289 1.8.243.445-2.835.857-5.678 1.337-8.503.442-2.595 1.34-6.137 4.464-6.541v-1.879c-5.52.72-6.888-5.843-7.471-9.922-.14-.991-1.59-.662-1.653.222-.339 4.797-1.299 12.209-7.57 12.412-.802.02-.806 1.234-.007 1.234z" fill="#51FC03"/></g><defs><clipPath id="clip0_12319_19369"><path fill="#fff" transform="translate(0 10.037)" d="M0 0h160v139.926H0z"/></clipPath></defs></svg>