<svg width="160" height="160" viewBox="0 0 160 160" fill="none" xmlns="http://www.w3.org/2000/svg"><g clip-path="url(#clip0_12319_21726)"><path d="M.579 95.123c-2.577-16.255 3.81-32.636 12.52-48.09 29.384-52.149 98.395-55.33 132.376-10.997 10.447 13.628 15.591 31.153 14.341 48.27-2.407 32.982-29.55 60.488-60.926 68.301C59.013 162.542 7.481 138.647.58 95.123z" fill="#DAFAC7"/><path d="M87.815 25.932c.138-1.547 1.26-7.118 1.034-8.47-.116-.703-10.934-.163-12.01.028-15.284 2.701-17.798 9.893-24.774 16.428-7.132 6.68-18.624 16.558-16.093 28 .897 4.057 2.606 8.082 2.112 12.209-1.169 9.737-13.399 14.4-16.671 23.644-1.47 4.145-.933 8.741.222 12.985 1.056 3.884 2.623 7.661 4.953 10.948 3.92 5.529 9.836 9.42 16.184 11.799.103.039.205.078.307.113 7.294 2.676 14.991-2.468 15.605-10.213.276-3.492 1.24-7.012 2.634-10.179 3.435-7.792 9.038-14.465 12.608-22.193 2.669-5.783 4.144-12.035 5.56-18.246 3.51-15.435 6.934-31.054 8.329-46.853z" fill="#307010"/><path d="M131.456 111.9c-.749-9.818-9.381-18.641-7.972-28.393.872-6.016 4.508-11.54 5.92-17.546 1.917-8.16-.25-14.885-5.412-20.276-2.895-3.026-4.699-7.577-6.846-11.142-2.895-4.813-5.585-9.928-10.75-12.576-5.324-2.726-11.718-3.584-17.543-4.505-.547 1.052-2.532 6.147-2.765 7.467-2.778 15.69-3.548 31.732-4.18 47.623-.254 6.394-.462 12.844.608 19.15 1.43 8.431 5.097 16.357 6.383 24.812.522 3.436.533 7.1-.113 10.56-1.43 7.676 4.66 14.67 12.399 13.967l.328-.032c6.747-.656 13.48-2.895 18.705-7.237 3.103-2.581 5.606-5.84 7.64-9.332 2.214-3.816 3.933-8.137 3.598-12.54z" fill="#307010"/><path d="M53.226 54.497c-1.585 1.783-3.993.283-5.966 1.674-5.384 3.802-1.19 11.894 2.711 14.588 1.416.67 2.81 1.984 2.99 3.502.696 3.813.978 7.59 1.935 11.32.19.744.41 1.489.664 2.23a28.24 28.24 0 006.574 10.793 27.589 27.589 0 002.348 2.14c4.148 3.777 9.525 5.705 14.994 5.807a24.775 24.775 0 003.287-.155c3.675-.427 7.205-1.635 10.393-3.439a30.077 30.077 0 002.327-1.461c1.684-1.091 3.21-2.376 4.6-3.803a33.264 33.264 0 001.988-2.242c4.904-5.144 6.048-11.964 10.535-17.384 4.163-4.102 10.994-4.498 9.303-13.85-.307-1.695-2.146-2.701-3.753-3.287-.985-.36-3.396-.102-3.908-.907-1.038-1.635-1.236-6.373-1.458-8.22-1.363-11.36-10.715-18.549-21.36-20.89-7.598-1.67-16.42-1.705-23.658 1.723-4.159 1.97-7.453 5.409-9.642 9.42-.97 1.776-1.84 3.608-2.52 5.51-.844 2.352-.626 4.894-2.334 6.889-.022.01-.036.028-.05.042z" fill="#DAFAC7"/><path d="M64.308 103.469c1.494 1.568 3.962 2.429 5.978 3.128 2.249.78 4.607 1.26 6.976 1.497 4.427.441 9.96.155 13.886-2.136.865-.505.26-1.716-.65-1.546-2.15.399-4.219 1.105-6.4 1.384a30.067 30.067 0 01-6.55.084 29.32 29.32 0 01-6.397-1.338c-2.059-.674-3.947-1.917-6.016-2.482-.83-.229-1.402.802-.827 1.409zM64.015 55.51c3.74-.444 7.52-1.027 10.956-2.573 3.435-1.546 6.528-4.177 7.88-7.693.328-.858.572-1.794 1.21-2.454.64-.66 1.858-.883 2.43-.166.254.318.325.742.41 1.14 1.246 6.101 7.202 13.734 13.133 15.627 5.931 1.892 12.304 1.627 18.525 1.348.536-2.725-.77-8.635-1.78-11.223a63.12 63.12 0 00-9.094-15.976c-1.282-1.638-2.666-3.23-4.371-4.42-1.953-1.36-4.247-2.136-6.539-2.775-8.31-2.33-17.172-3.125-25.607-1.289-2.086.456-4.152 1.07-6.076 1.998-4.988 2.405-8.816 6.818-11.294 11.771-1.31 2.623-6.051 12.918-4.318 15.68 1.85 2.937 11.722 1.341 14.535 1.006z" fill="#307010"/><path d="M41.83 70.995c.399 5.624-1.215 11.167-4.714 15.612-3.173 4.032-6.789 7.308-8.53 12.287-1.574 4.497-1.715 9.49-.31 14.048 1.267 4.123 3.877 8.621 7.714 10.817.689.392 1.3-.491.816-1.056-3.15-3.668-5.97-7.047-7.104-11.894-1.15-4.918-.367-10.238 2.059-14.659 2.383-4.342 6.415-7.48 8.713-11.883 2.132-4.082 2.997-8.69 2.574-13.268-.07-.773-1.275-.791-1.218-.004z" fill="#51FC03"/><path d="M35.245 104.627c.043 3.534.731 7.001 2.094 10.264 1.193 2.859 3.17 6.584 5.995 8.13.533.293 1.136-.296.833-.833-.738-1.31-1.85-2.401-2.747-3.601-.97-1.303-1.8-2.701-2.546-4.145-1.574-3.057-2.489-6.39-2.767-9.815-.046-.543-.869-.561-.862 0zM46.324 85.682c-2.524 2.987-4.318 6.67-5.564 10.359-1.137 3.368-2.203 7.478-.689 10.888.325.731 1.596.208 1.307-.551-1.236-3.241.01-7.244 1.034-10.376 1.109-3.393 2.525-6.863 4.569-9.811.271-.389-.35-.872-.657-.509zM49.205 94.293c-1.963 4.876-2.796 9.557-2.765 14.821.032 5.279 1.08 11.372 4.505 15.57.548.671 1.437-.184 1.123-.865-1.15-2.475-2.348-4.858-3.043-7.516-.692-2.638-.992-5.363-.985-8.089.01-4.752.604-9.151 1.956-13.705.151-.516-.6-.692-.791-.216zM55.828 99.12c-2.023 4.875-1.86 10.259 0 15.174.208.551 1.211.54 1.123-.152-.276-2.164-.946-4.247-1.169-6.425-.293-2.864.124-5.607 1.148-8.294.264-.695-.826-.967-1.102-.303zM116.779 80.58c-1.49 4.799-1.228 9.915.84 14.504 1.113 2.465 2.708 4.671 3.888 7.104a19.82 19.82 0 011.98 8.134c.138 5.296-1.765 10.482-5.342 14.398-3.474 3.802-7.855 5.754-12.734 7.082-.985.268-.83 1.945.247 1.836 9.998-1 18.327-9.812 19.601-19.588.738-5.634-.769-10.718-3.745-15.47-1.6-2.557-3.132-5.07-3.852-8.032-.777-3.185-.724-6.528.049-9.71.149-.603-.748-.85-.932-.257z" fill="#51FC03"/><path d="M111.656 95.028c1.473 5.723 2.249 11.735.964 17.571-.522 2.373-1.394 4.657-2.662 6.733-1.285 2.104-3.001 3.672-4.621 5.486-.498.555.12 1.275.762.989 4.565-2.027 7.238-7.863 8.269-12.449 1.394-6.206.18-12.653-1.741-18.602-.194-.61-1.133-.36-.971.272zM106.131 103.621c-.134 5.497-1.892 10.087-4.582 14.8-.276.48.416 1.066.79.611 3.439-4.184 4.901-10.073 4.59-15.411-.032-.508-.787-.515-.798 0zM98.403 104.79c-2.581 8.409-5.762 18.57-2.235 27.195.254.622 1.211.403 1.034-.286-1.108-4.342-1.5-8.604-.956-13.07.561-4.614 1.79-9.13 2.994-13.61.148-.54-.675-.762-.837-.229zM85.375 28.795c-5.507 12.127-16.152 23.485-30.62 21.836-.706-.08-.88 1.144-.17 1.247 7.002 1.016 14.038-1.38 19.545-5.699 5.61-4.395 9.342-10.545 11.891-17.112.145-.367-.48-.636-.646-.272z" fill="#51FC03"/><path d="M76.807 31.348c-1.307 2.669-3.065 5.052-5.272 7.05-2.245 2.034-4.762 3.33-7.449 4.66-.395.195-.116.827.297.706 5.776-1.659 10.478-6.813 12.865-12.155.134-.3-.297-.561-.441-.261zM92.779 29.462c-.314 9.811 3.675 20.823 13.042 25.265.713.335 1.338-.7.624-1.07-9.186-4.77-12.116-14.539-12.861-24.195-.043-.512-.788-.522-.805 0zM99.62 36.845c1.604 4.702 3.623 10.048 8.848 11.626.523.159.721-.622.223-.805-4.773-1.776-6.779-6.567-8.435-10.994-.144-.396-.773-.233-.635.173z" fill="#51FC03"/><path d="M61.251 71.377c1.56 2.8 5.063 4.254 8.19 3.897 2.483-.285 5.929-2.485 5.756-5.324-.04-.628-.788-.805-1.14-.31-.597.836-.922 1.75-1.692 2.482-.872.826-1.966 1.306-3.142 1.507-2.577.441-5.578-.561-7.026-2.807-.385-.582-1.292-.063-.946.555zM102.728 74.233c-1.716 2.023-4.678 2.665-7.188 1.974-1.173-.325-2.221-.911-3.023-1.836-.734-.848-.963-1.907-1.479-2.864-.236-.444-1.02-.374-1.12.145-.56 2.924 2.617 5.568 5.18 6.147 3.065.692 6.592-.353 8.488-2.906.367-.49-.459-1.13-.858-.66zM53.173 67.903c1.084-2.857.184-6.25-1.892-8.414-.636-.663-1.589.318-1 1 1.794 2.079 2.338 4.462 1.932 7.149-.095.632.73.875.96.265zM112.257 73.576c.247-3.53 2.52-5.931 5.465-7.576.579-.325.18-1.186-.441-1.045-3.817.872-6.119 4.904-6.024 8.621.018.646.957.636 1 0zM81.21 74.25c.133 1.59-.018 3.093-.665 4.566-.356.808-.896 1.588-.921 2.506-.028 1.169.696 2.21 1.906 2.182.608-.014.798-.989.149-1.105-1.953-.353.091-3.877.303-4.964.212-1.102.177-2.185-.017-3.287-.07-.423-.791-.332-.756.103z" fill="#307010"/><path d="M85.742 89.909c.918.631-.85 2.683-1.472 3.29-.73.717-1.68 1.211-2.704 1.324a4.234 4.234 0 01-.763.014c-1.543-.102-2.994-.766-3.968-1.988-.618-.773-1.727-1.952-1.373-2.676.522-1.063 2.838-.992 3.798-1.01 1.134-.02 2.263.1 3.375.287.572.095 1.14.211 1.71.338.455.106 1.009.152 1.397.42z" fill="#51FC03"/><path d="M73.234 89.728c2.651.728 4.717 2.25 7.555 2.359 2.666.102 5.674-.456 8.113-1.522.47-.205.103-.826-.321-.763-2.85.431-5.476 1.515-8.42 1.286-2.475-.191-4.431-1.744-6.835-2.037-.392-.046-.456.578-.092.677zM77.71 93.665c1.847 1.352 4.269 1.617 6.27.434.495-.293.06-.97-.437-.752-1.808.784-3.803.805-5.536-.19-.336-.191-.597.29-.297.508z" fill="#307010"/><path d="M83.26 56.443c1.042.526 1.702 1.73 1.582 2.891-.12 1.162-1.006 2.207-2.136 2.51-1.056.283-2.171-.046-3.21-.388.972 2.231 3.387 3.746 5.82 3.644.412-.018.829-.078 1.196-.269.282-.145.522-.364.748-.586 1.388-1.377 2.398-3.474 1.632-5.275-.428-1.006-1.356-1.74-2.38-2.121-1.024-.385-2.14-.452-3.23-.41l-.022.004z" fill="#51FC03"/><path d="M49.283 63.648a8.615 8.615 0 011.719 1.31c.49.487.872 1.088 1.38 1.547.304.275.897.014.738-.431-.508-1.437-2.086-2.539-3.378-3.22-.52-.272-.971.494-.46.794zM117.185 69.731c-1.857-.836-4.448.424-5.2 2.214-.156.367.374.58.618.36.624-.565 1.274-1.133 2.047-1.49.795-.363 1.61-.331 2.454-.451.286-.043.342-.516.081-.633z" fill="#307010"/><path d="M118.064 31.189c.053-2.023.946-4.544 2.969-4.615 2.094-.074 3.129 2.539 3.224 4.632a20.47 20.47 0 01-1.335 8.244 15.308 15.308 0 016.338-8.099c.353-.222.737-.434 1.154-.448.392-.01.77.159 1.098.374 2.242 1.472 2.344 5.003.713 7.132-1.631 2.129-4.441 3.032-7.117 3.18 1.966.142 3.901-.515 5.871-.652 1.966-.142 4.247.448 5.102 2.227.79 1.645-.053 3.757-1.582 4.752-1.529.996-3.534 1.014-5.275.466-1.74-.547-3.269-1.602-4.745-2.676a10.095 10.095 0 014.096 5.003c.67 1.797.579 4.244-1.12 5.144-1.348.713-3.092.018-4.056-1.162-.964-1.182-1.331-2.725-1.674-4.212-.374-1.634-.72-3.131-1.122-4.893.48 1.829-.254 3.916-1.776 5.045-1.518 1.127-3.728 1.225-5.342.237-1.288-.791-2.175-2.482-1.525-3.845.275-.582.784-1.02 1.303-1.402a14.287 14.287 0 015.077-2.383 10.48 10.48 0 01-5.762.022c-1.67-.474-3.414-1.677-3.464-3.414-.067-2.33 1.988-2.998 3.969-2.835.653.052 5.998 1.712 5.998 1.214.014-1.48-1.063-5.229-1.017-7.036zM62.83 21.169c.589-1.935.532-4.607-1.36-5.313-1.963-.731-3.767 1.422-4.52 3.375a20.402 20.402 0 00-1.334 8.244 15.327 15.327 0 00-3.456-9.688c-.265-.322-.561-.646-.953-.791-.371-.134-.78-.092-1.162.007-2.591.689-3.806 4.007-2.93 6.542.875 2.535 3.255 4.28 5.751 5.264-1.913-.487-3.541-1.72-5.363-2.475-1.822-.755-4.173-.914-5.543.502-1.267 1.31-1.133 3.583.004 5.01 1.137 1.426 3.032 2.079 4.858 2.107 1.825.028 3.608-.49 5.345-1.041a10.1 10.1 0 00-5.465 3.456c-1.204 1.493-1.89 3.845-.562 5.232 1.053 1.102 2.93.996 4.216.177 1.285-.82 2.122-2.165 2.916-3.467.872-1.434 1.67-2.744 2.613-4.29-1.031 1.585-.992 3.795.092 5.345 1.083 1.55 3.152 2.341 4.992 1.91 1.472-.342 2.845-1.666 2.662-3.166-.078-.64-.424-1.215-.795-1.745a14.312 14.312 0 00-4.063-3.862 10.509 10.509 0 005.458 1.84c1.737.077 3.77-.516 4.364-2.147.801-2.189-.94-3.47-2.87-3.944-.636-.155-6.232-.268-6.077-.741.452-1.395 2.655-4.615 3.181-6.341z" fill="#51FC03"/><path d="M121.57 40.644c.918-.936 1.01-2.881.272-3.94-.191-.276-.773-.223-.717.194.071.55.209 1.08.166 1.641-.046.611-.275 1.123-.406 1.706-.092.388.385.702.685.399zM123.381 41.522c.936-1.278 2.154-1.892 3.531-2.577.501-.25.134-.964-.364-.861-1.62.328-3.026 1.67-3.908 3.004-.307.47.42.869.741.434zM123.021 42.832c1.543.389 2.659 1.296 3.898 2.239.339.257.734-.23.551-.551-.872-1.532-2.666-2.256-4.343-2.443-.438-.053-.519.65-.106.755zM121.517 43.563a9.02 9.02 0 01.752 1.833c.166.593.212 1.218.396 1.804.166.53.872.388.925-.124.137-1.352-.558-2.863-1.215-4.01-.318-.562-1.161-.068-.858.497zM120.359 42.37c-1.055.773-2.231 2.132-2.206 3.527.007.424.67.678.861.233.24-.554.35-1.144.643-1.68a4.99 4.99 0 011.2-1.434c.353-.297-.12-.921-.498-.646zM120.426 41.258c-1.419-.512-3.001-.791-4.498-.477-.543.113-.399.932.127.943 1.413.032 2.779-.025 4.184.212.445.077.618-.523.187-.678z" fill="#307010"/><path d="M121.821 39.733c-.526-.106-1.119-.117-1.554.204-1.02.752-.752 2.807.177 3.506.649.49 1.853.533 2.577.159.449-.23.756-.692.869-1.186.335-1.448-.728-2.412-2.069-2.683z" fill="#fff"/><path d="M54.893 30.652c-.717.67-1.363 1.37-1.953 2.154-.561.748-1.218 1.55-1.468 2.464-.075.275.268.466.47.275.663-.628 1.104-1.497 1.669-2.217a49.582 49.582 0 011.79-2.16c.307-.354-.166-.837-.508-.516zM54.48 30.066a4.894 4.894 0 00-4.488.805c-.402.314.113.939.537.695 1.228-.713 2.44-.988 3.855-.801.413.05.46-.582.096-.7zM55.486 28.72c-.223-1.397-1.08-2.75-2.38-3.378-.586-.282-1.017.484-.505.862.971.713 1.755 1.567 2.186 2.711.17.438.773.265.699-.194zM57.251 28.262c.113-1.215.88-1.878 1.656-2.715.23-.247.007-.678-.336-.58-1.341.386-1.97 2.01-1.945 3.295.007.41.59.395.625 0zM57.12 30.744c.576-.004 1.144-.092 1.716-.11.996-.028 1.96.17 2.938.322.508.077.706-.593.215-.777-1.652-.614-3.17-.381-4.869-.35-.59.007-.59.918 0 .915zM56.075 31.524c.544.84.798 1.74 1.07 2.69.124.434.727.322.76-.102.084-1.155-.456-2.228-1.187-3.086-.3-.353-.897.11-.643.498z" fill="#307010"/><path d="M56.57 28.089c.533.067 1.101.243 1.408.685.731 1.038-.17 2.902-1.274 3.269-.773.258-1.924-.078-2.496-.66-.353-.36-.498-.897-.452-1.398.141-1.483 1.458-2.062 2.814-1.896z" fill="#fff"/><path d="M60.252 85.195c-.886-3.251-3.28-6.754-6.75-7.534.384 2.662.723 5.303 1.394 7.92.19.744.41 1.489.664 2.23a28.016 28.016 0 002.846 6.041c1.79-2.595 2.891-5.529 1.846-8.657zM101.93 87.579c-1.246 3.117-1.794 5.641-.569 8.699.237-.276.474-.548.703-.83 3.774-3.961 5.324-8.918 7.884-13.462-3.404-.092-6.461 2.164-8.018 5.593zM136.384 81.319c2.98.222 5.589-1.494 7.139-3.969 1.86-2.965 1.942-6.672 1.917-10.058-.007-.996-1.419-.953-1.518 0-.357 3.499-.724 7.34 1.108 10.524 1.374 2.384 3.813 4.135 6.627 4 1.01-.049 1.024-1.578 0-1.578-7.622.007-8.597 8.96-9.956 14.514.509.071 1.02.138 1.529.209-.028-2.239-.064-4.48-.095-6.719-.022-1.6.194-3.474-.389-5.003-.911-2.404-4-3.34-6.344-3.308-.703.01-.851 1.031-.166 1.225 2.757.784 5.176.943 5.296 4.4.106 3.13.088 6.273.141 9.405.014.858 1.32 1.08 1.529.208 1.136-4.706 1.74-13.54 8.455-13.349v-1.578c-6.676.127-6.637-8.315-6.221-12.947h-1.518c.039 4.904-.854 12.936-7.541 12.63-.897-.047-.883 1.327.007 1.394zM23.598 46.744c3.132-.395 4.028-3.297 4.152-6.069-.487.067-.974.13-1.458.198.243 1.433.25 3.305 1.44 4.339 1.003.868 2.443.876 3.69.808-.07-.533-.145-1.066-.216-1.595-1.306.533-2.598 1.137-3.191 2.506-.78 1.797-.018 3.813-.713 5.635.526.07 1.055.141 1.581.215-.148-1.694-.293-3.72-1.133-5.232-.812-1.468-2.256-1.475-3.742-1.81-.562-.128-1.003.726-.417.984 1.2.526 2.673.537 3.128 1.995.406 1.3.501 2.711.55 4.063.036.943 1.265 1.049 1.582.216.42-1.102.396-2.164.392-3.322-.007-1.893.586-2.948 2.394-3.676.773-.31.784-1.67-.215-1.596-1.162.085-2.521.244-3.132-1.09-.378-.827-.402-1.939-.568-2.825-.156-.847-1.434-.61-1.458.198-.06 2.051-.512 4.385-2.821 4.932-.618.138-.502 1.207.155 1.126zM74.854 122.552c3.633-.424 4.664-3.958 4.791-7.132-.462.064-.925.124-1.387.187.282 1.653.282 3.877 1.641 5.074 1.176 1.034 2.864 1.027 4.329.942-.067-.505-.138-1.013-.205-1.518-1.62.657-3.21 1.43-3.824 3.192-.727 2.086.11 4.349-.716 6.418.501.067 1.002.134 1.504.205-.16-1.995-.325-4.402-1.307-6.185-.96-1.748-2.63-1.67-4.37-2.126-.54-.141-.947.699-.396.939 1.547.668 3.23.47 3.852 2.458.494 1.578.625 3.272.692 4.914.035.907 1.19.985 1.504.205.547-1.366.462-2.743.459-4.187-.007-2.323.883-3.481 3.019-4.343.737-.296.741-1.589-.205-1.518-1.547.113-3.178.24-3.933-1.458-.438-.982-.48-2.33-.675-3.386-.148-.808-1.366-.582-1.387.187-.07 2.493-.678 5.469-3.527 6.052-.604.12-.48 1.151.141 1.08zM63.08 136.024c3.633-.423 4.664-3.957 4.79-7.131-.462.063-.924.123-1.387.187.283 1.652.283 3.876 1.642 5.073 1.176 1.035 2.863 1.028 4.329.943-.068-.505-.138-1.013-.205-1.518-1.62.656-3.21 1.43-3.824 3.191-.727 2.087.11 4.35-.717 6.419.502.067 1.003.134 1.504.205-.158-1.995-.324-4.403-1.306-6.186-.96-1.748-2.63-1.67-4.37-2.125-.54-.142-.947.699-.396.939 1.546.667 3.23.469 3.852 2.457.494 1.578.625 3.273.692 4.915.035.907 1.19.985 1.504.204.547-1.366.462-2.743.459-4.187-.007-2.323.882-3.481 3.018-4.342.738-.297.742-1.589-.205-1.519-1.546.113-3.177.24-3.932-1.458-.438-.981-.48-2.33-.675-3.385-.148-.809-1.366-.583-1.387.187-.07 2.492-.678 5.468-3.527 6.051-.604.124-.48 1.154.14 1.08zM5.695 76.072c7.753-.003 9.543-8.759 10.055-14.81h-1.872c.41 3.191.844 6.584 2.818 9.243 1.656 2.227 4.282 3.714 7.1 3.336 1.31-.176 1.33-2.26 0-2.087-3.132.406-5.169 2.705-6.136 5.61-1.282 3.852-1.483 8.234-2.094 12.234h1.963c-.639-3.849-1.116-8.04-3.428-11.32-1.942-2.753-5.264-4.656-8.643-3.738-1.098.3-.635 1.966.47 1.702 3.315-.791 6.478 1.74 7.767 4.642 1.204 2.719 1.843 6.027 1.836 8.986-.004 1.108 1.814 1.433 1.998.271.49-3.135.932-6.284 1.483-9.408.483-2.754 1.476-6.454 4.784-6.885v-2.087c-5.967.798-7.45-6.333-8.078-10.74-.159-1.1-1.765-.734-1.836.248-.364 5.169-1.405 13.232-8.184 13.437-.886.021-.89 1.37-.003 1.366z" fill="#51FC03"/></g><defs><clipPath id="clip0_12319_21726"><path fill="#fff" transform="translate(0 5.158)" d="M0 0h160v149.684H0z"/></clipPath></defs></svg>